<svg width="67" height="64" viewBox="0 0 67 64" fill="none" xmlns="http://www.w3.org/2000/svg">
<path d="M45.5566 57.6586C45.2686 57.6586 44.9753 57.5653 44.7299 57.3706C36.6899 51.0079 27.9113 43.5199 25.5114 35.1759C24.4954 31.6426 26.5434 27.9439 30.0766 26.9253C33.6099 25.9146 37.3113 27.9599 38.3273 31.4906C39.7459 36.4213 49.3779 44.0453 53.0046 46.9146C53.5833 47.3706 53.6793 48.2106 53.2233 48.7866C52.7673 49.3653 51.9326 49.4639 51.3513 49.0053C44.4633 43.5546 37.2233 37.2959 35.7646 32.2266C35.1539 30.1066 32.9299 28.8826 30.8126 29.4879C28.6953 30.0986 27.4659 32.3199 28.0739 34.4373C30.2553 42.0213 38.6686 49.1706 46.3833 55.2773C46.9619 55.7333 47.0579 56.5733 46.6019 57.1493C46.3406 57.4853 45.9513 57.6586 45.5566 57.6586Z" fill="#219EBC"/>
<path d="M11.6605 50.9094C11.0925 50.9094 10.5645 50.544 10.3885 49.9734C10.1671 49.2694 10.5591 48.5227 11.2631 48.304C12.7538 47.8374 17.4471 45.728 15.2605 38.1254C13.9831 33.6747 14.5111 28.992 16.7538 24.944C18.9965 20.8907 22.6818 17.9547 27.1351 16.6747C36.1057 14.12 45.6017 19.2134 48.4284 28.056C49.0924 28.68 53.6444 32.44 56.7591 34.968C57.3297 35.432 57.4177 36.272 56.9537 36.8427C56.4924 37.416 55.6497 37.504 55.0791 37.0374C46.5057 30.08 46.2204 29.5974 46.0817 29.368C46.0257 29.2747 45.9831 29.176 45.9511 29.0747C43.6391 21.4667 35.5244 17.056 27.8684 19.24C24.1031 20.32 20.9831 22.8054 19.0845 26.232C17.1885 29.6587 16.7405 33.6214 17.8205 37.3867C20.0925 45.2827 16.1351 49.5734 12.0551 50.848C11.9271 50.888 11.7938 50.9094 11.6605 50.9094Z" fill="#219EBC"/>
<path d="M15.9193 56C15.3513 56 14.8259 55.6347 14.6473 55.064C14.4259 54.3627 14.8179 53.6134 15.5219 53.3947C21.0473 51.6667 23.0579 48.8294 20.3646 36.5681C18.9059 29.9174 22.4473 23.5707 28.6018 21.8001C34.9565 19.9814 41.6232 23.6641 43.4498 30.0161C43.8205 31.3041 45.5138 33.7867 55.4098 41.6214C55.9885 42.0774 56.0845 42.9174 55.6285 43.4961C55.1725 44.0721 54.3378 44.176 53.7565 43.7147C42.8312 35.0694 41.4072 32.5707 40.8872 30.7574C39.4658 25.8187 34.2925 22.9494 29.3352 24.3681C24.5513 25.7441 21.8126 30.7441 22.9673 36.0001C25.7113 48.5014 24.0339 53.5334 16.3139 55.944C16.1859 55.9814 16.0499 56 15.9193 56Z" fill="#219EBC"/>
<path d="M49.2524 53.3333C48.9111 53.3333 48.5698 53.2026 48.3084 52.944C47.8204 52.456 46.7484 51.6426 45.5084 50.7013C40.7324 47.0773 32.7378 41.0133 30.6364 33.7013C30.4338 32.992 30.8418 32.256 31.5484 32.0506C32.2658 31.848 32.9938 32.256 33.1991 32.9626C35.0551 39.4213 42.6071 45.1493 47.1191 48.5733C48.4924 49.616 49.5778 50.44 50.1938 51.056C50.7138 51.576 50.7138 52.4213 50.1938 52.9413C49.9351 53.2026 49.5938 53.3333 49.2524 53.3333Z" fill="#219EBC"/>
<path d="M29.2524 64C29.2231 64 29.1964 64 29.1671 63.9974C28.4337 63.952 27.8737 63.32 27.9191 62.584C28.0177 61.04 28.7297 53.3334 33.2524 53.3334C36.5777 53.3334 38.5804 56.0534 39.9057 57.8534C40.2604 58.3334 40.5697 58.7654 40.8604 59.0587C41.3804 59.5787 41.3804 60.424 40.8604 60.944C40.3404 61.464 39.4951 61.464 38.9751 60.944C38.6071 60.576 38.2044 60.0427 37.7564 59.4374C36.6311 57.904 35.2311 56 33.2524 56C31.8071 56 30.7537 59.992 30.5831 62.7494C30.5377 63.456 29.9511 64 29.2524 64Z" fill="#219EBC"/>
<path d="M21.2524 61.3333C20.6898 61.3333 20.1671 60.976 19.9831 60.4107C19.7564 59.7093 20.1404 58.96 20.8391 58.7307C24.2098 57.6347 26.4524 50.6373 25.3138 47.072C25.0898 46.3707 25.4764 45.6213 26.1778 45.3973C26.879 45.1627 27.6284 45.56 27.8524 46.2613C29.2684 50.6907 26.7938 59.6027 21.6604 61.2693C21.5271 61.312 21.3884 61.3333 21.2524 61.3333Z" fill="#219EBC"/>
<path d="M10.5858 34.6666C9.84977 34.6666 9.25244 34.0693 9.25244 33.3333C9.25244 20.8346 19.4204 10.6666 31.919 10.6666C44.223 10.6666 48.6257 17.7733 51.839 22.9626C53.3564 25.408 54.6657 27.5226 56.3324 28.064C57.0337 28.2906 57.4177 29.0426 57.1884 29.744C56.9644 30.4426 56.215 30.832 55.5084 30.6C52.911 29.7573 51.3644 27.2586 49.5724 24.3653C46.527 19.4506 42.7377 13.3333 31.919 13.3333C20.8898 13.3333 11.9191 22.304 11.9191 33.3333C11.9191 34.0693 11.3218 34.6666 10.5858 34.6666Z" fill="#219EBC"/>
<path d="M11.9191 44C11.4284 44 10.9591 43.7307 10.7244 43.264C10.4791 42.7707 9.25244 40.2347 9.25244 38.6667C9.25244 37.9307 9.84977 37.3334 10.5858 37.3334C11.3218 37.3334 11.9191 37.9307 11.9191 38.6667C11.9191 39.3627 12.6311 41.1094 13.1111 42.0694C13.4418 42.728 13.1724 43.528 12.5138 43.8587C12.3244 43.9547 12.1218 44 11.9191 44Z" fill="#219EBC"/>
<path d="M50.5857 16C50.1351 16 49.6951 15.7734 49.4444 15.3574C48.1297 13.192 40.8364 8.00004 30.5857 8.00004C19.9245 8.00004 14.2178 13.448 13.0578 15.3574C12.6791 15.9894 11.8578 16.1867 11.2285 15.8054C10.5991 15.424 10.3965 14.6054 10.7805 13.976C12.2391 11.5707 18.6418 5.33337 30.5857 5.33337C41.8177 5.33337 49.8951 10.96 51.7244 13.976C52.1084 14.6054 51.9057 15.424 51.2764 15.808C51.0604 15.9387 50.8231 16 50.5857 16Z" fill="#219EBC"/>
<path d="M45.2522 5.33333C45.1082 5.33333 44.9615 5.30933 44.8175 5.26133C44.2789 5.07733 43.7669 4.88533 43.2576 4.69867C40.4496 3.65333 37.7962 2.66667 30.5855 2.66667C24.183 2.66667 22.7403 3.40533 20.751 4.42667C20.2603 4.67733 19.7403 4.944 19.1296 5.216C18.4603 5.52 17.6683 5.216 17.367 4.54667C17.0656 3.87467 17.367 3.08533 18.0363 2.784C18.599 2.53067 19.0763 2.28533 19.5296 2.05333C21.7696 0.906667 23.5376 0 30.5855 0C38.2762 0 41.2815 1.11733 44.1882 2.19733C44.6789 2.37867 45.1695 2.56267 45.6869 2.74133C46.3829 2.98133 46.7535 3.73867 46.5135 4.43467C46.3215 4.98667 45.8042 5.33333 45.2522 5.33333Z" fill="#219EBC"/>
<path d="M55.9192 23.9999C55.3538 23.9999 54.8312 23.6399 54.6498 23.0719C54.0392 21.1706 52.1378 18.0613 52.1165 18.0319C51.7298 17.4053 51.9272 16.5839 52.5538 16.1973C53.1805 15.8079 54.0018 16.0053 54.3885 16.6346C54.4738 16.7733 56.4818 20.0479 57.1885 22.2613C57.4125 22.9626 57.0258 23.7119 56.3245 23.9359C56.1885 23.9786 56.0525 23.9999 55.9192 23.9999Z" fill="#219EBC"/>
</svg>
