<svg width="36" height="36" viewBox="0 0 36 36" fill="none" xmlns="http://www.w3.org/2000/svg">
<path d="M16.6665 4.37024H13.9998C7.33317 4.37024 4.6665 7.03691 4.6665 13.7036V21.7036C4.6665 28.3702 7.33317 31.0369 13.9998 31.0369H21.9998C28.6665 31.0369 31.3332 28.3702 31.3332 21.7036V19.0369" stroke="#FB8500" stroke-width="2.2" stroke-linecap="round" stroke-linejoin="round"/>
<path d="M23.386 5.73037L12.8793 16.237C12.4793 16.637 12.0794 17.4237 11.9994 17.997L11.426 22.0104C11.2127 23.4637 12.2394 24.477 13.6927 24.277L17.706 23.7037C18.266 23.6237 19.0527 23.2237 19.466 22.8237L29.9727 12.317C31.786 10.5037 32.6393 8.39704 29.9727 5.73037C27.306 3.06371 25.1994 3.91704 23.386 5.73037Z" stroke="#FB8500" stroke-width="2.2" stroke-miterlimit="10" stroke-linecap="round" stroke-linejoin="round"/>
<path d="M21.8804 7.23694C22.7737 10.4236 25.267 12.9169 28.467 13.8236" stroke="#FB8500" stroke-width="2.2" stroke-miterlimit="10" stroke-linecap="round" stroke-linejoin="round"/>
</svg>
