<svg width="68" height="64" viewBox="0 0 68 64" fill="none" xmlns="http://www.w3.org/2000/svg">
<path d="M45.8564 57.6586C45.5684 57.6586 45.2751 57.5653 45.0297 57.3706C36.9897 51.0079 28.2111 43.5199 25.8112 35.1759C24.7952 31.6426 26.8432 27.9439 30.3764 26.9253C33.9097 25.9146 37.6111 27.9599 38.6271 31.4906C40.0457 36.4213 49.6777 44.0453 53.3044 46.9146C53.8831 47.3706 53.9791 48.2106 53.5231 48.7866C53.0671 49.3653 52.2324 49.4639 51.6511 49.0053C44.7631 43.5546 37.5231 37.2959 36.0644 32.2266C35.4537 30.1066 33.2297 28.8826 31.1124 29.4879C28.9951 30.0986 27.7657 32.3199 28.3737 34.4373C30.5551 42.0213 38.9684 49.1706 46.6831 55.2773C47.2617 55.7333 47.3577 56.5733 46.9017 57.1493C46.6404 57.4853 46.2511 57.6586 45.8564 57.6586Z" fill="#FB8500"/>
<path d="M11.9608 50.9094C11.3928 50.9094 10.8648 50.544 10.6888 49.9734C10.4674 49.2694 10.8594 48.5227 11.5634 48.304C13.0541 47.8374 17.7474 45.728 15.5608 38.1254C14.2834 33.6747 14.8114 28.992 17.0541 24.944C19.2968 20.8907 22.9821 17.9547 27.4353 16.6747C36.406 14.12 45.902 19.2134 48.7287 28.056C49.3927 28.68 53.9447 32.44 57.0593 34.968C57.63 35.432 57.718 36.272 57.254 36.8427C56.7927 37.416 55.95 37.504 55.3793 37.0374C46.806 30.08 46.5207 29.5974 46.382 29.368C46.326 29.2747 46.2833 29.176 46.2513 29.0747C43.9393 21.4667 35.8247 17.056 28.1687 19.24C24.4034 20.32 21.2834 22.8054 19.3848 26.232C17.4888 29.6587 17.0408 33.6214 18.1208 37.3867C20.3928 45.2827 16.4354 49.5734 12.3554 50.848C12.2274 50.888 12.0941 50.9094 11.9608 50.9094Z" fill="#FB8500"/>
<path d="M16.2195 56C15.6515 56 15.1262 55.6347 14.9475 55.064C14.7262 54.3627 15.1182 53.6134 15.8222 53.3947C21.3475 51.6667 23.3582 48.8294 20.6649 36.5681C19.2062 29.9174 22.7475 23.5707 28.9021 21.8001C35.2568 19.9814 41.9235 23.6641 43.7501 30.0161C44.1208 31.3041 45.8141 33.7867 55.7101 41.6214C56.2888 42.0774 56.3848 42.9174 55.9288 43.4961C55.4728 44.0721 54.6381 44.176 54.0568 43.7147C43.1315 35.0694 41.7075 32.5707 41.1875 30.7574C39.7661 25.8187 34.5928 22.9494 29.6355 24.3681C24.8515 25.7441 22.1129 30.7441 23.2675 36.0001C26.0115 48.5014 24.3342 53.5334 16.6142 55.944C16.4862 55.9814 16.3502 56 16.2195 56Z" fill="#FB8500"/>
<path d="M49.5527 53.3333C49.2114 53.3333 48.8701 53.2026 48.6087 52.944C48.1207 52.456 47.0487 51.6426 45.8087 50.7013C41.0327 47.0773 33.0381 41.0133 30.9367 33.7013C30.7341 32.992 31.1421 32.256 31.8487 32.0506C32.5661 31.848 33.2941 32.256 33.4994 32.9626C35.3554 39.4213 42.9074 45.1493 47.4194 48.5733C48.7927 49.616 49.8781 50.44 50.4941 51.056C51.0141 51.576 51.0141 52.4213 50.4941 52.9413C50.2354 53.2026 49.8941 53.3333 49.5527 53.3333Z" fill="#FB8500"/>
<path d="M29.5527 64C29.5234 64 29.4967 64 29.4674 63.9974C28.734 63.952 28.174 63.32 28.2194 62.584C28.318 61.04 29.03 53.3334 33.5527 53.3334C36.878 53.3334 38.8807 56.0534 40.206 57.8534C40.5607 58.3334 40.87 58.7654 41.1607 59.0587C41.6807 59.5787 41.6807 60.424 41.1607 60.944C40.6407 61.464 39.7954 61.464 39.2754 60.944C38.9074 60.576 38.5047 60.0427 38.0567 59.4374C36.9314 57.904 35.5314 56 33.5527 56C32.1074 56 31.054 59.992 30.8834 62.7494C30.838 63.456 30.2514 64 29.5527 64Z" fill="#FB8500"/>
<path d="M21.5532 61.3333C20.9905 61.3333 20.4679 60.976 20.2839 60.4107C20.0572 59.7093 20.4412 58.96 21.1399 58.7307C24.5106 57.6347 26.7532 50.6373 25.6145 47.072C25.3905 46.3707 25.7772 45.6213 26.4785 45.3973C27.1798 45.1627 27.9291 45.56 28.1531 46.2613C29.5691 50.6907 27.0945 59.6027 21.9612 61.2693C21.8279 61.312 21.6892 61.3333 21.5532 61.3333Z" fill="#FB8500"/>
<path d="M10.8861 34.6666C10.1501 34.6666 9.55273 34.0693 9.55273 33.3333C9.55273 20.8346 19.7207 10.6666 32.2193 10.6666C44.5233 10.6666 48.926 17.7733 52.1393 22.9626C53.6566 25.408 54.966 27.5226 56.6327 28.064C57.334 28.2906 57.718 29.0426 57.4887 29.744C57.2646 30.4426 56.5153 30.832 55.8087 30.6C53.2113 29.7573 51.6647 27.2586 49.8727 24.3653C46.8273 19.4506 43.038 13.3333 32.2193 13.3333C21.1901 13.3333 12.2194 22.304 12.2194 33.3333C12.2194 34.0693 11.6221 34.6666 10.8861 34.6666Z" fill="#FB8500"/>
<path d="M12.2194 44C11.7287 44 11.2594 43.7307 11.0247 43.264C10.7794 42.7707 9.55273 40.2347 9.55273 38.6667C9.55273 37.9307 10.1501 37.3334 10.8861 37.3334C11.6221 37.3334 12.2194 37.9307 12.2194 38.6667C12.2194 39.3627 12.9314 41.1094 13.4114 42.0694C13.7421 42.728 13.4727 43.528 12.8141 43.8587C12.6247 43.9547 12.4221 44 12.2194 44Z" fill="#FB8500"/>
<path d="M50.8855 16C50.4349 16 49.9949 15.7734 49.7442 15.3574C48.4295 13.192 41.1362 8.00004 30.8855 8.00004C20.2243 8.00004 14.5176 13.448 13.3576 15.3574C12.9789 15.9894 12.1576 16.1867 11.5283 15.8054C10.8989 15.424 10.6963 14.6054 11.0803 13.976C12.5389 11.5707 18.9416 5.33337 30.8855 5.33337C42.1175 5.33337 50.1949 10.96 52.0242 13.976C52.4082 14.6054 52.2055 15.424 51.5762 15.808C51.3602 15.9387 51.1229 16 50.8855 16Z" fill="#FB8500"/>
<path d="M45.553 5.33333C45.409 5.33333 45.2623 5.30933 45.1183 5.26133C44.5797 5.07733 44.0677 4.88533 43.5583 4.69867C40.7503 3.65333 38.097 2.66667 30.8863 2.66667C24.4837 2.66667 23.0411 3.40533 21.0517 4.42667C20.5611 4.67733 20.0411 4.944 19.4304 5.216C18.7611 5.52 17.9691 5.216 17.6677 4.54667C17.3664 3.87467 17.6677 3.08533 18.3371 2.784C18.8997 2.53067 19.3771 2.28533 19.8304 2.05333C22.0704 0.906667 23.8384 0 30.8863 0C38.577 0 41.5823 1.11733 44.489 2.19733C44.9797 2.37867 45.4703 2.56267 45.9877 2.74133C46.6837 2.98133 47.0543 3.73867 46.8143 4.43467C46.6223 4.98667 46.105 5.33333 45.553 5.33333Z" fill="#FB8500"/>
<path d="M56.2194 23.9999C55.6541 23.9999 55.1314 23.6399 54.9501 23.0719C54.3394 21.1706 52.4381 18.0613 52.4168 18.0319C52.0301 17.4053 52.2274 16.5839 52.8541 16.1973C53.4808 15.8079 54.3021 16.0053 54.6888 16.6346C54.7741 16.7733 56.7821 20.0479 57.4888 22.2613C57.7128 22.9626 57.3261 23.7119 56.6248 23.9359C56.4888 23.9786 56.3528 23.9999 56.2194 23.9999Z" fill="#FB8500"/>
</svg>
