<svg width="48" height="33" viewBox="0 0 48 33" fill="none" xmlns="http://www.w3.org/2000/svg">
<g clip-path="url(#clip0_261_655)">
<path d="M13.891 0.920733C15.1877 0.896707 16.4826 1.02937 17.7474 1.31584C18.8122 1.54785 19.8233 1.97958 20.7267 2.58809C21.5611 3.19317 22.2213 4.00666 22.641 4.94688C23.1234 6.10303 23.3561 7.34769 23.324 8.59964C23.3787 9.97431 23.0269 11.3347 22.3124 12.5112C21.5606 13.6224 20.5216 14.5098 19.3053 15.0794C20.9558 15.5235 22.3934 16.5406 23.3596 17.9479C24.2871 19.439 24.7533 21.17 24.6998 22.9243C24.7304 24.3229 24.4406 25.7101 23.8525 26.98C23.3089 28.0879 22.513 29.0533 21.5284 29.7991C20.5148 30.5367 19.3741 31.0824 18.1631 31.4092C16.9072 31.7559 15.6098 31.93 14.3068 31.9268H0V0.920733H13.891ZM13.0655 13.4614C14.0844 13.5033 15.0873 13.199 15.9103 12.5981C16.3044 12.248 16.611 11.8107 16.8055 11.3212C17.0001 10.8317 17.0772 10.3036 17.0307 9.77904C17.0571 9.16639 16.9349 8.55645 16.6744 8.00106C16.4534 7.55885 16.1099 7.18927 15.6846 6.93624C15.2538 6.65772 14.7698 6.47139 14.2632 6.38902C13.7135 6.28276 13.1542 6.23442 12.5944 6.2448H6.4813V13.4891H13.0655V13.4614ZM13.4219 26.662C14.038 26.6703 14.6529 26.604 15.253 26.4644C15.8014 26.3435 16.3216 26.1189 16.7853 25.8026C17.2395 25.4865 17.6065 25.0612 17.8523 24.5659C18.1373 23.9345 18.2682 23.2446 18.2343 22.5529C18.2961 21.9225 18.2125 21.2864 17.9898 20.6933C17.7671 20.1002 17.4112 19.5658 16.9496 19.1312C15.971 18.412 14.7719 18.0557 13.5585 18.1237H6.4813V26.662H13.4219Z" fill="#4463E2"/>
<path d="M33.9305 26.5473C34.4392 27.0178 35.0385 27.3802 35.6919 27.6125C36.3453 27.8448 37.0392 27.9421 37.7314 27.8985C38.8288 27.9262 39.9049 27.593 40.7939 26.9503C41.5171 26.481 42.0648 25.7865 42.3519 24.9748H47.5207C46.9699 27.2858 45.625 29.3311 43.7198 30.7552C41.892 31.9658 39.732 32.5789 37.5394 32.5094C35.9745 32.5299 34.4214 32.2363 32.9724 31.6461C31.6616 31.1006 30.4861 30.2761 29.5278 29.2301C28.5732 28.134 27.8398 26.8641 27.3681 25.4904C26.8385 23.9548 26.5793 22.3393 26.602 20.7155C26.5923 19.1189 26.8602 17.5328 27.3938 16.0275C28.1107 13.91 29.4813 12.0735 31.309 10.7816C33.1367 9.48968 35.3275 8.80878 37.5671 8.8366C39.2206 8.80211 40.8556 9.18827 42.3182 9.9587C43.6403 10.6821 44.7807 11.6953 45.6539 12.922C46.547 14.2092 47.1872 15.6538 47.5405 17.1793C47.9278 18.8173 48.066 20.5042 47.9503 22.1833H32.5547C32.4299 23.7609 32.9231 25.3252 33.9305 26.5473ZM40.685 14.7553C40.2542 14.3253 39.736 13.9924 39.1654 13.779C38.5948 13.5657 37.985 13.4769 37.3771 13.5186C36.5706 13.4879 35.7699 13.6662 35.053 14.0362C34.4847 14.3484 33.983 14.7685 33.5762 15.2729C33.2157 15.7458 32.9471 16.2818 32.7843 16.8533C32.6377 17.33 32.546 17.8218 32.5111 18.3192H42.047C41.9639 17.0225 41.4906 15.7811 40.689 14.7573L40.685 14.7553Z" fill="#4463E2"/>
<path d="M43.2313 2.99121H31.2822V6.03946H43.2313V2.99121Z" fill="#4463E2"/>
</g>
<defs>
<clipPath id="clip0_261_655">
<rect width="48" height="31.5789" fill="white" transform="translate(0 0.920898)"/>
</clipPath>
</defs>
</svg>
