<svg width="71" height="80" viewBox="0 0 71 80" fill="none" xmlns="http://www.w3.org/2000/svg">
<g filter="url(#filter0_d_153_1524)">
<path d="M23.0929 42.4989C23.0929 42.4989 28.1313 39.0373 27.4544 31.8227C26.6064 22.7826 13.3667 12.7163 13.3667 12.7163C13.3667 12.7163 23.8952 11.3518 33.6493 20.6027C44.5825 30.9719 50.5019 42.5213 45.1599 55.8735L23.0929 42.4989Z" fill="#FB8500"/>
<path d="M24.5836 41.6501C24.5836 41.6501 29.8556 38.6196 32.8165 33.5186C37.4828 25.4796 24.2138 4.82765 24.2138 4.82765C24.2138 4.82765 32.5967 4.44812 42.9329 15.5217C53.3355 26.6669 57.4586 43.9406 47.8664 57.7432L24.5836 41.6501Z" fill="#FB6400"/>
<path d="M42.6008 58.0883C42.6008 58.0883 45.827 64.5456 62.4752 67.7399C62.4752 67.7399 58.7723 60.2617 56.0712 57.6936C56.0712 57.6936 51.1024 60.3374 41.1846 55.0071L42.6008 58.0883Z" fill="#FB8500"/>
<path d="M47.8665 57.743C44.1237 60.5769 32.1637 59.8431 26.0715 55.6354C19.9801 51.4278 22.11 48.1048 25.8063 42.5059L47.8665 57.743Z" fill="#FFB703"/>
<path d="M26.3414 48.6392C24.8745 50.7311 22.4985 50.8972 19.1304 49.0185C16.0464 47.299 14.8607 43.1585 17.1364 41.1179C18.8677 39.5656 22.6308 37.9234 25.5724 40.4422C28.5139 42.9618 27.4873 47.006 26.3414 48.6392Z" fill="#FB8500"/>
<path d="M16.8756 41.4689L8.40217 42.0492L17.73 47.9505C17.73 47.9505 19.165 44.9985 16.8756 41.4689Z" fill="#FFB703"/>
<path d="M21.3914 43.7157C21.1808 43.8986 20.864 43.8732 20.6853 43.657C20.5057 43.4414 20.5314 43.1176 20.7428 42.9348C20.9535 42.7511 21.2701 42.7774 21.4488 42.9936C21.6284 43.2091 21.6027 43.5329 21.3914 43.7157Z" fill="white"/>
</g>
<defs>
<filter id="filter0_d_153_1524" x="0.402344" y="0.82608" width="70.0732" height="78.9138" filterUnits="userSpaceOnUse" color-interpolation-filters="sRGB">
<feFlood flood-opacity="0" result="BackgroundImageFix"/>
<feColorMatrix in="SourceAlpha" type="matrix" values="0 0 0 0 0 0 0 0 0 0 0 0 0 0 0 0 0 0 127 0" result="hardAlpha"/>
<feOffset dy="4"/>
<feGaussianBlur stdDeviation="4"/>
<feComposite in2="hardAlpha" operator="out"/>
<feColorMatrix type="matrix" values="0 0 0 0 0 0 0 0 0 0 0 0 0 0 0 0 0 0 0.25 0"/>
<feBlend mode="normal" in2="BackgroundImageFix" result="effect1_dropShadow_153_1524"/>
<feBlend mode="normal" in="SourceGraphic" in2="effect1_dropShadow_153_1524" result="shape"/>
</filter>
</defs>
</svg>
