<svg width="101" height="91" viewBox="0 0 101 91" fill="none" xmlns="http://www.w3.org/2000/svg">
<path d="M58.3818 66.581C58.3818 66.581 79.1567 70.5603 84.3145 68.7388L74.0605 77.0905C74.0605 77.0905 63.016 71.0848 56.6789 69.0966L58.3818 66.581Z" fill="#1A7185"/>
<path d="M58.3822 66.5811C55.8938 72.8218 44.8725 74.2897 33.764 69.8613C22.6559 65.432 15.6674 56.7828 18.1553 50.5429L58.3822 66.5811Z" fill="#2BC3E7"/>
<path d="M24.109 52.9152L7.22964 46.185C7.22964 46.185 10.6198 58.1959 25.367 56.8033L24.109 52.9152Z" fill="#2BC3E7"/>
<path d="M17.21 51.3446C17.1016 51.6173 16.792 51.7502 16.5192 51.6417C16.2465 51.5332 16.1136 51.2236 16.2221 50.9509C16.3306 50.6781 16.6402 50.5452 16.9129 50.6537C17.1857 50.7622 17.3185 51.0718 17.21 51.3446Z" fill="white"/>
<path d="M10.6201 47.5368L3.95912 44.881C3.95912 44.881 5.48059 47.8903 9.27746 50.1964C9.27746 50.1964 11.8251 49.4233 10.6201 47.5368Z" fill="#FAE164"/>
<path d="M22.4917 52.271C22.4917 52.271 24.165 39.6831 33.7086 33.5594C43.2521 27.4358 50.0617 16.8546 50.0617 16.8546C50.0617 16.8546 56.7668 27.5059 57.063 41.099C57.3597 54.6911 57.2783 66.1414 57.2783 66.1414L22.4917 52.271Z" fill="#1A7185"/>
<path d="M22.4917 52.271C22.4917 52.271 33.4491 42.7591 51.4688 40.0151C69.4885 37.271 90.8242 33.107 90.8242 33.107C90.8242 33.107 90.7178 41.043 79.5105 50.0479C68.3029 59.0536 58.419 66.5946 58.419 66.5946L22.4917 52.271Z" fill="#219EBC"/>
</svg>
