<svg width="121" height="131" viewBox="0 0 121 131" fill="none" xmlns="http://www.w3.org/2000/svg">
<path d="M44.657 74.2535L54.4172 86.0074C55.1106 86.8426 54.7519 88.0906 53.7265 88.409L36.3633 93.8021C36.3633 93.8021 39.3464 78.1909 39.6171 78.3639C39.8879 78.5368 44.657 74.2535 44.657 74.2535Z" fill="#1E8AA4"/>
<path d="M1.35436 90.087C9.33114 84.4174 35.4378 66.3464 45.3233 59.5096C46.6284 58.6068 48.3907 59.8367 47.9934 61.3709L44.656 74.2547L54.3854 85.9716C54.7766 86.4427 54.8401 87.0421 54.6426 87.5393C54.4821 87.9428 44.174 82.1051 44.174 82.1051C44.174 82.1051 45.5168 98.748 46.1364 106.631C46.2889 108.574 44.3498 109.969 42.5167 109.235C33.1543 105.485 9.74435 96.1084 1.74101 92.9028C0.537257 92.4206 0.31757 90.8241 1.35436 90.087Z" fill="#219EBC"/>
<path d="M54.6421 87.5383C54.4817 87.9418 44.1738 82.1038 44.1738 82.1038L14.7138 89.2188C14.5147 89.2668 14.408 88.9893 14.5913 88.8998L44.6561 74.2536L54.3855 85.9705C54.7765 86.4419 54.84 87.0413 54.6421 87.5383Z" fill="#186C80"/>
<path d="M119.409 39.059C111.289 51.684 93.2509 63.8396 77.0846 58.2658C70.5607 56.0166 65.2762 50.9359 63.9482 43.9189C62.2701 35.0513 70.9183 32.0162 77.241 38.161C87.6278 48.2556 87.362 68.1877 80.5559 79.1188C76.6223 85.4366 69.7878 89.3558 62.0619 87.5952" stroke="#219EBC" stroke-width="2.25006" stroke-miterlimit="10" stroke-dasharray="6 6"/>
</svg>
