<svg width="65" height="64" viewBox="0 0 65 64" fill="none" xmlns="http://www.w3.org/2000/svg">
<path d="M27.1451 14.9099C25.5301 14.0071 23.7531 13.4314 21.9155 13.2158C20.0779 13.0002 18.2159 13.1489 16.4358 13.6533C16.2346 13.7143 16.0475 13.8142 15.8849 13.9475C15.7224 14.0808 15.5877 14.2447 15.4886 14.4301C15.3894 14.6154 15.3278 14.8184 15.3071 15.0276C15.2864 15.2367 15.3071 15.4479 15.3681 15.6491C15.4911 16.0553 15.7705 16.396 16.1448 16.5963C16.3301 16.6954 16.5331 16.7571 16.7423 16.7778C16.9515 16.7984 17.1626 16.7777 17.3638 16.7168C20.1062 15.9554 23.0378 16.3009 25.5281 17.6789C25.7093 17.7853 25.9097 17.855 26.1178 17.8838C26.3259 17.9127 26.5377 17.9002 26.741 17.8471C26.9444 17.794 27.1352 17.7013 27.3026 17.5743C27.4701 17.4474 27.6108 17.2886 27.7169 17.1072C27.824 16.9255 27.8943 16.7244 27.9235 16.5155C27.9528 16.3066 27.9405 16.0939 27.8874 15.8898C27.8343 15.6856 27.7414 15.4939 27.614 15.3258C27.4866 15.1576 27.3273 15.0163 27.1451 14.9099Z" fill="#FB8500"/>
<path d="M38.6652 17.8923C38.9483 17.8945 39.2267 17.8209 39.4716 17.6789C41.965 16.299 44.8998 15.9513 47.6466 16.7104C48.0413 16.7985 48.4548 16.7339 48.8038 16.5295C49.1528 16.3251 49.4114 15.9961 49.5276 15.6087C49.6439 15.2213 49.6091 14.8043 49.4303 14.4415C49.2515 14.0787 48.9419 13.7971 48.5639 13.6533C44.9678 12.6384 41.1159 13.0926 37.8546 14.9163C37.5499 15.0937 37.3122 15.3666 37.1784 15.6928C37.0446 16.019 37.0222 16.3802 37.1145 16.7205C37.2069 17.0608 37.4089 17.361 37.6893 17.5748C37.9696 17.7886 38.3127 17.9039 38.6652 17.9029V17.8923Z" fill="#FB8500"/>
<path d="M38.6653 31.1061C38.9482 31.1075 39.2264 31.0339 39.4717 30.8928C41.9623 29.516 44.8931 29.1698 47.6359 29.9285C47.8387 29.9958 48.0529 30.0219 48.2659 30.0051C48.4789 29.9883 48.6863 29.929 48.876 29.8307C49.0658 29.7325 49.2339 29.5972 49.3704 29.4329C49.507 29.2686 49.6093 29.0787 49.6713 28.8742C49.7333 28.6697 49.7537 28.4549 49.7313 28.2425C49.7089 28.03 49.6442 27.8241 49.541 27.6371C49.4378 27.45 49.2982 27.2855 49.1304 27.1533C48.9626 27.0211 48.77 26.9238 48.5639 26.8672C46.7836 26.3628 44.9211 26.2147 43.0834 26.4314C41.2457 26.6481 39.4688 27.2254 37.8546 28.1301C37.5482 28.3064 37.3089 28.5793 37.1739 28.9059C37.039 29.2326 37.016 29.5948 37.1086 29.936C37.2012 30.2771 37.4041 30.578 37.6858 30.7916C37.9674 31.0052 38.3118 31.1196 38.6653 31.1168V31.1061Z" fill="#FB8500"/>
<path d="M38.6653 44.32C38.9482 44.3214 39.2264 44.2478 39.4717 44.1067C41.9618 42.7282 44.8936 42.3827 47.6359 43.1446C47.8371 43.2055 48.0483 43.2262 48.2574 43.2055C48.4666 43.1849 48.6696 43.1232 48.8549 43.024C49.0403 42.9249 49.2042 42.7902 49.3375 42.6277C49.4708 42.4652 49.5707 42.278 49.6317 42.0768C49.6926 41.8757 49.7133 41.6645 49.6926 41.4554C49.672 41.2462 49.6103 41.0432 49.5111 40.8578C49.412 40.6725 49.2773 40.5085 49.1148 40.3753C48.9523 40.242 48.7651 40.142 48.5639 40.0811C46.7834 39.5776 44.9212 39.43 43.0836 39.6467C41.246 39.8634 39.4691 40.4402 37.8546 41.344C37.5482 41.5204 37.3089 41.7932 37.1739 42.1199C37.039 42.4466 37.016 42.8088 37.1086 43.1499C37.2012 43.491 37.4041 43.7919 37.6858 44.0055C37.9674 44.2191 38.3118 44.3335 38.6653 44.3307V44.32Z" fill="#FB8500"/>
<path d="M27.1455 28.1259C25.5312 27.2214 23.7543 26.6442 21.9166 26.4275C20.0789 26.2108 18.2166 26.3588 16.4361 26.863C16.0403 26.9944 15.7115 27.2752 15.5196 27.6455C15.3278 28.0159 15.2881 28.4465 15.4091 28.8456C15.5301 29.2447 15.8022 29.5809 16.1674 29.7823C16.5326 29.9838 16.962 30.0348 17.3641 29.9243C20.1069 29.1656 23.0378 29.5118 25.5284 30.8886C25.8948 31.103 26.3313 31.1631 26.742 31.0557C27.1527 30.9483 27.5038 30.6821 27.7183 30.3158C27.9327 29.9494 27.9928 29.5129 27.8854 29.1022C27.778 28.6915 27.5118 28.3403 27.1455 28.1259Z" fill="#FB8500"/>
<path d="M27.1451 41.3398C25.5306 40.4359 23.7537 39.8591 21.9162 39.6424C20.0786 39.4257 18.2163 39.5733 16.4358 40.0768C16.2346 40.1378 16.0475 40.2377 15.8849 40.371C15.7224 40.5043 15.5877 40.6682 15.4886 40.8536C15.2884 41.2278 15.245 41.6663 15.3681 42.0726C15.4911 42.4788 15.7705 42.8195 16.1448 43.0198C16.5191 43.22 16.9575 43.2634 17.3638 43.1403C20.1061 42.3787 23.0379 42.7242 25.5281 44.1024C25.8944 44.3169 26.3309 44.377 26.7416 44.2696C27.1523 44.1622 27.5035 43.896 27.7179 43.5296C27.9324 43.1633 27.9925 42.7268 27.8851 42.3161C27.7776 41.9054 27.5115 41.5542 27.1451 41.3398Z" fill="#FB8500"/>
<path d="M57.4343 8.98348H55.9409V8.47788C55.9426 7.92194 55.8241 7.3722 55.5936 6.86629C55.3632 6.36037 55.0261 5.91024 54.6055 5.54668C53.4728 4.57494 52.0052 4.08423 50.5159 4.17921C45.8055 4.31574 36.2673 4.98134 32.4999 8.00428C28.7324 4.98561 19.1943 4.32001 14.4839 4.18348C12.995 4.08641 11.5272 4.57567 10.3943 5.54668C9.97228 5.90877 9.63352 6.35778 9.40118 6.86296C9.16884 7.36814 9.04841 7.91756 9.04814 8.47361V8.97921H7.53987C5.81093 8.98542 4.15502 9.67704 2.93527 10.9024C1.71552 12.1277 1.0315 13.7868 1.03321 15.5157V52.7189C1.03546 54.604 1.78532 56.4113 3.11829 57.7443C4.45126 59.0772 6.2585 59.8271 8.14361 59.8293H32.4636H32.5105H32.5575H56.8348C58.7227 59.8299 60.5338 59.0817 61.8708 57.7487C63.2078 56.4157 63.9615 54.6069 63.9665 52.7189V15.5157C63.9643 13.784 63.2753 12.1238 62.0508 10.8992C60.8262 9.67468 59.166 8.98574 57.4343 8.98348ZM50.6631 7.38134H50.7889C50.8351 7.37796 50.8815 7.37796 50.9276 7.38134C51.4893 7.39709 52.0303 7.59641 52.4679 7.94881C52.5549 8.01103 52.6259 8.09294 52.6752 8.18785C52.7245 8.28276 52.7507 8.38799 52.7516 8.49494L52.6769 49.5211C46.1553 50.1461 38.6225 51.2768 34.0999 54.3787V10.8949C34.0999 9.52748 41.7436 7.63521 50.6631 7.38134ZM12.2481 8.47788C12.249 8.37092 12.2752 8.2657 12.3245 8.17078C12.3738 8.07587 12.4449 7.99396 12.5319 7.93174C12.9695 7.57935 13.5105 7.38002 14.0721 7.36428C14.1183 7.3609 14.1646 7.3609 14.2108 7.36428H14.3367C23.0684 7.61388 30.55 9.42934 30.87 10.7904C30.8769 10.8401 30.8869 10.8892 30.8999 10.9376V54.3616C26.3729 51.2555 18.8273 50.1099 12.2481 49.4101V8.47788ZM4.23321 52.7189V15.5157C4.2315 14.6359 4.57852 13.7912 5.19827 13.1666C5.81803 12.5421 6.66002 12.1886 7.53987 12.1835H9.03321V49.4101C9.02738 50.2326 9.33145 51.0271 9.88489 51.6354C10.4383 52.2438 11.2006 52.6215 12.0199 52.6933C15.254 53.0048 23.7937 53.8304 28.4977 56.6357H8.14361C7.10574 56.6346 6.1108 56.2214 5.37752 55.4869C4.64424 54.7524 4.23264 53.7568 4.23321 52.7189ZM60.7665 52.7189C60.7626 53.7585 60.3464 54.7541 59.6093 55.4872C58.8722 56.2203 57.8744 56.6311 56.8348 56.6293H36.5063C41.1996 53.824 49.75 53.0027 52.9841 52.687C53.7989 52.6107 54.5555 52.2319 55.1048 51.6254C55.6541 51.0188 55.9562 50.2285 55.9516 49.4101V12.1835H57.4449C58.3265 12.1874 59.1707 12.5401 59.7931 13.1645C60.4155 13.7889 60.7654 14.6342 60.7665 15.5157V52.7189Z" fill="#FB8500"/>
</svg>
