<svg width="61" height="50" viewBox="0 0 61 50" fill="none" xmlns="http://www.w3.org/2000/svg">
<path d="M0.0580301 11.5812L1.63751 2.41256C1.70132 2.04204 1.96809 1.77383 2.28187 1.76343L37.9142 0.643782C38.1305 0.636846 38.3364 0.755347 38.4683 0.962282L60.4423 35.4688C60.7835 36.0047 60.4663 36.7792 59.9059 36.7792H59.0212C58.6781 36.7792 58.3898 37.0885 58.3495 37.4989L57.8323 42.7965C57.803 43.0953 57.9129 43.389 58.1182 43.5606C58.6422 43.9988 58.4176 44.9866 57.7814 45.0427L20.7112 48.2843C20.4694 48.3057 20.2362 48.1687 20.1009 47.9265L0.15879 12.2015C0.0575535 12.0194 0.0210861 11.7957 0.0580301 11.5812Z" fill="#219EBC"/>
<path d="M1.74788 1.78076H1.74644L0 11.9171L19.172 46.2629L19.8514 47.4797L21.9923 36.9434C22.0513 36.6526 22.0062 36.348 21.8665 36.1006C20.337 33.3914 11.0055 16.9257 1.74788 1.78076Z" fill="#1C869F"/>
<path d="M23.5431 45.8092C23.4817 46.1566 23.7149 46.4774 24.009 46.4508L57.9658 43.3774C57.8636 43.2127 57.8118 43.0069 57.8324 42.7959L58.3429 37.5659L24.8668 40.1659C24.6692 40.1815 24.5036 40.3532 24.4629 40.5873L23.5431 45.8092Z" fill="#D8C3A4"/>
<path d="M24.3574 41.1855L24.5412 40.0908C24.6016 39.7301 24.8555 39.4636 25.1606 39.4405L58.6487 36.918L58.3435 37.5671L24.7945 40.1804C24.6616 40.1908 24.5489 40.3029 24.5158 40.4578L24.3574 41.1855Z" fill="#BA9E7B"/>
<path d="M27.6628 41.1804L31.8831 40.8457C31.9358 40.8416 31.979 40.8965 31.9723 40.9601L31.4537 45.7508C31.4517 45.7687 31.4537 45.7872 31.4594 45.8034L31.979 47.2797C31.9833 47.2924 31.9857 47.3057 31.9857 47.319V48.8097C31.9857 48.8832 31.9234 48.9323 31.8677 48.9028L29.9855 47.9017C29.962 47.8895 29.9356 47.8901 29.9126 47.9046L27.8802 49.1733C27.8235 49.2086 27.7564 49.1583 27.7573 49.0814L27.7756 47.6942C27.776 47.6762 27.7722 47.6589 27.765 47.6433L27.1034 46.2011C27.0947 46.1826 27.0914 46.1606 27.0933 46.1398L27.5856 41.2694C27.5894 41.2208 27.6225 41.1832 27.6628 41.1804Z" fill="#E25744"/>
<path d="M31.4537 45.7502L31.9724 40.9595C31.9791 40.8959 31.9364 40.841 31.8832 40.8451L27.6629 41.1797C27.6226 41.1832 27.5895 41.2202 27.5847 41.2688L27.0924 46.1392C27.0915 46.1502 27.0958 46.16 27.0977 46.171L31.4561 45.7768C31.4557 45.7681 31.4528 45.7595 31.4537 45.7502Z" fill="#BF493A"/>
<path d="M27.7698 47.667C27.7717 47.6757 27.7756 47.6844 27.7751 47.6936L27.7568 49.0809C27.7559 49.1578 27.8231 49.2081 27.8797 49.1728L29.9121 47.904C29.9346 47.8896 29.9615 47.889 29.985 47.9011L31.8672 48.9023C31.9229 48.9318 31.9853 48.8826 31.9853 48.8092V47.3191C31.9853 47.3121 31.9829 47.3058 31.9819 47.2988L27.7698 47.667Z" fill="#BF493A"/>
</svg>
