<svg width="36" height="36" viewBox="0 0 36 36" fill="none" xmlns="http://www.w3.org/2000/svg">
<g clip-path="url(#clip0_117_2169)">
<path d="M20.9997 36C20.6019 36 20.2204 35.8419 19.9391 35.5606C19.6578 35.2793 19.4997 34.8978 19.4997 34.5V27C19.4997 26.6022 19.6578 26.2206 19.9391 25.9393C20.2204 25.658 20.6019 25.5 20.9997 25.5C21.3976 25.5 21.7791 25.658 22.0604 25.9393C22.3417 26.2206 22.4997 26.6022 22.4997 27V34.5C22.4997 34.8978 22.3417 35.2793 22.0604 35.5606C21.7791 35.8419 21.3976 36 20.9997 36ZM8.99973 36C8.60191 36 8.22038 35.8419 7.93907 35.5606C7.65777 35.2793 7.49973 34.8978 7.49973 34.5V27C7.49973 26.6022 7.65777 26.2206 7.93907 25.9393C8.22038 25.658 8.60191 25.5 8.99973 25.5C9.39756 25.5 9.77909 25.658 10.0604 25.9393C10.3417 26.2206 10.4997 26.6022 10.4997 27V34.5C10.4997 34.8978 10.3417 35.2793 10.0604 35.5606C9.77909 35.8419 9.39756 36 8.99973 36ZM26.9997 33C26.6019 33 26.2204 32.8419 25.9391 32.5606C25.6578 32.2793 25.4997 31.8978 25.4997 31.5V24C25.4997 23.6022 25.6578 23.2206 25.9391 22.9393C26.2204 22.658 26.6019 22.5 26.9997 22.5C27.3976 22.5 27.7791 22.658 28.0604 22.9393C28.3417 23.2206 28.4997 23.6022 28.4997 24V31.5C28.4997 31.8978 28.3417 32.2793 28.0604 32.5606C27.7791 32.8419 27.3976 33 26.9997 33ZM14.9997 33C14.6019 33 14.2204 32.8419 13.9391 32.5606C13.6578 32.2793 13.4997 31.8978 13.4997 31.5V24C13.4997 23.6022 13.6578 23.2206 13.9391 22.9393C14.2204 22.658 14.6019 22.5 14.9997 22.5C15.3976 22.5 15.7791 22.658 16.0604 22.9393C16.3417 23.2206 16.4997 23.6022 16.4997 24V31.5C16.4997 31.8978 16.3417 32.2793 16.0604 32.5606C15.7791 32.8419 15.3976 33 14.9997 33ZM2.99973 27.492C2.77628 27.4919 2.55567 27.4419 2.35402 27.3456C2.15237 27.2493 1.97479 27.1092 1.83423 26.9355C0.521797 25.2938 -0.118779 23.2153 0.0418674 21.1197C0.202514 19.024 1.15241 17.0674 2.69973 15.645C2.89275 15.4818 3.04139 15.2725 3.13187 15.0364C3.22234 14.8004 3.2517 14.5454 3.21723 14.295C2.94269 12.865 2.92592 11.3974 3.16773 9.96148C3.57071 7.54872 4.70641 5.3184 6.42062 3.57332C8.13484 1.82824 10.3445 0.652945 12.7497 0.206982C15.3616 -0.278694 18.0607 0.110319 20.4291 1.31378C22.7976 2.51724 24.7031 4.46801 25.8507 6.86398C25.9566 7.08379 26.1126 7.27566 26.3062 7.42416C26.4998 7.57267 26.7255 7.67365 26.9652 7.71898C28.7435 8.09337 30.4056 8.8902 31.811 10.0422C33.2165 11.1941 34.3242 12.6674 35.0404 14.3376C35.7566 16.0077 36.0604 17.8257 35.9261 19.638C35.7918 21.4503 35.2233 23.2036 34.2687 24.75C34.0563 25.0865 33.7189 25.3249 33.3307 25.4127C32.9425 25.5005 32.5353 25.4304 32.1987 25.218C31.8622 25.0055 31.6238 24.6681 31.536 24.2799C31.4483 23.8917 31.5183 23.4845 31.7307 23.148C32.4302 22.014 32.8467 20.7283 32.9448 19.3996C33.043 18.0708 32.8201 16.7379 32.2948 15.5134C31.7696 14.2889 30.9575 13.2088 29.927 12.3641C28.8965 11.5195 27.678 10.9352 26.3742 10.6605C25.6752 10.5272 25.0175 10.2306 24.4549 9.7947C23.8924 9.35883 23.4409 8.79612 23.1372 8.15248C22.3217 6.42211 20.976 4.9966 19.2954 4.0828C17.6149 3.169 15.6868 2.81444 13.7911 3.07057C11.8954 3.3267 10.1306 4.18019 8.75282 5.5072C7.37501 6.83422 6.45586 8.56572 6.12873 10.4505C5.94544 11.5339 5.95764 12.6414 6.16473 13.7205C6.2976 14.4773 6.23446 15.2555 5.98134 15.981C5.72822 16.7065 5.29355 17.3551 4.71873 17.865C3.73289 18.7694 3.12733 20.0144 3.02458 21.3483C2.92182 22.6822 3.32953 24.0053 4.16523 25.05C4.34292 25.2702 4.4547 25.5361 4.48769 25.8171C4.52067 26.0981 4.4735 26.3827 4.35163 26.6381C4.22977 26.8934 4.03816 27.1091 3.79895 27.2602C3.55974 27.4113 3.28267 27.4916 2.99973 27.492Z" fill="#219EBC"/>
</g>
<defs>
<clipPath id="clip0_117_2169">
<rect width="36" height="36" fill="white"/>
</clipPath>
</defs>
</svg>
