<svg width="36" height="36" viewBox="0 0 36 36" fill="none" xmlns="http://www.w3.org/2000/svg">
<path d="M13.9998 31.0369H21.9998C28.6665 31.0369 31.3332 28.3702 31.3332 21.7036V13.7036C31.3332 7.03691 28.6665 4.37024 21.9998 4.37024H13.9998C7.33317 4.37024 4.6665 7.03691 4.6665 13.7036V21.7036C4.6665 28.3702 7.33317 31.0369 13.9998 31.0369Z" stroke="#FB8500" stroke-width="2.2" stroke-linecap="round" stroke-linejoin="round"/>
<path d="M14.0002 15.0369C15.4729 15.0369 16.6668 13.843 16.6668 12.3703C16.6668 10.8975 15.4729 9.70361 14.0002 9.70361C12.5274 9.70361 11.3335 10.8975 11.3335 12.3703C11.3335 13.843 12.5274 15.0369 14.0002 15.0369Z" stroke="#FB8500" stroke-width="2.2" stroke-linecap="round" stroke-linejoin="round"/>
<path d="M5.56006 26.9702L12.1334 22.5569C13.1867 21.8502 14.7067 21.9302 15.6534 22.7435L16.0934 23.1302C17.1334 24.0235 18.8134 24.0235 19.8534 23.1302L25.4001 18.3702C26.4401 17.4769 28.1201 17.4769 29.1601 18.3702L31.3334 20.2369" stroke="#FB8500" stroke-width="2.2" stroke-linecap="round" stroke-linejoin="round"/>
</svg>
