<svg width="65" height="64" viewBox="0 0 65 64" fill="none" xmlns="http://www.w3.org/2000/svg">
<path fill-rule="evenodd" clip-rule="evenodd" d="M30.9414 7.01281C31.2447 6.62598 31.709 6.40002 32.2006 6.40002C46.1806 6.40002 57.5433 17.6059 57.7962 31.5256C57.8009 31.5887 57.8018 31.652 57.799 31.7151C57.8001 31.8099 57.8005 31.905 57.8005 32C57.8005 46.1386 46.3391 57.6 32.2006 57.6C18.062 57.6 6.60054 46.1386 6.60054 32C6.60054 29.8885 6.85641 27.8363 7.33876 25.873C6.0071 23.2274 5.50006 20.7061 5.74513 18.3712C6.00583 15.8874 7.1042 13.7475 8.72681 12.0098C11.9294 8.58017 17.1799 6.68529 22.5158 6.4023C22.985 6.3774 23.4414 6.56006 23.7639 6.90177C24.0865 7.24348 24.2426 7.7097 24.1906 8.17674C23.3654 15.6051 21.0714 20.5792 18.153 23.6098C15.7217 26.1347 12.8864 27.2672 10.2949 27.2967C9.97097 28.8131 9.80054 30.3864 9.80054 32C9.80054 44.3712 19.8294 54.4 32.2006 54.4C44.4956 54.4 54.4772 44.4941 54.5994 32.2279L49.8004 26.5402L48.7612 28.2197C48.4372 28.7434 47.8414 29.0346 47.2292 28.9687L45.2532 28.7557L47.0478 30.4959C47.6081 31.0392 47.6946 31.9077 47.2524 32.5509L44.5294 36.5117L43.8502 41.1221C43.7988 41.4706 43.6338 41.7923 43.381 42.0376L36.0478 49.1487C35.5649 49.6168 34.841 49.7331 34.2359 49.4397L31.3025 48.0175C30.8726 47.809 30.5583 47.4194 30.4457 46.9551L27.7308 35.7664L21.287 33.8919C20.686 33.7171 20.2422 33.2079 20.151 32.5888L19.4177 27.6111C19.3561 27.1935 19.462 26.7687 19.7122 26.4288L23.379 21.4511C23.602 21.1482 23.9247 20.9336 24.2903 20.845L30.1569 19.4229C30.5582 19.3256 30.9817 19.3872 31.3385 19.5949L34.5279 21.4506L36.8764 21.1251L36.0268 19.4776L29.3537 17.5363C28.7761 17.3683 28.3415 16.8906 28.2289 16.2995C28.1162 15.7087 28.3446 15.1045 28.8198 14.7358L31.6655 12.5283L30.6468 8.38177C30.5295 7.90441 30.6382 7.39964 30.9414 7.01281ZM53.9062 26.444C51.5993 17.405 43.7948 10.5644 34.2642 9.69382L35.021 12.7738C35.1718 13.3875 34.9473 14.0324 34.4479 14.4198L33.2612 15.3404L37.5809 16.597C38.0023 16.7197 38.3548 17.0099 38.5559 17.4L40.7559 21.6667C40.9938 22.128 40.9932 22.676 40.7542 23.1368C40.5151 23.5975 40.0676 23.9136 39.5534 23.9848L34.4201 24.696C34.0657 24.7451 33.7052 24.6739 33.3959 24.4941L30.2855 22.6843L25.6102 23.8178L22.6794 27.7963L23.1671 31.1061L29.5142 32.9527C30.0644 33.1127 30.487 33.5547 30.6222 34.1117L33.3775 45.4672L34.6241 46.0717L40.7634 40.1184L41.4177 35.6779C41.4532 35.4363 41.5438 35.2059 41.6822 35.0047L43.8495 31.852L39.6866 27.8154C39.1964 27.3399 39.062 26.6055 39.3521 25.9871C39.6422 25.3687 40.2929 25.0027 40.9719 25.0759L46.5702 25.6791L48.2399 22.9803C48.5097 22.5445 48.9719 22.2642 49.4833 22.2266C49.9945 22.189 50.4929 22.3986 50.8234 22.7904L53.9062 26.444ZM11.2707 24.0007C12.7194 23.7464 14.3313 22.9651 15.848 21.3903C17.9074 19.2514 19.8241 15.6 20.7473 9.7817C16.7254 10.3352 13.1913 11.9174 11.0657 14.1938C9.85634 15.4889 9.10684 16.9981 8.92766 18.7051C8.85044 19.4408 8.87665 20.2375 9.03297 21.0954C9.995 19.0549 11.2185 17.1621 12.66 15.4606C13.2312 14.7864 14.2408 14.7028 14.915 15.2741C15.5893 15.8453 15.6728 16.8549 15.1016 17.5291C13.4836 19.4387 12.1802 21.6223 11.2707 24.0007ZM48.9161 38.569C49.7065 38.9642 50.0268 39.9251 49.6316 40.7155L48.0316 43.9155C47.6364 44.7059 46.6754 45.0263 45.885 44.6311C45.0946 44.2359 44.7743 43.2749 45.1695 42.4845L46.7695 39.2845C47.1647 38.4941 48.1257 38.1738 48.9161 38.569Z" fill="#FB8500"/>
</svg>
