<svg width="65" height="64" viewBox="0 0 65 64" fill="none" xmlns="http://www.w3.org/2000/svg">
<path d="M45.9326 24C45.9326 34.32 36.9726 42.6667 25.9326 42.6667L23.4526 45.6534L21.986 47.4134C20.7326 48.9068 18.3326 48.5867 17.5059 46.8L13.9326 38.9333C9.07928 35.52 5.93262 30.1067 5.93262 24C5.93262 13.68 14.8926 5.33337 25.9326 5.33337C33.986 5.33337 40.946 9.78673 44.066 16.1867C45.266 18.5601 45.9326 21.2 45.9326 24Z" stroke="#FFB703" stroke-width="3" stroke-linecap="round" stroke-linejoin="round"/>
<path d="M59.2664 34.2933C59.2664 40.3999 56.1198 45.8134 51.2664 49.2267L47.6931 57.0932C46.8664 58.8799 44.4664 59.2267 43.2131 57.7067L39.2664 52.9599C32.8131 52.9599 27.0531 50.1066 23.4531 45.6533L25.9331 42.6666C36.9731 42.6666 45.9331 34.32 45.9331 24C45.9331 21.2 45.2664 18.56 44.0664 16.1866C52.7864 18.1866 59.2664 25.5466 59.2664 34.2933Z" stroke="#FFB703" stroke-width="3" stroke-linecap="round" stroke-linejoin="round"/>
<path d="M19.2666 24H32.5999" stroke="#FFB703" stroke-width="3" stroke-linecap="round" stroke-linejoin="round"/>
</svg>
