<svg width="36" height="36" viewBox="0 0 36 36" fill="none" xmlns="http://www.w3.org/2000/svg">
<g clip-path="url(#clip0_117_2399)">
<path d="M5.62057 35.073H4.36357C4.24423 35.073 4.12977 35.1204 4.04538 35.2048C3.96098 35.2892 3.91357 35.4036 3.91357 35.523C3.91357 35.6423 3.96098 35.7568 4.04538 35.8412C4.12977 35.9256 4.24423 35.973 4.36357 35.973H5.62057C5.73992 35.973 5.85438 35.9256 5.93877 35.8412C6.02316 35.7568 6.07057 35.6423 6.07057 35.523C6.07057 35.4036 6.02316 35.2892 5.93877 35.2048C5.85438 35.1204 5.73992 35.073 5.62057 35.073Z" fill="#219EBC" stroke="#219EBC" stroke-width="0.7875"/>
<path d="M31.9242 0.172496C31.8755 0.12519 31.8172 0.0888751 31.7532 0.0659956C31.5797 0.0171685 31.3969 0.011504 31.2207 0.0494956L31.1097 0.0629956C30.8712 0.0884956 30.6342 0.113996 30.3957 0.142496C30.1572 0.170996 29.9187 0.197996 29.6802 0.229496C29.4417 0.260996 29.2032 0.299996 28.9647 0.325496C28.7262 0.350996 28.4862 0.394496 28.2462 0.430496C28.0062 0.466496 27.7677 0.505496 27.5292 0.545996C27.2907 0.586496 27.0507 0.628496 26.8107 0.671996C26.5707 0.715496 26.3337 0.761996 26.0967 0.809996C25.8597 0.857996 25.6197 0.907496 25.3827 0.959996C25.1457 1.0125 24.9102 1.065 24.6732 1.1205L23.9667 1.296C23.7327 1.3575 23.4972 1.419 23.2647 1.485C23.0322 1.551 22.7997 1.6185 22.5672 1.6875C22.3347 1.7565 22.1067 1.83 21.8772 1.9065C21.6477 1.983 21.4272 2.0565 21.1932 2.139C20.9592 2.2215 20.7432 2.3025 20.5167 2.3895C20.2902 2.4765 20.0667 2.5635 19.8477 2.6565C19.6287 2.7495 19.4067 2.8425 19.1877 2.94C18.9687 3.0375 18.7527 3.138 18.5382 3.24C18.3237 3.342 18.1107 3.4515 17.9007 3.561L17.8212 3.6015C17.7237 3.651 17.6247 3.702 17.5317 3.7515C17.4441 3.8055 17.3759 3.88583 17.3367 3.981L15.8532 7.8405L14.7132 6.1995C14.6771 6.14755 14.6306 6.10367 14.5766 6.07062C14.5227 6.03757 14.4624 6.01608 14.3997 6.0075C14.3437 5.99933 14.2866 6.0027 14.2319 6.0174C14.1772 6.0321 14.1261 6.05783 14.0817 6.093C14.048 6.11073 14.0176 6.13406 13.9917 6.16199C13.9332 6.2115 13.8732 6.261 13.8132 6.312C13.6932 6.4095 13.5792 6.501 13.4712 6.5985C13.2912 6.7485 13.1232 6.8985 12.9627 7.0485C12.8022 7.1985 12.6267 7.3485 12.4692 7.5135L12.0072 7.9755C11.8452 8.13599 11.6922 8.289 11.5407 8.457C11.3892 8.625 11.2572 8.784 11.1087 8.9475C11.0412 9.03 10.9722 9.111 10.9002 9.192C10.8282 9.27299 10.7592 9.357 10.6902 9.441C10.6212 9.525 10.5777 9.591 10.5237 9.657C10.4457 9.7575 10.3737 9.852 10.3017 9.948C10.1682 10.1265 10.0347 10.305 9.91324 10.4715C9.85474 10.5585 9.79474 10.6455 9.73174 10.7325C9.66874 10.8195 9.60124 10.917 9.54124 11.0085C9.48124 11.1 9.42274 11.193 9.36424 11.2845C9.30574 11.376 9.25624 11.457 9.19924 11.544C9.08824 11.7105 8.98174 11.8875 8.86774 12.099C8.76424 12.2775 8.65924 12.4725 8.55574 12.6645C8.49274 12.774 8.43424 12.888 8.37574 13.0035C8.33674 13.0785 8.29774 13.1535 8.25424 13.236L7.98874 13.8135C7.90474 13.9635 7.83874 14.121 7.77274 14.283L7.71724 14.415C7.65874 14.55 7.59874 14.6985 7.53724 14.853L7.51774 14.8995C7.50231 14.9366 7.48928 14.9747 7.47874 15.0135L7.42474 15.15C7.36324 15.3 7.30024 15.4665 7.25524 15.6225C7.21024 15.7785 7.14874 15.9225 7.10524 16.0725L7.09774 16.0935L7.89424 19.005L6.49774 18.3L6.47824 18.396C6.47824 18.396 6.41974 18.696 6.38974 18.8235C6.36272 18.9355 6.34367 19.0493 6.33274 19.164C6.30494 19.2679 6.28488 19.3737 6.27274 19.4805V19.5C6.22624 19.7505 6.19474 19.992 6.16774 20.1885L6.07924 20.886C6.06274 21.0045 6.05224 21.126 6.04024 21.249C6.02824 21.372 6.01924 21.474 6.00424 21.5925L5.95924 22.3065V22.3365C5.94424 22.563 5.93074 22.7955 5.93074 23.022C5.93074 23.2485 5.91574 23.514 5.91574 23.7555V24.5055C5.91574 24.7665 5.93224 25.0305 5.94574 25.2555C5.94574 25.521 5.96224 25.797 5.97574 26.019C5.99224 26.3085 6.00574 26.5485 6.03574 26.7975C6.03574 26.862 6.05374 26.9685 6.06274 27.0615C6.07174 27.1545 6.07774 27.1995 6.08074 27.234C5.18816 28.8288 4.62024 30.5846 4.40974 32.4C4.40574 32.4577 4.41322 32.5157 4.43176 32.5706C4.45029 32.6254 4.47952 32.676 4.51774 32.7195C4.56062 32.7674 4.61278 32.806 4.67106 32.8331C4.72934 32.8601 4.79251 32.8751 4.85674 32.877C4.9701 32.8774 5.07943 32.8349 5.16286 32.7582C5.24629 32.6814 5.29767 32.576 5.30674 32.463C5.50305 30.7848 6.02859 29.1618 6.85324 27.687H6.88474C7.06774 27.687 7.22374 27.6945 7.38424 27.696C7.64074 27.705 7.89124 27.7065 8.14474 27.696H8.52724C8.52724 27.696 8.77774 27.6855 8.90374 27.681C9.02974 27.6765 9.15874 27.681 9.28624 27.666L9.47824 27.654L10.0302 27.621C10.2657 27.606 10.5087 27.591 10.7442 27.561C10.9797 27.531 11.2377 27.5175 11.4792 27.486C11.7207 27.4545 11.9292 27.4275 12.1782 27.3825C12.3822 27.3585 12.6282 27.3255 12.8847 27.2775L13.2267 27.21C13.3422 27.189 13.4577 27.1665 13.5687 27.1425L14.2392 27C14.3442 26.9715 14.4492 26.9475 14.5542 26.922C14.6592 26.8965 14.7912 26.8665 14.9112 26.835L15.1632 26.7645C15.2922 26.73 15.4257 26.6925 15.5502 26.6565C15.6747 26.6205 15.7917 26.586 15.9087 26.55C16.0257 26.514 16.0977 26.49 16.1937 26.463C16.4082 26.3925 16.6077 26.3205 16.8072 26.2485L16.8357 26.238C17.0442 26.1645 17.2542 26.088 17.4462 26.0145C17.6382 25.941 17.8362 25.8645 18.0582 25.7625C18.2352 25.6935 18.4362 25.6125 18.6582 25.506C18.7557 25.461 18.8532 25.413 18.9582 25.3635L19.2582 25.2135C19.3587 25.1595 19.4592 25.1085 19.5582 25.0635C19.6572 25.0185 19.7442 24.9705 19.8372 24.9135C19.9302 24.8565 20.0277 24.8085 20.1207 24.7635C20.2137 24.7185 20.3067 24.6585 20.4042 24.606C20.4762 24.5655 20.5542 24.522 20.6187 24.4785C20.7267 24.411 20.8377 24.3435 20.9592 24.2775L21.4962 23.919C21.6687 23.8035 21.8517 23.682 22.0167 23.5635C22.1382 23.481 22.2492 23.397 22.3677 23.3055L22.5402 23.1735C22.7352 23.031 22.9062 22.9005 23.0502 22.785L23.2977 22.5735C23.3787 22.503 23.4612 22.4325 23.5452 22.3635L23.7192 22.2135C23.8257 22.119 23.9262 22.032 24.0192 21.9375C24.1122 21.843 24.1797 21.7875 24.2592 21.7125L24.4977 21.4875L24.9627 21.0225L25.4127 20.535C25.5027 20.445 25.5882 20.343 25.6707 20.2455C25.7277 20.1765 25.7862 20.1075 25.8477 20.04C25.9497 19.9275 26.0442 19.809 26.1372 19.6935L26.2662 19.5315C26.4042 19.365 26.5317 19.197 26.6532 19.035L26.7237 18.942C26.8452 18.78 26.9667 18.6165 27.0942 18.432L27.1092 18.4125C27.126 18.3995 27.1398 18.3832 27.1497 18.3645C27.1843 18.3132 27.2079 18.2553 27.2191 18.1944C27.2302 18.1336 27.2287 18.0711 27.2146 18.0108C27.2006 17.9506 27.1742 17.8939 27.1372 17.8443C27.1003 17.7946 27.0535 17.7532 26.9997 17.7225L25.2762 16.6935L29.0547 14.9625C29.1412 14.911 29.213 14.8382 29.2632 14.751C31.1367 10.2778 32.0966 5.47513 32.0862 0.625496C32.092 0.542897 32.0805 0.460009 32.0526 0.382048C32.0247 0.304087 31.981 0.23274 31.9242 0.172496ZM24.1242 16.23C24.072 16.2502 24.0245 16.2809 23.9845 16.3201C23.9446 16.3593 23.913 16.4062 23.8917 16.458C23.8438 16.5737 23.8438 16.7038 23.8917 16.8195C23.9318 16.9016 23.9942 16.9707 24.0717 17.019L26.1162 18.2415C21.9372 23.898 15.7287 26.766 7.65574 26.766C7.55554 26.7708 7.4551 26.7663 7.35574 26.7525C13.2642 16.326 30.0882 2.6025 30.2577 2.463C30.3362 2.38439 30.3828 2.27956 30.3886 2.16866C30.3944 2.05775 30.359 1.94862 30.2892 1.86225C30.2194 1.77587 30.1201 1.71837 30.0105 1.70078C29.9008 1.6832 29.7886 1.70678 29.6952 1.767C29.0172 2.316 13.1382 15.219 6.89524 25.7505C6.76841 23.7147 6.86903 21.671 7.19524 19.6575L8.38474 20.2575C8.45068 20.2914 8.52362 20.3093 8.59774 20.31C8.69692 20.3097 8.7925 20.2728 8.86624 20.2065C8.9349 20.1523 8.98662 20.0795 9.01532 19.9969C9.04402 19.9142 9.04851 19.8251 9.02824 19.74L8.05174 16.1565C9.23915 12.6234 11.3912 9.49295 14.2647 7.119L15.5997 9.057C15.6488 9.13953 15.7244 9.20298 15.8142 9.237C15.8651 9.25926 15.92 9.27075 15.9755 9.27075C16.031 9.27075 16.0859 9.25926 16.1367 9.237C16.194 9.21277 16.2457 9.17732 16.289 9.13275C16.3323 9.08818 16.3662 9.03539 16.3887 8.9775L18.1212 4.4625C22.2071 2.52043 26.6177 1.3527 31.1292 1.0185C31.0837 5.54399 30.1919 10.021 28.4997 14.2185L24.1242 16.23Z" fill="#219EBC" stroke="#219EBC" stroke-width="0.7875"/>
</g>
<defs>
<clipPath id="clip0_117_2399">
<rect width="36" height="36" fill="white"/>
</clipPath>
</defs>
</svg>
