<svg width="64" height="64" viewBox="0 0 64 64" fill="none" xmlns="http://www.w3.org/2000/svg">
<path d="M26.8001 6.74676L10.7467 17.2268C5.60005 20.5868 5.60005 28.1068 10.7467 31.4668L26.8001 41.9468C29.6801 43.8401 34.4267 43.8401 37.3067 41.9468L53.2801 31.4668C58.4001 28.1068 58.4001 20.6134 53.2801 17.2534L37.3067 6.77343C34.4267 4.85343 29.6801 4.85343 26.8001 6.74676Z" stroke="#FFB703" stroke-width="3" stroke-linecap="round" stroke-linejoin="round"/>
<path d="M15.013 34.8799L14.9863 47.3866C14.9863 50.7732 17.5997 54.3999 20.7997 55.4665L29.3063 58.2932C30.773 58.7732 33.1997 58.7732 34.693 58.2932L43.1997 55.4665C46.3997 54.3999 49.013 50.7732 49.013 47.3866V35.0132" stroke="#FFB703" stroke-width="3" stroke-linecap="round" stroke-linejoin="round"/>
<path d="M57.0664 40V24" stroke="#FFB703" stroke-width="3" stroke-linecap="round" stroke-linejoin="round"/>
</svg>
