<svg width="65" height="64" viewBox="0 0 65 64" fill="none" xmlns="http://www.w3.org/2000/svg">
<path d="M52.1112 14.15V7.708C52.1112 4.22 49.1842 1.38 45.5792 1.363C45.5752 1.363 45.5712 1.363 45.5662 1.363H45.5562C45.5532 1.363 45.5482 1.363 45.5462 1.363C43.2132 1.363 41.1672 2.549 40.0022 4.325C38.8522 2.344 36.7982 1.013 34.4502 1C34.4462 1 34.4412 1 34.4362 1H34.4262C34.4232 1 34.4182 1 34.4162 1C31.1862 1 28.5002 3.491 27.9582 6.758C26.7592 5.48 25.0612 4.676 23.1752 4.676C19.5552 4.676 16.6112 7.621 16.6112 11.241V13.039C15.5892 12.121 14.2422 11.557 12.7622 11.557C9.57923 11.557 6.99023 14.147 6.99023 17.329V26.146C6.99023 26.464 7.02223 26.775 7.07223 27.079L7.07023 32.112C7.07323 35.799 7.58323 46.092 12.8562 50.2C11.7792 50.731 11.0192 51.988 11.0192 53.454V59.475C11.0192 61.418 12.3542 62.999 13.9952 62.999H45.3942C47.0332 62.999 48.3672 61.418 48.3672 59.475V53.454C48.3672 52.079 47.6922 50.897 46.7212 50.317C50.4582 48.404 52.6072 44.572 54.4722 37.689C54.4722 37.688 54.4722 37.687 54.4722 37.686L57.4352 28.489C57.4522 28.437 57.4642 28.384 57.4722 28.329L57.5622 27.735C58.2072 23.491 59.1532 17.201 52.1112 14.15ZM40.9822 7.708C40.9822 5.312 43.0302 3.363 45.5462 3.363C48.0622 3.363 50.1102 5.312 50.1102 7.708V13.488L40.9812 11.502V7.969L40.9822 7.708ZM29.8532 7.969C29.8532 5.229 31.9002 3 34.4172 3C36.9352 3 38.9822 5.229 38.9822 7.969V11.44C38.0362 11.773 37.2362 12.685 36.7772 14.073C36.1922 15.84 36.1912 18.104 36.8912 20.334C36.1522 20.856 35.2972 21.151 34.4162 21.151C31.8992 21.151 29.8522 18.923 29.8522 16.186V7.969H29.8532ZM18.6112 11.241C18.6112 8.723 20.6592 6.676 23.1752 6.676C25.6932 6.676 27.7402 8.724 27.7402 11.241V20.262C27.7402 22.779 25.6922 24.826 23.1752 24.826C20.6582 24.826 18.6112 22.778 18.6112 20.262V11.241ZM12.7632 13.557C14.8442 13.557 16.5362 15.249 16.5362 17.329V26.146C16.5362 28.226 14.8442 29.918 12.7632 29.918C10.9502 29.918 9.43323 28.631 9.07323 26.923L9.07623 21.669C9.07623 21.526 9.04523 21.393 8.99123 21.271V17.329C8.99023 15.249 10.6832 13.557 12.7632 13.557ZM45.3952 51.93C45.8542 51.93 46.3682 52.582 46.3682 53.454V59.475C46.3682 60.347 45.8542 60.999 45.3952 60.999H13.9952C13.5332 60.999 13.0192 60.373 13.0192 59.475V53.454C13.0192 52.556 13.5332 51.93 13.9952 51.93H18.0322H37.9022H45.3952ZM55.5852 27.435L55.5072 27.954L52.4802 37.35C52.4732 37.37 52.4782 37.39 52.4732 37.41C49.5302 48.103 46.2262 49.93 37.9022 49.93H18.0322C9.73023 49.93 9.07323 36.291 9.07023 32.112L9.07123 30.58C10.0722 31.416 11.3592 31.92 12.7622 31.92C15.9462 31.92 18.5352 29.33 18.5352 26.148V24.903C19.7232 26.091 21.3652 26.828 23.1752 26.828C26.5412 26.828 29.3212 24.281 29.6952 21.015C30.8892 22.33 32.5632 23.153 34.4172 23.153C35.5642 23.153 36.6852 22.827 37.6722 22.227C38.5962 24.013 40.0282 25.668 42.0572 26.895C38.2862 28.531 33.7212 33.041 33.3002 40.233C33.2682 40.785 33.6892 41.257 34.2392 41.29C34.2602 41.291 34.2792 41.292 34.2992 41.292C34.8242 41.292 35.2652 40.882 35.2962 40.351C35.8102 31.595 42.8442 28.136 45.0542 28.198C45.0732 28.2 45.0902 28.19 45.1092 28.191C45.1712 28.189 45.2282 28.178 45.2882 28.167C45.3612 28.153 45.4322 28.14 45.4992 28.108C45.5522 28.085 45.5972 28.05 45.6452 28.018C45.6982 27.981 45.7492 27.949 45.7942 27.903C45.8472 27.851 45.8862 27.789 45.9272 27.724C45.9572 27.676 45.9882 27.632 46.0092 27.579C46.0192 27.557 46.0372 27.54 46.0452 27.516C46.0622 27.465 46.0562 27.413 46.0642 27.363C46.0722 27.32 46.0932 27.283 46.0952 27.239C46.0962 27.218 46.0862 27.202 46.0862 27.181C46.0842 27.113 46.0692 27.049 46.0542 26.983C46.0392 26.919 46.0292 26.856 46.0022 26.797C45.9802 26.746 45.9462 26.703 45.9152 26.656C45.8742 26.593 45.8352 26.534 45.7812 26.483C45.7462 26.45 45.7052 26.425 45.6652 26.397C45.5972 26.349 45.5292 26.305 45.4502 26.275C45.4352 26.269 45.4262 26.256 45.4102 26.252C38.6862 24.024 37.7072 17.631 38.6772 14.702C38.7682 14.43 39.2552 13.086 40.0052 13.332C40.0382 13.343 40.0722 13.353 40.1072 13.36L50.2202 15.56C57.0432 17.844 56.2692 22.938 55.5852 27.435Z" fill="#FFB703" stroke="#FFB703"/>
</svg>
