<svg width="23" height="17" viewBox="0 0 23 17" fill="none" xmlns="http://www.w3.org/2000/svg">
<path fill-rule="evenodd" clip-rule="evenodd" d="M2.14815 1.62135C2.14815 1.17646 2.56892 0.815796 3.08796 0.815796H21.6157C22.1348 0.815796 22.5556 1.17646 22.5556 1.62135C22.5556 2.06625 22.1348 2.42691 21.6157 2.42691H3.08796C2.56892 2.42691 2.14815 2.06625 2.14815 1.62135ZM0 6.45468C0 6.00979 0.420769 5.64913 0.939815 5.64913H21.6157C22.1348 5.64913 22.5556 6.00979 22.5556 6.45468C22.5556 6.89958 22.1348 7.26024 21.6157 7.26024H0.939815C0.420769 7.26024 0 6.89958 0 6.45468ZM2.14815 11.288C2.14815 10.8431 2.56892 10.4825 3.08796 10.4825H21.6157C22.1348 10.4825 22.5556 10.8431 22.5556 11.288C22.5556 11.7329 22.1348 12.0936 21.6157 12.0936H3.08796C2.56892 12.0936 2.14815 11.7329 2.14815 11.288ZM2.14815 16.1214C2.14815 15.6765 2.56892 15.3158 3.08796 15.3158H21.6157C22.1348 15.3158 22.5556 15.6765 22.5556 16.1214C22.5556 16.5662 22.1348 16.9269 21.6157 16.9269H3.08796C2.56892 16.9269 2.14815 16.5662 2.14815 16.1214Z" fill="#323232"/>
</svg>
