<svg width="65" height="64" viewBox="0 0 65 64" fill="none" xmlns="http://www.w3.org/2000/svg">
<g clip-path="url(#clip0_95_1908)">
<path d="M11.4895 22.0747C7.54549 21.5973 5.69216 25.232 5.63882 25.344C4.76949 26.928 4.59082 28.8693 5.12149 30.9627C5.24416 31.4453 5.67882 31.7653 6.15349 31.7653C6.24149 31.7653 6.32949 31.7547 6.41749 31.7333C6.98816 31.5893 7.33216 31.008 7.18816 30.4373C6.78549 28.856 6.89482 27.488 7.52949 26.3253C7.54016 26.3013 8.73749 23.888 11.2335 24.192C11.8308 24.2747 12.3482 23.8453 12.4175 23.2587C12.4922 22.6747 12.0762 22.144 11.4895 22.0747Z" fill="#ED2626" stroke="#ED2626"/>
<path d="M62.9562 11.568C62.9082 11.4774 58.4069 2.5707 48.9882 6.84803C48.2149 7.19736 46.7109 8.0267 45.9509 8.5227C45.2869 8.95736 43.3882 10.4134 42.3669 11.2C41.3376 10.376 39.4389 8.87736 38.7589 8.4347C38.0069 7.94136 36.5029 7.11203 35.7216 6.76003C26.2896 2.48536 21.8016 11.3867 21.7802 11.4347C19.9562 14.7547 20.1669 18.3654 20.8202 21.152C20.0896 20.5867 19.3936 20.0587 19.0416 19.8267C18.2816 19.3307 16.7776 18.5014 16.0042 18.1547C6.57223 13.8774 2.0789 22.7814 2.06023 22.8294C-1.69444 29.672 2.99356 37.6294 3.1509 37.8854C5.78823 43.28 11.0736 48.5547 13.2229 50.5707C15.3189 52.5334 21.6762 57.9227 21.9482 58.1494C21.9696 58.168 22.0016 58.16 22.0256 58.1787C22.2096 58.312 22.4176 58.4027 22.6362 58.4027C22.8522 58.4027 23.0576 58.3147 23.2416 58.184C23.2656 58.168 23.2976 58.1734 23.3216 58.1547C23.5909 57.9307 29.9589 52.608 32.0522 50.6587C33.3882 49.4134 35.9429 46.904 38.3109 43.8907C40.1349 45.456 41.6709 46.7547 41.6709 46.7547C41.6922 46.7734 41.7242 46.7654 41.7482 46.784C41.9322 46.9174 42.1402 47.008 42.3589 47.008C42.5749 47.008 42.7802 46.92 42.9642 46.7894C42.9882 46.7734 43.0202 46.7787 43.0442 46.76C43.3136 46.536 49.6816 41.216 51.7722 39.264C53.4416 37.7094 59.1029 32.1974 61.8042 26.6587C62.0016 26.3227 66.6869 18.3654 62.9562 11.568ZM30.5962 49.0987C28.9402 50.64 24.3802 54.4827 22.6416 55.9414C20.9429 54.4987 16.3562 50.584 14.6816 49.0134C12.6176 47.0774 7.54823 42.0267 5.0229 36.8667C4.98023 36.7947 0.769564 29.6134 3.9509 23.8134C4.09756 23.5227 7.60423 16.6934 15.1242 20.096C15.7962 20.4 17.2096 21.1787 17.8709 21.6107C18.5589 22.0614 21.0602 24.0534 21.9669 24.7814C21.9909 24.8 22.0229 24.8054 22.0469 24.824C22.1082 24.8667 22.1722 24.896 22.2389 24.9227C22.3002 24.9467 22.3589 24.9707 22.4229 24.984C22.4922 24.9974 22.5589 25 22.6282 25.0027C22.6949 25.0027 22.7589 25.0027 22.8256 24.9894C22.8922 24.976 22.9509 24.9547 23.0149 24.9307C23.0842 24.904 23.1482 24.8747 23.2096 24.8347C23.2336 24.8187 23.2629 24.8134 23.2869 24.7947C24.1936 24.088 26.7029 22.1547 27.3989 21.7014C28.0496 21.2747 29.4602 20.496 30.1456 20.184C37.6656 16.7787 41.1722 23.6107 41.3402 23.944C44.5002 29.704 40.2896 36.8854 40.2042 37.0347C37.6282 42.3174 32.1989 47.6027 30.5962 49.0987ZM59.9269 25.64C57.3429 30.9307 51.9162 36.2107 50.3136 37.704C48.6602 39.2454 44.1002 43.088 42.3616 44.5467C41.7242 44.0054 40.7109 43.1387 39.5856 42.176C40.5269 40.848 41.3962 39.4587 42.0789 38.056C42.2816 37.72 46.9669 29.7627 43.2362 22.9654C43.1882 22.8747 38.6949 13.9707 29.2682 18.2427C28.4816 18.5974 26.9776 19.4294 26.2336 19.9174C25.6896 20.272 24.3269 21.3067 23.2869 22.104C22.4762 19.592 21.8256 15.784 23.6709 12.4187C23.8176 12.128 27.3216 5.2987 34.8416 8.70136C35.5216 9.00803 36.9322 9.78936 37.5909 10.2187C38.2789 10.6667 40.7802 12.6587 41.6869 13.3894C41.7109 13.408 41.7402 13.4134 41.7669 13.4294C41.8282 13.472 41.8896 13.5014 41.9589 13.528C42.0229 13.5547 42.0842 13.5787 42.1482 13.5894C42.2122 13.6027 42.2762 13.6054 42.3429 13.6054C42.4149 13.6054 42.4842 13.6054 42.5536 13.592C42.6149 13.5814 42.6709 13.56 42.7322 13.536C42.8042 13.5094 42.8709 13.4774 42.9349 13.4347C42.9589 13.4187 42.9882 13.416 43.0122 13.3974C43.9189 12.6907 46.4282 10.7574 47.1216 10.304C47.7856 9.86936 49.1989 9.0907 49.8709 8.7867C57.3962 5.38403 60.9002 12.2134 61.0656 12.5467C64.2229 18.3094 60.0122 25.488 59.9269 25.64Z" fill="#ED2626" stroke="#ED2626" stroke-width="1.4"/>
</g>
<defs>
<clipPath id="clip0_95_1908">
<rect width="64" height="64" fill="white" transform="translate(0.5)"/>
</clipPath>
</defs>
</svg>
