<svg width="65" height="64" viewBox="0 0 65 64" fill="none" xmlns="http://www.w3.org/2000/svg">
<path d="M58.5591 10.5067C54.4525 20.7467 44.1591 34.6667 35.5458 41.5734L30.2925 45.7867C29.6258 46.2667 28.9591 46.6934 28.2125 46.9867C28.2125 46.5067 28.1858 45.9734 28.1058 45.4667C27.8125 43.2267 26.7991 41.1467 25.0125 39.36C23.1991 37.5467 20.9858 36.48 18.7191 36.1867C18.1858 36.16 17.6525 36.1067 17.1191 36.16C17.4125 35.3334 17.8658 34.56 18.4258 33.92L22.5858 28.6667C29.4658 20.0534 43.4391 9.70671 53.6525 5.62671C55.2258 5.04004 56.7458 5.46671 57.7058 6.45337C58.7191 7.44004 59.1991 8.96004 58.5591 10.5067Z" stroke="#FFB703" stroke-width="3.25" stroke-linecap="round" stroke-linejoin="round"/>
<path d="M28.2132 46.9866C28.2132 49.92 27.0932 52.72 24.9865 54.8533C23.3598 56.48 21.1465 57.6 18.5065 57.9466L11.9465 58.6666C8.37315 59.0666 5.30649 56.0266 5.73315 52.4L6.45315 45.84C7.09315 40 11.9732 36.2666 17.1465 36.16C17.6798 36.1333 18.2398 36.16 18.7465 36.1866C21.0132 36.48 23.2265 37.52 25.0398 39.36C26.8265 41.1466 27.8398 43.2266 28.1331 45.4666C28.1598 45.9733 28.2132 46.48 28.2132 46.9866Z" stroke="#FFB703" stroke-width="3.25" stroke-linecap="round" stroke-linejoin="round"/>
<path d="M38.3731 38.5867C38.3731 31.6267 32.7198 25.9734 25.7598 25.9734" stroke="#FFB703" stroke-width="3.25" stroke-linecap="round" stroke-linejoin="round"/>
</svg>
