<svg width="64" height="64" viewBox="0 0 64 64" fill="none" xmlns="http://www.w3.org/2000/svg">
<g clip-path="url(#clip0_289_701)">
<mask id="mask0_289_701" style="mask-type:luminance" maskUnits="userSpaceOnUse" x="0" y="0" width="64" height="64">
<path d="M0 3.8147e-06H64V64H0V3.8147e-06Z" fill="white"/>
</mask>
<g mask="url(#mask0_289_701)">
<path d="M58.2226 34.4199C58.2226 50.2388 45.3989 63.0625 29.58 63.0625C13.7612 63.0625 0.9375 50.2388 0.9375 34.4199C0.9375 18.601 13.7612 5.77725 29.58 5.77725C45.3989 5.77725 58.2226 18.601 58.2226 34.4199Z" stroke="#219EBC" stroke-width="2.5" stroke-miterlimit="10" stroke-linecap="round" stroke-linejoin="round"/>
<path d="M29.5798 55.1892C41.0319 55.1892 50.349 45.8721 50.349 34.42C50.349 22.9678 41.0319 13.6507 29.5798 13.6507C18.1277 13.6507 8.81055 22.9678 8.81055 34.42C8.81055 45.8721 18.1277 55.1892 29.5798 55.1892Z" stroke="#219EBC" stroke-width="2.5" stroke-miterlimit="10" stroke-linecap="round" stroke-linejoin="round"/>
<path d="M29.5795 47.3159C22.4687 47.3159 16.6836 41.5308 16.6836 34.42C16.6836 27.3092 22.4687 21.524 29.5795 21.524C36.6903 21.524 42.4755 27.3092 42.4755 34.42C42.4755 41.5308 36.6903 47.3159 29.5795 47.3159Z" stroke="#219EBC" stroke-width="2.5" stroke-miterlimit="10" stroke-linecap="round" stroke-linejoin="round"/>
<path d="M29.5793 39.4426C26.8099 39.4426 24.5566 37.1895 24.5566 34.42C24.5566 31.6505 26.8099 29.3974 29.5793 29.3974C32.3486 29.3974 34.602 31.6505 34.602 34.42C34.602 37.1895 32.3486 39.4426 29.5793 39.4426Z" stroke="#219EBC" stroke-width="2.5" stroke-miterlimit="10" stroke-linecap="round" stroke-linejoin="round"/>
<path d="M29.5801 34.4199L60.8798 3.12017" stroke="#219EBC" stroke-width="2.5" stroke-miterlimit="10" stroke-linecap="round" stroke-linejoin="round"/>
<path d="M56.1342 1.06797L49.8506 7.35147C49.5806 7.62147 49.4396 7.99459 49.4636 8.37572L49.8274 14.1733L57.2304 6.77034L56.8904 1.35384C56.8664 0.972716 56.4042 0.797965 56.1342 1.06797Z" stroke="#219EBC" stroke-width="2.5" stroke-miterlimit="10" stroke-linecap="round" stroke-linejoin="round"/>
<path d="M62.9315 7.86681L56.648 14.1503C56.378 14.4203 56.005 14.5613 55.6238 14.5374L49.8262 14.1736L57.2292 6.77056L62.6457 7.11056C63.0269 7.13443 63.2015 7.59681 62.9315 7.86681Z" stroke="#219EBC" stroke-width="2.5" stroke-miterlimit="10" stroke-linecap="round" stroke-linejoin="round"/>
</g>
</g>
<defs>
<clipPath id="clip0_289_701">
<rect width="64" height="64" fill="white"/>
</clipPath>
</defs>
</svg>
