<svg width="65" height="64" viewBox="0 0 65 64" fill="none" xmlns="http://www.w3.org/2000/svg">
<g clip-path="url(#clip0_95_5401)">
<path fill-rule="evenodd" clip-rule="evenodd" d="M45.6725 22.2462C39.1429 14.2526 26.4651 14.0578 19.665 21.8466C14.7708 27.4524 14.5645 35.5002 19.1658 41.3239L25.2003 48.9619C25.5086 49.352 25.9922 49.5831 26.5069 49.5859L33.2968 49.6227L39.3688 49.6554C39.9109 49.6583 40.4197 49.4077 40.7288 48.9859L46.9096 40.5472C50.7691 35.2781 50.5762 28.2496 46.4328 23.1773L45.6725 22.2462ZM17.1315 19.8649C25.2738 10.5387 40.4543 10.772 48.2725 20.3434L49.0331 21.2745C54.053 27.42 54.2866 35.9357 49.6107 42.3197L43.4296 50.7584C42.5032 52.0237 40.9768 52.7747 39.3503 52.7661L33.2783 52.7338L26.488 52.6967C24.9438 52.6883 23.493 51.9955 22.5682 50.825L16.5337 43.1872C11.0241 36.2135 11.2711 26.5773 17.1315 19.8649Z" fill="#FB8500"/>
<path fill-rule="evenodd" clip-rule="evenodd" d="M25.4009 61.8C25.4009 60.9164 26.1172 60.2 27.0008 60.2H39.0481C39.9316 60.2 40.6481 60.9164 40.6481 61.8C40.6481 62.6835 39.9316 63.4 39.0481 63.4H27.0008C26.1172 63.4 25.4009 62.6835 25.4009 61.8Z" fill="#FB8500"/>
<path fill-rule="evenodd" clip-rule="evenodd" d="M23.9892 49.9556C24.8728 49.9556 25.5892 50.6717 25.5892 51.5556V53.1556C25.5892 54.0391 26.3055 54.7556 27.1892 54.7556H38.3892C39.2727 54.7556 39.9892 54.0391 39.9892 53.1556V51.5556C39.9892 50.6717 40.7054 49.9556 41.5892 49.9556C42.4727 49.9556 43.1892 50.6717 43.1892 51.5556V53.1556C43.1892 55.8064 41.0401 57.9556 38.3892 57.9556H27.1892C24.5382 57.9556 22.3892 55.8064 22.3892 53.1556V51.5556C22.3892 50.6717 23.1055 49.9556 23.9892 49.9556Z" fill="#FB8500"/>
<path fill-rule="evenodd" clip-rule="evenodd" d="M55.4004 32.2205C55.4004 31.337 56.1169 30.6205 57.0004 30.6205H63.4004C64.2839 30.6205 65.0004 31.337 65.0004 32.2205C65.0004 33.1043 64.2839 33.8205 63.4004 33.8205H57.0004C56.1169 33.8205 55.4004 33.1043 55.4004 32.2205Z" fill="#FB8500"/>
<path fill-rule="evenodd" clip-rule="evenodd" d="M52.4054 50.1437C52.856 49.3837 53.8454 49.1184 54.6157 49.5517L60.1581 52.6698C60.9283 53.1031 61.1875 54.0704 60.7369 54.8308C60.2864 55.5908 59.2969 55.856 58.527 55.4228L52.9843 52.3047C52.2141 51.8714 51.9549 50.904 52.4054 50.1437Z" fill="#FB8500"/>
<path fill-rule="evenodd" clip-rule="evenodd" d="M1 32.2205C1 31.337 1.71635 30.6205 2.6 30.6205H9C9.88365 30.6205 10.6 31.337 10.6 32.2205C10.6 33.1043 9.88365 33.8205 9 33.8205H2.6C1.71635 33.8205 1 33.1043 1 32.2205Z" fill="#FB8500"/>
<path fill-rule="evenodd" clip-rule="evenodd" d="M6.69504 8.69717C7.31424 8.06677 8.34013 8.04424 8.9864 8.64686L13.6101 12.9584C14.2564 13.5611 14.2784 14.5607 13.6591 15.1911C13.0399 15.8215 12.0141 15.844 11.3678 15.2414L6.74407 10.9298C6.09779 10.3272 6.07584 9.3276 6.69504 8.69717Z" fill="#FB8500"/>
<path fill-rule="evenodd" clip-rule="evenodd" d="M59.5939 9.30376C58.9747 8.67333 57.9487 8.6508 57.3023 9.25345L52.6786 13.565C52.0322 14.1677 52.0105 15.1673 52.6297 15.7977C53.2489 16.4281 54.2748 16.4506 54.9209 15.848L59.5449 11.5364C60.191 10.9338 60.2131 9.93416 59.5939 9.30376Z" fill="#FB8500"/>
<path fill-rule="evenodd" clip-rule="evenodd" d="M6.00546 54.8308C5.55499 54.0704 5.81416 53.1031 6.58434 52.6698L12.1269 49.5517C12.897 49.1184 13.8865 49.3837 14.337 50.1437C14.7875 50.904 14.5283 51.8714 13.7582 52.3047L8.2156 55.4228C7.44542 55.856 6.45592 55.5908 6.00546 54.8308Z" fill="#FB8500"/>
<path fill-rule="evenodd" clip-rule="evenodd" d="M33.0004 1C33.8839 1 34.6004 1.71635 34.6004 2.6V8.8359C34.6004 9.71955 33.8839 10.4359 33.0004 10.4359C32.1169 10.4359 31.4004 9.71955 31.4004 8.8359V2.6C31.4004 1.71635 32.1169 1 33.0004 1Z" fill="#FB8500"/>
<path fill-rule="evenodd" clip-rule="evenodd" d="M36.2824 19.6941C36.5617 18.8558 37.468 18.4027 38.306 18.6822C39.1224 18.9542 39.9592 19.3387 40.7819 19.824C41.5428 20.2731 41.796 21.254 41.3467 22.0151C40.8977 22.7762 39.9169 23.0291 39.1556 22.5801C38.5108 22.1996 37.8788 21.9128 37.2942 21.7179C36.4558 21.4385 36.0027 20.5324 36.2824 19.6941ZM43.1006 23.8376C43.7428 23.2304 44.7553 23.2586 45.3627 23.9006C47.0052 25.6374 48.1105 27.5776 48.459 30.0068C48.8008 32.3872 48.3928 35.082 47.3182 38.306C47.0385 39.1444 46.1326 39.5975 45.2942 39.3178C44.4558 39.0384 44.0027 38.1325 44.2824 37.2941C45.2769 34.3101 45.5345 32.1543 45.2913 30.4615C45.0555 28.8176 44.3262 27.4617 43.0376 26.0994C42.4305 25.4575 42.4587 24.4448 43.1006 23.8376Z" fill="#FB8500"/>
</g>
<defs>
<clipPath id="clip0_95_5401">
<rect width="64" height="64" fill="white" transform="translate(0.5)"/>
</clipPath>
</defs>
</svg>
