<svg width="36" height="36" viewBox="0 0 36 36" fill="none" xmlns="http://www.w3.org/2000/svg">
<path d="M18.0059 0C10.491 0 8.29324 0.00775548 7.86602 0.0431999C6.32386 0.171426 5.36423 0.414312 4.31875 0.934957C3.51307 1.33516 2.87764 1.79904 2.25053 2.44931C1.10844 3.6352 0.416261 5.09415 0.165687 6.82839C0.04387 7.67031 0.00842533 7.84201 0.00122759 12.1424C-0.00153449 13.5759 0.00122759 15.4625 0.00122759 17.9929C0.00122759 25.5037 0.00952739 27.6999 0.0455297 28.1264C0.170123 29.6275 0.405457 30.5719 0.903829 31.6049C1.85627 33.5823 3.6753 35.0667 5.81829 35.6206C6.56031 35.8117 7.37984 35.9169 8.43195 35.9668C8.87772 35.9862 13.4212 36 17.9674 36C22.5136 36 27.0598 35.9945 27.4945 35.9723C28.7128 35.915 29.4202 35.82 30.2023 35.6178C32.3592 35.0612 34.145 33.5989 35.1168 31.5938C35.6055 30.5857 35.8533 29.6053 35.9654 28.1826C35.9898 27.8725 36 22.927 36 17.9882C36 13.0486 35.9889 8.11231 35.9646 7.80213C35.851 6.35647 35.6032 5.3844 35.0988 4.35691C34.6849 3.51583 34.2253 2.88771 33.558 2.24549C32.3672 1.10778 30.9108 0.415414 29.1754 0.165058C28.3345 0.0434722 28.167 0.00746986 23.8645 0H18.0059Z" fill="url(#paint0_radial_126_4440)"/>
<path d="M18.0059 0C10.491 0 8.29324 0.00775548 7.86602 0.0431999C6.32386 0.171426 5.36423 0.414312 4.31875 0.934957C3.51307 1.33516 2.87764 1.79904 2.25053 2.44931C1.10844 3.6352 0.416261 5.09415 0.165687 6.82839C0.04387 7.67031 0.00842533 7.84201 0.00122759 12.1424C-0.00153449 13.5759 0.00122759 15.4625 0.00122759 17.9929C0.00122759 25.5037 0.00952739 27.6999 0.0455297 28.1264C0.170123 29.6275 0.405457 30.5719 0.903829 31.6049C1.85627 33.5823 3.6753 35.0667 5.81829 35.6206C6.56031 35.8117 7.37984 35.9169 8.43195 35.9668C8.87772 35.9862 13.4212 36 17.9674 36C22.5136 36 27.0598 35.9945 27.4945 35.9723C28.7128 35.915 29.4202 35.82 30.2023 35.6178C32.3592 35.0612 34.145 33.5989 35.1168 31.5938C35.6055 30.5857 35.8533 29.6053 35.9654 28.1826C35.9898 27.8725 36 22.927 36 17.9882C36 13.0486 35.9889 8.11231 35.9646 7.80213C35.851 6.35647 35.6032 5.3844 35.0988 4.35691C34.6849 3.51583 34.2253 2.88771 33.558 2.24549C32.3672 1.10778 30.9108 0.415414 29.1754 0.165058C28.3345 0.0434722 28.167 0.00746986 23.8645 0H18.0059Z" fill="url(#paint1_radial_126_4440)"/>
<path d="M18.0059 0C10.491 0 8.29324 0.00775548 7.86602 0.0431999C6.32386 0.171426 5.36423 0.414312 4.31875 0.934957C3.51307 1.33516 2.87764 1.79904 2.25053 2.44931C1.10844 3.6352 0.416261 5.09415 0.165687 6.82839C0.04387 7.67031 0.00842533 7.84201 0.00122759 12.1424C-0.00153449 13.5759 0.00122759 15.4625 0.00122759 17.9929C0.00122759 25.5037 0.00952739 27.6999 0.0455297 28.1264C0.170123 29.6275 0.405457 30.5719 0.903829 31.6049C1.85627 33.5823 3.6753 35.0667 5.81829 35.6206C6.56031 35.8117 7.37984 35.9169 8.43195 35.9668C8.87772 35.9862 13.4212 36 17.9674 36C22.5136 36 27.0598 35.9945 27.4945 35.9723C28.7128 35.915 29.4202 35.82 30.2023 35.6178C32.3592 35.0612 34.145 33.5989 35.1168 31.5938C35.6055 30.5857 35.8533 29.6053 35.9654 28.1826C35.9898 27.8725 36 22.927 36 17.9882C36 13.0486 35.9889 8.11231 35.9646 7.80213C35.851 6.35647 35.6032 5.3844 35.0988 4.35691C34.6849 3.51583 34.2253 2.88771 33.558 2.24549C32.3672 1.10778 30.9108 0.415414 29.1754 0.165058C28.3345 0.0434722 28.167 0.00746986 23.8645 0H18.0059Z" fill="url(#paint2_radial_126_4440)"/>
<path d="M18.0059 0C10.491 0 8.29324 0.00775548 7.86602 0.0431999C6.32386 0.171426 5.36423 0.414312 4.31875 0.934957C3.51307 1.33516 2.87764 1.79904 2.25053 2.44931C1.10844 3.6352 0.416261 5.09415 0.165687 6.82839C0.04387 7.67031 0.00842533 7.84201 0.00122759 12.1424C-0.00153449 13.5759 0.00122759 15.4625 0.00122759 17.9929C0.00122759 25.5037 0.00952739 27.6999 0.0455297 28.1264C0.170123 29.6275 0.405457 30.5719 0.903829 31.6049C1.85627 33.5823 3.6753 35.0667 5.81829 35.6206C6.56031 35.8117 7.37984 35.9169 8.43195 35.9668C8.87772 35.9862 13.4212 36 17.9674 36C22.5136 36 27.0598 35.9945 27.4945 35.9723C28.7128 35.915 29.4202 35.82 30.2023 35.6178C32.3592 35.0612 34.145 33.5989 35.1168 31.5938C35.6055 30.5857 35.8533 29.6053 35.9654 28.1826C35.9898 27.8725 36 22.927 36 17.9882C36 13.0486 35.9889 8.11231 35.9646 7.80213C35.851 6.35647 35.6032 5.3844 35.0988 4.35691C34.6849 3.51583 34.2253 2.88771 33.558 2.24549C32.3672 1.10778 30.9108 0.415414 29.1754 0.165058C28.3345 0.0434722 28.167 0.00746986 23.8645 0H18.0059Z" fill="url(#paint3_radial_126_4440)"/>
<path d="M18.0073 4.62244C14.3721 4.62244 13.9159 4.63831 12.4882 4.70324C11.0632 4.76845 10.0906 4.99387 9.23949 5.32464C8.35915 5.66626 7.61237 6.12324 6.86839 6.86695C6.12386 7.61039 5.66652 8.3566 5.32353 9.23602C4.99169 10.0867 4.76581 11.0589 4.70168 12.4823C4.63783 13.909 4.62109 14.3651 4.62109 17.9976C4.62109 21.63 4.63727 22.0845 4.70196 23.5112C4.7675 24.9351 4.99309 25.907 5.3238 26.7574C5.66596 27.6371 6.12328 28.3834 6.86755 29.1268C7.61127 29.8708 8.35804 30.3289 9.23782 30.6705C10.0894 31.0013 11.0624 31.2267 12.487 31.2919C13.9148 31.3568 14.3707 31.3727 18.0056 31.3727C21.641 31.3727 22.0959 31.3568 23.5236 31.2919C24.9486 31.2267 25.9223 31.0013 26.7739 30.6705C27.654 30.3289 28.3997 29.8708 29.1434 29.1268C29.8879 28.3834 30.3453 27.6371 30.6882 26.7577C31.0173 25.907 31.2432 24.9348 31.3101 23.5115C31.3742 22.0848 31.391 21.63 31.391 17.9976C31.391 14.3651 31.3742 13.9092 31.3101 12.4826C31.2432 11.0587 31.0173 10.0867 30.6882 9.23631C30.3453 8.3566 29.8879 7.61038 29.1434 6.86695C28.3988 6.12295 27.6543 5.66597 26.7731 5.32463C25.9198 4.99388 24.9466 4.76845 23.5217 4.70324C22.0939 4.63831 21.6394 4.62244 18.0031 4.62244H18.0073ZM16.8065 7.03275C17.1629 7.03219 17.5606 7.03275 18.0073 7.03275C21.5811 7.03275 22.0047 7.04557 23.416 7.10965C24.721 7.16929 25.4293 7.38718 25.9011 7.57026C26.5258 7.81268 26.9711 8.10248 27.4393 8.5706C27.9078 9.03874 28.1978 9.48458 28.4409 10.1087C28.6242 10.5797 28.8425 11.2874 28.9019 12.5915C28.966 14.0015 28.98 14.425 28.98 17.9945C28.98 21.564 28.966 21.9875 28.9019 23.3975C28.8422 24.7016 28.6242 25.4093 28.4409 25.8803C28.1983 26.5044 27.9078 26.9489 27.4393 27.4167C26.9708 27.8849 26.526 28.1746 25.9011 28.4171C25.4299 28.601 24.721 28.8183 23.416 28.878C22.005 28.942 21.5811 28.956 18.0073 28.956C14.4332 28.956 14.0096 28.942 12.5986 28.878C11.2936 28.8178 10.5853 28.5999 10.1132 28.4168C9.48852 28.1744 9.04234 27.8846 8.57387 27.4164C8.1054 26.9483 7.81539 26.5036 7.57222 25.8791C7.38901 25.4082 7.17067 24.7005 7.11128 23.3964C7.04714 21.9864 7.03431 21.5629 7.03431 17.9912C7.03431 14.4194 7.04714 13.9981 7.11128 12.5882C7.17096 11.2841 7.38901 10.5763 7.57222 10.1049C7.81482 9.48068 8.1054 9.03484 8.57387 8.56671C9.04234 8.09857 9.48852 7.80879 10.1132 7.56581C10.585 7.38189 11.2936 7.16456 12.5986 7.10463C13.8334 7.0489 14.3119 7.03219 16.8065 7.02939L16.8065 7.03275ZM25.1521 9.25357C24.2654 9.25357 23.5459 9.97166 23.5459 10.858C23.5459 11.7441 24.2654 12.4631 25.1521 12.4631C26.0389 12.4631 26.7583 11.7441 26.7583 10.858C26.7583 9.97193 26.0389 9.25303 25.1521 9.25303L25.1521 9.25357ZM18.0073 11.1289C14.2112 11.1289 11.1335 14.2043 11.1335 17.9976C11.1335 21.7908 14.2112 24.8649 18.0073 24.8649C21.8033 24.8649 24.88 21.7908 24.88 17.9976C24.88 14.2043 21.8031 11.1289 18.007 11.1289H18.0073ZM18.0073 13.5392C20.4712 13.5392 22.469 15.5352 22.469 17.9976C22.469 20.4597 20.4712 22.4559 18.0073 22.4559C15.543 22.4559 13.5456 20.4597 13.5456 17.9976C13.5456 15.5352 15.543 13.5392 18.0073 13.5392Z" fill="white"/>
<defs>
<radialGradient id="paint0_radial_126_4440" cx="0" cy="0" r="1" gradientUnits="userSpaceOnUse" gradientTransform="translate(34.8376 16.8736) rotate(164.25) scale(23.002 16.5718)">
<stop stop-color="#FF005F"/>
<stop offset="1" stop-color="#FC01D8"/>
</radialGradient>
<radialGradient id="paint1_radial_126_4440" cx="0" cy="0" r="1" gradientUnits="userSpaceOnUse" gradientTransform="translate(9.56223 38.7727) rotate(-90) scale(28.7359 30.4882)">
<stop stop-color="#FFCC00"/>
<stop offset="0.1242" stop-color="#FFCC00"/>
<stop offset="0.5672" stop-color="#FE4A05"/>
<stop offset="0.6942" stop-color="#FF0F3F"/>
<stop offset="1" stop-color="#FE0657" stop-opacity="0"/>
</radialGradient>
<radialGradient id="paint2_radial_126_4440" cx="0" cy="0" r="1" gradientUnits="userSpaceOnUse" gradientTransform="translate(18.9097 35.4923) rotate(-59.8703) scale(11.8825 15.4697)">
<stop stop-color="#FFCC00"/>
<stop offset="1" stop-color="#FFCC00" stop-opacity="0"/>
</radialGradient>
<radialGradient id="paint3_radial_126_4440" cx="0" cy="0" r="1" gradientUnits="userSpaceOnUse" gradientTransform="translate(4.88443 1.46591) rotate(164.274) scale(22.7468 7.74982)">
<stop stop-color="#780CFF"/>
<stop offset="1" stop-color="#820BFF" stop-opacity="0"/>
</radialGradient>
</defs>
</svg>
