<svg width="48" height="48" viewBox="0 0 48 48" fill="none" xmlns="http://www.w3.org/2000/svg">
<path d="M24.0078 0C13.9881 0 11.0576 0.0103406 10.488 0.0575999C8.43181 0.228568 7.15231 0.552416 5.75834 1.24661C4.68409 1.78021 3.83685 2.39872 3.0007 3.26575C1.47792 4.84693 0.555015 6.79219 0.220916 9.10452C0.0584934 10.2271 0.0112338 10.456 0.00163679 16.1899C-0.00204598 18.1012 0.00163679 20.6166 0.00163679 23.9906C0.00163679 34.005 0.0127032 36.9332 0.0607062 37.5019C0.22683 39.5033 0.540609 40.7625 1.2051 42.1398C2.47503 44.7763 4.9004 46.7556 7.75772 47.4941C8.74708 47.7489 9.83979 47.8892 11.2426 47.9557C11.837 47.9815 17.8949 48 23.9565 48C30.0182 48 36.0798 47.9926 36.6594 47.9631C38.2837 47.8866 39.2269 47.76 40.2698 47.4904C43.1455 46.7482 45.5266 44.7985 46.8224 42.125C47.474 40.7809 47.8044 39.4737 47.9539 37.5768C47.9863 37.1633 48 30.5694 48 23.9843C48 17.3981 47.9852 10.8164 47.9528 10.4028C47.8014 8.47529 47.471 7.17919 46.7984 5.80922C46.2465 4.68777 45.6337 3.85027 44.744 2.99398C43.1563 1.47705 41.2145 0.553885 38.9006 0.220077C37.7794 0.0579629 37.5561 0.00995981 31.8193 0H24.0078Z" fill="url(#paint0_radial_261_627)"/>
<path d="M24.0078 0C13.9881 0 11.0576 0.0103406 10.488 0.0575999C8.43181 0.228568 7.15231 0.552416 5.75834 1.24661C4.68409 1.78021 3.83685 2.39872 3.0007 3.26575C1.47792 4.84693 0.555015 6.79219 0.220916 9.10452C0.0584934 10.2271 0.0112338 10.456 0.00163679 16.1899C-0.00204598 18.1012 0.00163679 20.6166 0.00163679 23.9906C0.00163679 34.005 0.0127032 36.9332 0.0607062 37.5019C0.22683 39.5033 0.540609 40.7625 1.2051 42.1398C2.47503 44.7763 4.9004 46.7556 7.75772 47.4941C8.74708 47.7489 9.83979 47.8892 11.2426 47.9557C11.837 47.9815 17.8949 48 23.9565 48C30.0182 48 36.0798 47.9926 36.6594 47.9631C38.2837 47.8866 39.2269 47.76 40.2698 47.4904C43.1455 46.7482 45.5266 44.7985 46.8224 42.125C47.474 40.7809 47.8044 39.4737 47.9539 37.5768C47.9863 37.1633 48 30.5694 48 23.9843C48 17.3981 47.9852 10.8164 47.9528 10.4028C47.8014 8.47529 47.471 7.17919 46.7984 5.80922C46.2465 4.68777 45.6337 3.85027 44.744 2.99398C43.1563 1.47705 41.2145 0.553885 38.9006 0.220077C37.7794 0.0579629 37.5561 0.00995981 31.8193 0H24.0078Z" fill="url(#paint1_radial_261_627)"/>
<path d="M24.0078 0C13.9881 0 11.0576 0.0103406 10.488 0.0575999C8.43181 0.228568 7.15231 0.552416 5.75834 1.24661C4.68409 1.78021 3.83685 2.39872 3.0007 3.26575C1.47792 4.84693 0.555015 6.79219 0.220916 9.10452C0.0584934 10.2271 0.0112338 10.456 0.00163679 16.1899C-0.00204598 18.1012 0.00163679 20.6166 0.00163679 23.9906C0.00163679 34.005 0.0127032 36.9332 0.0607062 37.5019C0.22683 39.5033 0.540609 40.7625 1.2051 42.1398C2.47503 44.7763 4.9004 46.7556 7.75772 47.4941C8.74708 47.7489 9.83979 47.8892 11.2426 47.9557C11.837 47.9815 17.8949 48 23.9565 48C30.0182 48 36.0798 47.9926 36.6594 47.9631C38.2837 47.8866 39.2269 47.76 40.2698 47.4904C43.1455 46.7482 45.5266 44.7985 46.8224 42.125C47.474 40.7809 47.8044 39.4737 47.9539 37.5768C47.9863 37.1633 48 30.5694 48 23.9843C48 17.3981 47.9852 10.8164 47.9528 10.4028C47.8014 8.47529 47.471 7.17919 46.7984 5.80922C46.2465 4.68777 45.6337 3.85027 44.744 2.99398C43.1563 1.47705 41.2145 0.553885 38.9006 0.220077C37.7794 0.0579629 37.5561 0.00995981 31.8193 0H24.0078Z" fill="url(#paint2_radial_261_627)"/>
<path d="M24.0078 0C13.9881 0 11.0576 0.0103406 10.488 0.0575999C8.43181 0.228568 7.15231 0.552416 5.75834 1.24661C4.68409 1.78021 3.83685 2.39872 3.0007 3.26575C1.47792 4.84693 0.555015 6.79219 0.220916 9.10452C0.0584934 10.2271 0.0112338 10.456 0.00163679 16.1899C-0.00204598 18.1012 0.00163679 20.6166 0.00163679 23.9906C0.00163679 34.005 0.0127032 36.9332 0.0607062 37.5019C0.22683 39.5033 0.540609 40.7625 1.2051 42.1398C2.47503 44.7763 4.9004 46.7556 7.75772 47.4941C8.74708 47.7489 9.83979 47.8892 11.2426 47.9557C11.837 47.9815 17.8949 48 23.9565 48C30.0182 48 36.0798 47.9926 36.6594 47.9631C38.2837 47.8866 39.2269 47.76 40.2698 47.4904C43.1455 46.7482 45.5266 44.7985 46.8224 42.125C47.474 40.7809 47.8044 39.4737 47.9539 37.5768C47.9863 37.1633 48 30.5694 48 23.9843C48 17.3981 47.9852 10.8164 47.9528 10.4028C47.8014 8.47529 47.471 7.17919 46.7984 5.80922C46.2465 4.68777 45.6337 3.85027 44.744 2.99398C43.1563 1.47705 41.2145 0.553885 38.9006 0.220077C37.7794 0.0579629 37.5561 0.00995981 31.8193 0H24.0078Z" fill="url(#paint3_radial_261_627)"/>
<path d="M24.0094 6.16357C19.1625 6.16357 18.5542 6.18475 16.6506 6.27132C14.7506 6.35825 13.4538 6.65883 12.319 7.09985C11.1452 7.55534 10.1495 8.16464 9.15753 9.15625C8.16481 10.1475 7.55503 11.1425 7.09772 12.315C6.65526 13.4493 6.35409 14.7456 6.26859 16.6434C6.18345 18.5456 6.16113 19.1538 6.16113 23.9971C6.16113 28.8404 6.1827 29.4463 6.26895 31.3486C6.35634 33.2471 6.65713 34.543 7.09808 35.6769C7.55429 36.8498 8.16405 37.8448 9.15641 38.836C10.148 39.828 11.1437 40.4388 12.3168 40.8943C13.4523 41.3353 14.7495 41.6359 16.6491 41.7229C18.5527 41.8094 19.1606 41.8306 24.0071 41.8306C28.8544 41.8306 29.4608 41.8094 31.3645 41.7228C33.2644 41.6359 34.5628 41.3353 35.6983 40.8943C36.8717 40.4388 37.8659 39.828 38.8575 38.836C39.8502 37.8448 40.46 36.8499 40.9173 35.6773C41.3561 34.543 41.6572 33.2467 41.7465 31.3489C41.832 29.4467 41.8543 28.8404 41.8543 23.9971C41.8543 19.1538 41.832 18.546 41.7465 16.6437C41.6572 14.7452 41.3561 13.4493 40.9173 12.3154C40.46 11.1425 39.8502 10.1475 38.8575 9.15625C37.8648 8.16426 36.8721 7.55495 35.6972 7.09983C34.5594 6.65883 33.2618 6.35825 31.3619 6.27132C29.4582 6.18475 28.8522 6.16357 24.0038 6.16357H24.0094ZM22.4084 9.37733C22.8836 9.37658 23.4137 9.37733 24.0094 9.37733C28.7745 9.37733 29.3392 9.39442 31.221 9.47987C32.961 9.55938 33.9054 9.8499 34.5345 10.094C35.3674 10.4172 35.9611 10.8036 36.5854 11.4278C37.21 12.052 37.5967 12.6464 37.9209 13.4786C38.1652 14.1065 38.4563 15.0502 38.5355 16.789C38.621 18.6689 38.6396 19.2337 38.6396 23.993C38.6396 28.7523 38.621 29.3171 38.5355 31.197C38.456 32.9358 38.1652 33.8794 37.9209 34.5073C37.5975 35.3396 37.21 35.9322 36.5854 36.556C35.9608 37.1801 35.3677 37.5665 34.5345 37.8897C33.9061 38.135 32.961 38.4248 31.221 38.5043C29.3396 38.5897 28.7745 38.6083 24.0094 38.6083C19.2439 38.6083 18.6792 38.5897 16.7978 38.5043C15.0578 38.424 14.1134 38.1335 13.4839 37.8894C12.651 37.5662 12.0561 37.1798 11.4315 36.5556C10.8069 35.9314 10.4202 35.3385 10.096 34.5058C9.85169 33.878 9.56057 32.9343 9.48138 31.1955C9.39586 29.3155 9.37875 28.7508 9.37875 23.9885C9.37875 19.2263 9.39586 18.6645 9.48138 16.7845C9.56095 15.0458 9.85169 14.1021 10.096 13.4735C10.4194 12.6412 10.8069 12.0468 11.4315 11.4226C12.0561 10.7984 12.651 10.412 13.4839 10.0881C14.113 9.84285 15.0578 9.55307 16.7978 9.47317C18.4442 9.39886 19.0822 9.37658 22.4084 9.37285L22.4084 9.37733ZM33.5358 12.3384C32.3535 12.3384 31.3942 13.2959 31.3942 14.4777C31.3942 15.6592 32.3535 16.6177 33.5358 16.6177C34.7182 16.6177 35.6775 15.6592 35.6775 14.4777C35.6775 13.2962 34.7182 12.3377 33.5358 12.3377L33.5358 12.3384ZM24.0094 14.8388C18.948 14.8388 14.8443 18.9394 14.8443 23.9971C14.8443 29.0547 18.948 33.1535 24.0094 33.1535C29.0708 33.1535 33.1729 29.0547 33.1729 23.9971C33.1729 18.9394 29.0704 14.8388 24.009 14.8388H24.0094ZM24.0094 18.0526C27.2947 18.0526 29.9583 20.7139 29.9583 23.9971C29.9583 27.2799 27.2947 29.9416 24.0094 29.9416C20.7237 29.9416 18.0605 27.2799 18.0605 23.9971C18.0605 20.7139 20.7237 18.0526 24.0094 18.0526Z" fill="white"/>
<defs>
<radialGradient id="paint0_radial_261_627" cx="0" cy="0" r="1" gradientUnits="userSpaceOnUse" gradientTransform="translate(46.4501 22.4982) rotate(164.25) scale(30.6693 22.0957)">
<stop stop-color="#FF005F"/>
<stop offset="1" stop-color="#FC01D8"/>
</radialGradient>
<radialGradient id="paint1_radial_261_627" cx="0" cy="0" r="1" gradientUnits="userSpaceOnUse" gradientTransform="translate(12.7496 51.697) rotate(-90) scale(38.3145 40.6509)">
<stop stop-color="#FFCC00"/>
<stop offset="0.1242" stop-color="#FFCC00"/>
<stop offset="0.5672" stop-color="#FE4A05"/>
<stop offset="0.6942" stop-color="#FF0F3F"/>
<stop offset="1" stop-color="#FE0657" stop-opacity="0"/>
</radialGradient>
<radialGradient id="paint2_radial_261_627" cx="0" cy="0" r="1" gradientUnits="userSpaceOnUse" gradientTransform="translate(25.2129 47.3231) rotate(-59.8703) scale(15.8434 20.6263)">
<stop stop-color="#FFCC00"/>
<stop offset="1" stop-color="#FFCC00" stop-opacity="0"/>
</radialGradient>
<radialGradient id="paint3_radial_261_627" cx="0" cy="0" r="1" gradientUnits="userSpaceOnUse" gradientTransform="translate(6.51257 1.95455) rotate(164.274) scale(30.3291 10.3331)">
<stop stop-color="#780CFF"/>
<stop offset="1" stop-color="#820BFF" stop-opacity="0"/>
</radialGradient>
</defs>
</svg>
