<svg width="64" height="64" viewBox="0 0 64 64" fill="none" xmlns="http://www.w3.org/2000/svg">
<path d="M21.334 5.33325V13.3333" stroke="#FB8500" stroke-width="3" stroke-miterlimit="10" stroke-linecap="round" stroke-linejoin="round"/>
<path d="M42.666 5.33325V13.3333" stroke="#FB8500" stroke-width="3" stroke-miterlimit="10" stroke-linecap="round" stroke-linejoin="round"/>
<path d="M9.33398 24.24H54.6673" stroke="#FB8500" stroke-width="3" stroke-miterlimit="10" stroke-linecap="round" stroke-linejoin="round"/>
<path d="M56 22.6666V45.3332C56 53.3332 52 58.6666 42.6667 58.6666H21.3333C12 58.6666 8 53.3332 8 45.3332V22.6666C8 14.6666 12 9.33325 21.3333 9.33325H42.6667C52 9.33325 56 14.6666 56 22.6666Z" stroke="#FB8500" stroke-width="3" stroke-miterlimit="10" stroke-linecap="round" stroke-linejoin="round"/>
<path d="M31.9886 35.0333C31.1602 35.0333 30.4886 35.7049 30.4886 36.5333C30.4886 37.3617 31.1602 38.0333 31.9886 38.0333H32.0126C32.841 38.0333 33.5126 37.3617 33.5126 36.5333C33.5126 35.7049 32.841 35.0333 32.0126 35.0333H31.9886Z" stroke="#FB8500" stroke-width="3" stroke-linecap="round" stroke-linejoin="round"/>
<path d="M22.1175 35.0333C21.2891 35.0333 20.6175 35.7049 20.6175 36.5333C20.6175 37.3617 21.2891 38.0333 22.1175 38.0333H22.1415C22.9699 38.0333 23.6415 37.3617 23.6415 36.5333C23.6415 35.7049 22.9699 35.0333 22.1415 35.0333H22.1175Z" stroke="#FB8500" stroke-width="3" stroke-linecap="round" stroke-linejoin="round"/>
<path d="M22.1175 43.0333C21.2891 43.0333 20.6175 43.7049 20.6175 44.5333C20.6175 45.3617 21.2891 46.0333 22.1175 46.0333H22.1415C22.9699 46.0333 23.6415 45.3617 23.6415 44.5333C23.6415 43.7049 22.9699 43.0333 22.1415 43.0333H22.1175Z" stroke="#FB8500" stroke-width="3" stroke-linecap="round" stroke-linejoin="round"/>
</svg>
