<svg width="65" height="64" viewBox="0 0 65 64" fill="none" xmlns="http://www.w3.org/2000/svg">
<g clip-path="url(#clip0_95_1896)">
<path d="M10.4922 62.3521H8.25752C8.04535 62.3521 7.84186 62.4363 7.69183 62.5864C7.54181 62.7364 7.45752 62.9399 7.45752 63.152C7.45752 63.3642 7.54181 63.5677 7.69183 63.7177C7.84186 63.8678 8.04535 63.9521 8.25752 63.9521H10.4922C10.7044 63.9521 10.9078 63.8678 11.0579 63.7177C11.2079 63.5677 11.2922 63.3642 11.2922 63.152C11.2922 62.9399 11.2079 62.7364 11.0579 62.5864C10.9078 62.4363 10.7044 62.3521 10.4922 62.3521Z" fill="#FFB703" stroke="#FFB703" stroke-width="1.4"/>
<path d="M57.2544 0.306645C57.1678 0.222546 57.0641 0.157987 56.9504 0.117312C56.642 0.0305081 56.317 0.020438 56.0038 0.0879786L55.8064 0.111979C55.3824 0.157312 54.9611 0.202645 54.5371 0.253312C54.1131 0.303979 53.6891 0.351979 53.2651 0.407979C52.8411 0.463979 52.4171 0.533312 51.9931 0.578645C51.5691 0.623979 51.1424 0.701312 50.7158 0.765312C50.2891 0.829312 49.8651 0.898645 49.4411 0.970645C49.0171 1.04265 48.5904 1.11731 48.1638 1.19465C47.7371 1.27198 47.3158 1.35465 46.8944 1.43998C46.4731 1.52531 46.0464 1.61331 45.6251 1.70665C45.2038 1.79998 44.7851 1.89331 44.3638 1.99198L43.1078 2.30398C42.6918 2.41331 42.2731 2.52265 41.8598 2.63998C41.4464 2.75731 41.0331 2.87731 40.6198 2.99998C40.2064 3.12265 39.8011 3.25331 39.3931 3.38931C38.9851 3.52531 38.5931 3.65598 38.1771 3.80265C37.7611 3.94931 37.3771 4.09331 36.9744 4.24798C36.5718 4.40265 36.1744 4.55731 35.7851 4.72265C35.3958 4.88798 35.0011 5.05331 34.6118 5.22665C34.2224 5.39998 33.8384 5.57865 33.4571 5.75998C33.0758 5.94131 32.6971 6.13598 32.3238 6.33065L32.1824 6.40265C32.0091 6.49065 31.8331 6.58131 31.6678 6.66931C31.512 6.76532 31.3907 6.90813 31.3211 7.07731L28.6838 13.9386L26.6571 11.0213C26.5928 10.929 26.5101 10.851 26.4142 10.7922C26.3183 10.7334 26.2112 10.6952 26.0998 10.68C26.0001 10.6655 25.8986 10.6714 25.8014 10.6976C25.7042 10.7237 25.6133 10.7695 25.5344 10.832C25.4745 10.8635 25.4204 10.905 25.3744 10.9546C25.2704 11.0426 25.1638 11.1306 25.0571 11.2213C24.8438 11.3946 24.6411 11.5573 24.4491 11.7306C24.1291 11.9973 23.8304 12.264 23.5451 12.5306C23.2598 12.7973 22.9478 13.064 22.6678 13.3573L21.8464 14.1786C21.5584 14.464 21.2864 14.736 21.0171 15.0346C20.7478 15.3333 20.5131 15.616 20.2491 15.9066C20.1291 16.0533 20.0064 16.1973 19.8784 16.3413C19.7504 16.4853 19.6278 16.6346 19.5051 16.784C19.3824 16.9333 19.3051 17.0506 19.2091 17.168C19.0704 17.3466 18.9424 17.5146 18.8144 17.6853C18.5771 18.0026 18.3398 18.32 18.1238 18.616C18.0198 18.7706 17.9131 18.9253 17.8011 19.08C17.6891 19.2346 17.5691 19.408 17.4624 19.5706C17.3558 19.7333 17.2518 19.8986 17.1478 20.0613C17.0438 20.224 16.9558 20.368 16.8544 20.5226C16.6571 20.8186 16.4678 21.1333 16.2651 21.5093C16.0811 21.8266 15.8944 22.1733 15.7104 22.5146C15.5984 22.7093 15.4944 22.912 15.3904 23.1173C15.3211 23.2506 15.2518 23.384 15.1744 23.5306L14.7024 24.5573C14.5531 24.824 14.4358 25.104 14.3184 25.392L14.2198 25.6266C14.1158 25.8666 14.0091 26.1306 13.8998 26.4053L13.8651 26.488C13.8377 26.554 13.8145 26.6217 13.7958 26.6906L13.6998 26.9333C13.5904 27.2 13.4784 27.496 13.3984 27.7733C13.3184 28.0506 13.2091 28.3066 13.1318 28.5733L13.1184 28.6106L14.5344 33.7866L12.0518 32.5333L12.0171 32.704C12.0171 32.704 11.9131 33.2373 11.8598 33.464C11.8117 33.6631 11.7779 33.8654 11.7584 34.0693C11.709 34.254 11.6733 34.442 11.6518 34.632V34.6666C11.5691 35.112 11.5131 35.5413 11.4651 35.8906L11.3078 37.1306C11.2784 37.3413 11.2598 37.5573 11.2384 37.776C11.2171 37.9946 11.2011 38.176 11.1744 38.3867L11.0944 39.656V39.7093C11.0678 40.112 11.0438 40.5253 11.0438 40.928C11.0438 41.3306 11.0171 41.8026 11.0171 42.232V43.5653C11.0171 44.0293 11.0464 44.4986 11.0704 44.8986C11.0704 45.3706 11.0998 45.8613 11.1238 46.256C11.1531 46.7706 11.1771 47.1973 11.2304 47.64C11.2304 47.7546 11.2624 47.944 11.2784 48.1093C11.2944 48.2747 11.3051 48.3546 11.3104 48.416C9.72362 51.2512 8.71398 54.3726 8.33976 57.6C8.33264 57.7026 8.34594 57.8057 8.37889 57.9032C8.41185 58.0007 8.46381 58.0907 8.53176 58.168C8.60799 58.2531 8.70072 58.3218 8.80432 58.3699C8.90793 58.418 9.02023 58.4446 9.13442 58.448C9.33596 58.4486 9.53031 58.3732 9.67863 58.2367C9.82695 58.1003 9.9183 57.9129 9.93442 57.712C10.2834 54.7285 11.2177 51.8431 12.6838 49.2213H12.7398C13.0651 49.2213 13.3424 49.2346 13.6278 49.2373C14.0838 49.2533 14.5291 49.256 14.9798 49.2373H15.6598C15.6598 49.2373 16.1051 49.2187 16.3291 49.2106C16.5531 49.2026 16.7824 49.2106 17.0091 49.184L17.3504 49.1627L18.3318 49.104C18.7504 49.0773 19.1824 49.0506 19.6011 48.9973C20.0198 48.944 20.4784 48.92 20.9078 48.864C21.3371 48.808 21.7078 48.76 22.1504 48.68C22.5131 48.6373 22.9504 48.5786 23.4064 48.4933L24.0144 48.3733C24.2198 48.336 24.4251 48.296 24.6224 48.2533L25.8144 48C26.0011 47.9493 26.1878 47.9066 26.3744 47.8613C26.5611 47.816 26.7958 47.7626 27.0091 47.7066L27.4571 47.5813C27.6864 47.52 27.9238 47.4533 28.1451 47.3893C28.3664 47.3253 28.5744 47.264 28.7824 47.2C28.9904 47.136 29.1184 47.0933 29.2891 47.0453C29.6704 46.92 30.0251 46.792 30.3798 46.664L30.4304 46.6453C30.8011 46.5146 31.1744 46.3787 31.5158 46.248C31.8571 46.1173 32.2091 45.9813 32.6038 45.8C32.9184 45.6773 33.2758 45.5333 33.6704 45.344C33.8438 45.264 34.0171 45.1786 34.2038 45.0906L34.7371 44.824C34.9158 44.728 35.0944 44.6373 35.2704 44.5573C35.4464 44.4773 35.6011 44.392 35.7664 44.2906C35.9318 44.1893 36.1051 44.104 36.2704 44.024C36.4358 43.944 36.6011 43.8373 36.7744 43.744C36.9024 43.672 37.0411 43.5946 37.1558 43.5173C37.3478 43.3973 37.5451 43.2773 37.7611 43.16L38.7158 42.5226C39.0224 42.3173 39.3478 42.1013 39.6411 41.8906C39.8571 41.744 40.0544 41.5946 40.2651 41.432L40.5718 41.1973C40.9184 40.944 41.2224 40.712 41.4784 40.5066L41.9184 40.1306C42.0624 40.0053 42.2091 39.88 42.3584 39.7573L42.6678 39.4906C42.8571 39.3226 43.0358 39.168 43.2011 39C43.3664 38.832 43.4864 38.7333 43.6278 38.6L44.0518 38.2L44.8784 37.3733L45.6784 36.5066C45.8384 36.3466 45.9904 36.1653 46.1371 35.992C46.2384 35.8693 46.3424 35.7466 46.4518 35.6266C46.6331 35.4266 46.8011 35.216 46.9664 35.0106L47.1958 34.7226C47.4411 34.4266 47.6678 34.128 47.8838 33.84L48.0091 33.6746C48.2251 33.3866 48.4411 33.096 48.6678 32.768L48.6944 32.7333C48.7242 32.7103 48.7487 32.6812 48.7664 32.648C48.8279 32.5567 48.8698 32.4538 48.8897 32.3456C48.9095 32.2374 48.9068 32.1263 48.8818 32.0192C48.8568 31.9121 48.8099 31.8113 48.7442 31.7231C48.6785 31.6349 48.5953 31.5612 48.4998 31.5066L45.4358 29.6773L52.1531 26.6C52.3068 26.5084 52.4344 26.379 52.5238 26.224C55.8544 18.2717 57.5608 9.73355 57.5424 1.11198C57.5526 0.965136 57.5322 0.81778 57.4827 0.679183C57.4331 0.540585 57.3554 0.413746 57.2544 0.306645ZM43.3878 28.8533C43.295 28.8893 43.2105 28.9438 43.1394 29.0135C43.0683 29.0832 43.0122 29.1666 42.9744 29.2586C42.8892 29.4644 42.8892 29.6956 42.9744 29.9013C43.0456 30.0473 43.1565 30.1702 43.2944 30.256L46.9291 32.4293C39.4998 42.4853 28.4624 47.584 14.1104 47.584C13.9323 47.5926 13.7537 47.5845 13.5771 47.56C24.0811 29.024 53.9904 4.62665 54.2918 4.37865C54.4312 4.23891 54.5141 4.05253 54.5244 3.85537C54.5348 3.65822 54.4718 3.4642 54.3477 3.31065C54.2236 3.1571 54.0471 3.05486 53.8522 3.0236C53.6573 2.99234 53.4576 3.03426 53.2918 3.14131C52.0864 4.11731 23.8571 27.056 12.7584 45.7786C12.5329 42.1594 12.7118 38.5263 13.2918 34.9466L15.4064 36.0133C15.5236 36.0735 15.6533 36.1055 15.7851 36.1066C15.9614 36.1061 16.1313 36.0406 16.2624 35.9226C16.3845 35.8262 16.4764 35.6969 16.5275 35.55C16.5785 35.4031 16.5865 35.2446 16.5504 35.0933L14.8144 28.7226C16.9254 22.4416 20.7513 16.8763 25.8598 12.656L28.2331 16.1013C28.3203 16.248 28.4548 16.3608 28.6144 16.4213C28.7048 16.4609 28.8024 16.4813 28.9011 16.4813C28.9998 16.4813 29.0974 16.4609 29.1878 16.4213C29.2895 16.3782 29.3815 16.3152 29.4585 16.236C29.5354 16.1568 29.5957 16.0629 29.6358 15.96L32.7158 7.93331C39.9796 4.48076 47.8205 2.40479 55.8411 1.81065C55.7602 9.85597 54.1747 17.8151 51.1664 25.2773L43.3878 28.8533Z" fill="#FFB703" stroke="#FFB703" stroke-width="1.4"/>
</g>
<defs>
<clipPath id="clip0_95_1896">
<rect width="64" height="64" fill="white" transform="translate(0.5)"/>
</clipPath>
</defs>
</svg>
