<svg width="36" height="36" viewBox="0 0 36 36" fill="none" xmlns="http://www.w3.org/2000/svg">
<g clip-path="url(#clip0_126_4446)">
<path d="M30.633 30.3316H25.3058V22.0712C25.3058 20.1015 25.2703 17.5658 22.5352 17.5658C19.7606 17.5658 19.3361 19.7119 19.3361 21.9278V30.3311H14.0089V13.3444H19.123V15.6658H19.1946C19.7064 14.7993 20.4459 14.0865 21.3345 13.6033C22.2231 13.1201 23.2274 12.8846 24.2404 12.9218C29.6397 12.9218 30.6352 16.4383 30.6352 21.013L30.633 30.3316ZM7.99809 11.0224C7.38666 11.0225 6.78892 10.8431 6.28048 10.5068C5.77204 10.1706 5.37574 9.69259 5.14166 9.13331C4.90758 8.57404 4.84623 7.95859 4.9654 7.3648C5.08458 6.771 5.37892 6.22554 5.81119 5.79738C6.24345 5.36922 6.79424 5.07759 7.39389 4.95937C7.99355 4.84116 8.61513 4.90166 9.18006 5.13324C9.74498 5.36482 10.2279 5.75706 10.5676 6.26038C10.9074 6.76369 11.0889 7.35547 11.089 7.96088C11.089 8.36285 11.0091 8.7609 10.8538 9.1323C10.6985 9.5037 10.4709 9.84118 10.1839 10.1255C9.89689 10.4098 9.55611 10.6353 9.18107 10.7892C8.80603 10.9431 8.40406 11.0223 7.99809 11.0224ZM10.6617 30.3316H5.32896V13.3444H10.6617V30.3316ZM33.2888 0.00212018H2.65207C1.9567 -0.00564976 1.28663 0.260248 0.789159 0.741384C0.291687 1.22252 0.00751002 1.87953 -0.000976562 2.56804V33.0289C0.00721956 33.7177 0.29123 34.3752 0.788684 34.8568C1.28614 35.3385 1.95635 35.6049 2.65207 35.5976H33.2888C33.9859 35.6062 34.658 35.3406 35.1574 34.8589C35.6568 34.3773 35.9427 33.7191 35.9524 33.0289V2.56584C35.9425 1.87597 35.6563 1.21821 35.1569 0.737085C34.6575 0.255961 33.9856 -0.00917715 33.2888 -7.85024e-05" fill="#0A66C2"/>
</g>
<defs>
<clipPath id="clip0_126_4446">
<rect width="36" height="36" fill="white"/>
</clipPath>
</defs>
</svg>
