<svg width="59" height="64" viewBox="0 0 59 64" fill="none" xmlns="http://www.w3.org/2000/svg">
<mask id="mask0_145_1006" style="mask-type:luminance" maskUnits="userSpaceOnUse" x="0" y="28" width="9" height="3">
<path d="M0 28.1556H8.71137V30.68H0V28.1556Z" fill="white"/>
</mask>
<g mask="url(#mask0_145_1006)">
<mask id="mask1_145_1006" style="mask-type:luminance" maskUnits="userSpaceOnUse" x="0" y="28" width="9" height="3">
<path d="M4.42489 28.1723C5.38629 28.1703 6.34736 28.1508 7.30774 28.1764C8.20428 28.2 8.7082 28.6714 8.71127 29.4202C8.71571 30.175 8.21862 30.6574 7.32618 30.6677L1.36792 30.6728C0.584389 30.6697 0.0811538 30.3003 0.0142378 29.4878C-0.0451672 28.7537 0.491868 28.2112 1.34949 28.1815C2.37303 28.1457 3.39998 28.1733 4.42489 28.1723Z" fill="white"/>
</mask>
<g mask="url(#mask1_145_1006)">
<path d="M0.0107422 28.1631H8.71221V30.6799H0.0107422V28.1631Z" fill="#FB8500"/>
</g>
</g>
<mask id="mask2_145_1006" style="mask-type:luminance" maskUnits="userSpaceOnUse" x="23" y="54" width="13" height="4">
<path d="M23.6079 54.7438H35.1793V57.1248H23.6079V54.7438Z" fill="white"/>
</mask>
<g mask="url(#mask2_145_1006)">
<mask id="mask3_145_1006" style="mask-type:luminance" maskUnits="userSpaceOnUse" x="23" y="54" width="13" height="4">
<path d="M29.3059 57.1209L25.0277 57.1179C24.1055 57.1097 23.6167 56.6856 23.6177 55.9461C23.6187 55.2077 24.1178 54.756 25.0246 54.7519L33.763 54.757C34.6861 54.7621 35.1771 55.2036 35.1781 55.942C35.1781 56.6815 34.6872 57.1086 33.7671 57.1179L29.3069 57.1219" fill="white"/>
</mask>
<g mask="url(#mask3_145_1006)">
<path d="M23.6177 54.7437H35.1798V57.1247H23.6177V54.7437Z" fill="#219EBC"/>
</g>
</g>
<mask id="mask4_145_1006" style="mask-type:luminance" maskUnits="userSpaceOnUse" x="24" y="58" width="10" height="3">
<path d="M24.9468 58.1714H33.8483V60.5552H24.9468V58.1714Z" fill="white"/>
</mask>
<g mask="url(#mask4_145_1006)">
<mask id="mask5_145_1006" style="mask-type:luminance" maskUnits="userSpaceOnUse" x="24" y="58" width="10" height="3">
<path d="M29.4309 58.1797L32.7266 58.1828C33.4647 58.1889 33.8621 58.6379 33.8457 59.4142C33.8303 60.1534 33.4626 60.5456 32.7276 60.5487L26.0657 60.5497C25.3149 60.5456 24.9267 60.1052 24.9476 59.3237C24.966 58.5945 25.3532 58.1838 26.0657 58.1776L29.4309 58.1746V58.1797Z" fill="white"/>
</mask>
<g mask="url(#mask5_145_1006)">
<path d="M24.9463 58.1714H33.8478V60.5552H24.9463V58.1714Z" fill="#219EBC"/>
</g>
</g>
<mask id="mask6_145_1006" style="mask-type:luminance" maskUnits="userSpaceOnUse" x="27" y="61" width="5" height="3">
<path d="M27.1724 61.6077H31.6124V64H27.1724V61.6077Z" fill="white"/>
</mask>
<g mask="url(#mask6_145_1006)">
<mask id="mask7_145_1006" style="mask-type:luminance" maskUnits="userSpaceOnUse" x="27" y="61" width="5" height="3">
<path d="M29.4015 63.9809C28.957 63.9799 28.5101 64.0085 28.0666 63.9727C27.5276 63.9307 27.1711 63.5415 27.1814 62.7754C27.1916 62.0195 27.5327 61.6221 28.0871 61.6149H30.6904C31.2451 61.619 31.5715 62.0052 31.6094 62.7621C31.6456 63.4705 31.2769 63.9409 30.6689 63.9768L29.4005 63.9809" fill="white"/>
</mask>
<g mask="url(#mask7_145_1006)">
<path d="M27.1812 61.6077H31.6119V63.9908H27.1812V61.6077Z" fill="#219EBC"/>
</g>
</g>
<mask id="mask8_145_1006" style="mask-type:luminance" maskUnits="userSpaceOnUse" x="28" y="0" width="3" height="9">
<path d="M28.1265 0H30.6611V8.75268H28.1265V0Z" fill="white"/>
</mask>
<g mask="url(#mask8_145_1006)">
<mask id="mask9_145_1006" style="mask-type:luminance" maskUnits="userSpaceOnUse" x="28" y="0" width="3" height="9">
<path d="M28.1411 4.37136L28.1452 1.38608C28.1647 0.531537 28.6863 -0.0444181 29.4112 0.0037205C30.2114 0.0562973 30.6324 0.535634 30.6375 1.32838L30.6395 7.39555C30.6354 8.18625 30.2268 8.67515 29.4228 8.72772C28.6843 8.77586 28.1677 8.21937 28.1473 7.35663L28.1411 4.37136Z" fill="white"/>
</mask>
<g mask="url(#mask9_145_1006)">
<path d="M7.70312 -0.512817H59.2919V53.5379H7.70312V-0.512817Z" fill="#FB8500"/>
</g>
</g>
<mask id="mask10_145_1006" style="mask-type:luminance" maskUnits="userSpaceOnUse" x="50" y="28" width="9" height="3">
<path d="M50.064 28.1556H58.804V30.6902H50.064V28.1556Z" fill="white"/>
</mask>
<g mask="url(#mask10_145_1006)">
<mask id="mask11_145_1006" style="mask-type:luminance" maskUnits="userSpaceOnUse" x="50" y="28" width="9" height="3">
<path d="M54.3412 30.6721L51.4587 30.667C50.5642 30.6454 50.0559 30.1794 50.0804 29.4225C50.1074 28.5946 50.6195 28.1972 51.3856 28.1859C53.4027 28.1552 55.4218 28.1501 57.4385 28.1777C58.294 28.189 58.8454 28.7592 58.7778 29.4881C58.7037 30.2931 58.1974 30.6659 57.4159 30.6731L54.3412 30.6751V30.6721Z" fill="white"/>
</mask>
<g mask="url(#mask11_145_1006)">
<path d="M7.70312 -0.512817H59.2919V53.5379H7.70312V-0.512817Z" fill="#FB8500"/>
</g>
</g>
<mask id="mask12_145_1006" style="mask-type:luminance" maskUnits="userSpaceOnUse" x="43" y="8" width="8" height="8">
<path d="M43.6001 8.20508H50.5744V15.2203H43.6001V8.20508Z" fill="white"/>
</mask>
<g mask="url(#mask12_145_1006)">
<mask id="mask13_145_1006" style="mask-type:luminance" maskUnits="userSpaceOnUse" x="43" y="8" width="8" height="8">
<path d="M44.9892 15.18C44.3924 15.1459 44.0134 14.9264 43.7908 14.4959C43.5495 14.0278 43.5587 13.5245 43.9264 13.1476C45.448 11.5867 46.9762 10.0309 48.5525 8.52531C49.0567 8.04358 49.7057 8.14532 50.1926 8.6547C50.6477 9.13233 50.7214 9.75984 50.2749 10.2269C48.7477 11.826 47.1704 13.3757 45.5921 14.9243C45.4255 15.0875 45.1329 15.1223 44.9892 15.18Z" fill="white"/>
</mask>
<g mask="url(#mask13_145_1006)">
<path d="M7.70361 -0.512756H59.2924V53.538H7.70361V-0.512756Z" fill="#FB8500"/>
</g>
</g>
<mask id="mask14_145_1006" style="mask-type:luminance" maskUnits="userSpaceOnUse" x="8" y="8" width="8" height="8">
<path d="M8.19922 8.20508H15.1902V15.2203H8.19922V8.20508Z" fill="white"/>
</mask>
<g mask="url(#mask14_145_1006)">
<mask id="mask15_145_1006" style="mask-type:luminance" maskUnits="userSpaceOnUse" x="8" y="8" width="8" height="8">
<path d="M15.146 13.9128C15.1245 14.3696 14.9323 14.7557 14.5062 15.0001C14.0402 15.2682 13.5349 15.2733 13.16 14.9076C11.5991 13.387 10.0495 11.8527 8.54489 10.2764C8.07135 9.78036 8.11779 9.13237 8.62205 8.62913C9.12323 8.12897 9.75757 8.06513 10.2629 8.55095C11.8115 10.0391 13.313 11.5765 14.8299 13.0971C15.0443 13.3129 15.105 13.5973 15.145 13.9128" fill="white"/>
</mask>
<g mask="url(#mask15_145_1006)">
<path d="M7.70312 -0.512817H59.2919V53.5379H7.70312V-0.512817Z" fill="#FB8500"/>
</g>
</g>
<mask id="mask16_145_1006" style="mask-type:luminance" maskUnits="userSpaceOnUse" x="15" y="12" width="28" height="12">
<path d="M15.4536 12.2487H42.1108V23.7855H15.4536V12.2487Z" fill="white"/>
</mask>
<g mask="url(#mask16_145_1006)">
<mask id="mask17_145_1006" style="mask-type:luminance" maskUnits="userSpaceOnUse" x="15" y="12" width="28" height="12">
<path d="M42.1007 17.7255C42.0727 17.6549 41.9371 17.631 41.6988 17.6269C41.4609 17.6228 41.127 17.6364 40.6906 17.6467C40.254 17.6569 39.7159 17.6692 39.072 17.6897C38.3697 17.7132 37.7054 17.7532 37.086 17.8518C36.4678 17.9505 35.8454 18.0799 35.224 18.2513C34.6009 18.423 33.9673 18.6221 33.3254 18.8511C32.6836 19.0802 32.0079 19.2926 31.3186 19.4797C30.6297 19.6675 29.9076 19.8081 29.1568 19.8894C28.4054 19.9716 27.5826 19.9447 26.7141 19.8204C26.0712 19.7282 25.5905 19.5855 25.2846 19.3923C24.9773 19.1984 24.767 18.9959 24.6622 18.7842C24.5267 18.5111 24.5017 18.2175 24.5758 17.9095C24.6499 17.6033 24.808 17.2923 25.0463 16.9717C25.1477 16.8331 25.3122 16.6648 25.5369 16.4644C25.7598 16.2663 26.034 16.0731 26.3556 15.8915C26.6769 15.7098 27.0466 15.5473 27.4655 15.4108C27.8848 15.2742 28.3508 15.1851 28.8499 15.1694C29.2596 15.1551 29.6222 15.1953 29.9219 15.266C30.221 15.335 30.4788 15.4261 30.6922 15.535C30.9049 15.6429 31.0916 15.758 31.248 15.8812L31.7717 16.1984C32.2841 16.476 32.9373 16.6576 33.7157 16.7552C34.4931 16.8525 35.2971 16.8846 36.1072 16.8703C36.9167 16.8556 37.6815 16.8054 38.3892 16.7522C39.0966 16.6986 39.6463 16.6484 40.0549 16.6125C40.4626 16.5774 40.6937 16.5559 40.7736 16.5169C40.8538 16.478 40.7009 16.405 40.3332 16.2121C40.0519 16.0629 39.6739 15.8567 39.1942 15.5866C38.7146 15.3165 38.1704 14.999 37.5531 14.6539C36.9331 14.308 36.2633 13.9485 35.5282 13.6126C34.7938 13.276 34.0185 12.9502 33.2503 12.7543C31.8147 12.3866 30.2835 12.1442 28.7564 12.3135C27.0425 12.5068 25.3204 13.0417 23.8189 13.8611C22.5475 14.5555 21.2939 15.3391 20.1034 16.1933C19.0518 16.9481 18.1533 17.6033 17.4305 18.1434C16.7074 18.6849 16.1591 19.0935 15.8242 19.4551C15.4896 19.8163 15.3807 20.1225 15.5531 20.4735C15.7248 20.8238 16.199 21.2017 17.0136 21.6329C17.8279 22.0645 18.973 22.5366 20.4424 22.9518C22.1781 23.4404 24.0122 23.7169 25.7834 23.7084C27.4884 23.7002 29.1725 23.5656 30.8123 23.228C32.4115 22.8992 33.9652 22.3612 35.5456 21.7572C36.2305 21.4759 36.9031 21.1577 37.5551 20.8146C38.2072 20.4715 38.8184 20.1236 39.3865 19.7794C39.9542 19.4353 40.4493 19.112 40.8733 18.8184C41.2973 18.5244 41.6046 18.2865 41.8077 18.1127C42.0317 17.9198 42.1293 17.7986 42.1007 17.7265" fill="white"/>
</mask>
<g mask="url(#mask17_145_1006)">
<path d="M7.70361 -0.512817H59.2924V53.5379H7.70361V-0.512817Z" fill="#FFB703"/>
</g>
</g>
<mask id="mask18_145_1006" style="mask-type:luminance" maskUnits="userSpaceOnUse" x="12" y="20" width="34" height="20">
<path d="M12.7441 20.8204H45.7815V39.0766H12.7441V20.8204Z" fill="white"/>
</mask>
<g mask="url(#mask18_145_1006)">
<mask id="mask19_145_1006" style="mask-type:luminance" maskUnits="userSpaceOnUse" x="12" y="20" width="34" height="20">
<path d="M45.6772 24.7982C45.5765 24.1942 45.4225 23.6592 45.2306 23.1918C45.0364 22.7258 44.8425 22.354 44.6646 22.0696C44.486 21.7852 44.218 21.5336 43.8626 21.3138C43.5072 21.0929 43.0668 20.9532 42.5502 20.8805C42.0347 20.8085 41.4287 20.8382 40.7357 20.9409C40.0416 21.0458 39.2509 21.2789 38.3376 21.6023C37.9866 21.7224 37.579 21.8815 37.1085 22.0727L35.6555 22.6661C35.1564 22.8716 34.6972 23.0679 34.2803 23.2639C33.8614 23.4612 33.5511 23.6326 33.3551 23.7886C33.084 24.0044 33.0181 24.2663 33.1694 24.5763C33.3193 24.8856 33.5801 25.2222 33.957 25.5817C34.3339 25.9422 34.7856 26.3099 35.3114 26.6814C35.8371 27.0532 36.3199 27.4188 36.748 27.7793C37.1765 28.1409 37.4926 28.4898 37.693 28.8278C37.8941 29.1648 37.8747 29.4768 37.6446 29.7561C37.3878 30.0675 37.0604 30.2573 36.662 30.317C36.2612 30.3764 35.8279 30.3631 35.3595 30.2737C34.8914 30.1846 34.4087 30.0415 33.9137 29.8425C33.4196 29.6451 32.9639 29.4348 32.5531 29.218C32.1414 29.0012 31.785 28.7991 31.4873 28.6161C31.1882 28.4314 31.0035 28.3164 30.9304 28.2734C30.5699 28.0883 30.1356 27.8729 29.6355 27.6182C29.1353 27.3635 28.5829 27.1068 27.9871 26.8377C27.3907 26.5687 26.754 26.3058 26.0804 26.0375C25.4064 25.7685 24.7134 25.5295 23.9947 25.3127C23.2757 25.0938 22.5291 24.9194 21.7394 24.7859C20.9487 24.6514 20.1293 24.5896 19.2563 24.6196C18.2973 24.6514 17.3902 24.7838 16.536 25.0477C15.6814 25.3127 15.0181 25.637 14.5684 26.0334C14.1185 26.4301 13.6996 27.002 13.3626 27.7548C13.027 28.5086 12.8092 29.3556 12.758 30.2839C12.7044 31.2112 12.8245 32.1767 13.1328 33.149C13.4397 34.1237 13.9512 35.0244 14.6237 35.8325C15.2963 36.6406 16.1345 37.3258 17.0843 37.8823C18.0331 38.4378 19.058 38.7901 20.1191 38.9502C20.8572 39.054 21.6253 39.0837 22.4222 39.0407C23.2204 38.9956 23.9626 38.8601 24.656 38.6494C25.684 38.3384 26.3771 37.9687 26.7263 37.5539C27.0773 37.1408 27.2159 36.7034 27.136 36.2422C27.0568 35.7813 26.8287 35.3016 26.4491 34.7973C26.0712 34.2941 25.6663 33.7888 25.2381 33.2941C24.81 32.7991 24.4269 32.3153 24.0879 31.8489C23.7492 31.3829 23.5888 30.9548 23.555 30.626C23.5447 30.5151 23.554 30.3447 23.6055 30.1279C23.6567 29.9111 23.8066 29.7602 24.05 29.6721C24.2368 29.6288 24.428 29.637 24.627 29.6967L25.1869 29.9268C25.3604 30.018 25.5205 30.1125 25.6652 30.2061C25.8083 30.3013 25.9179 30.3682 25.9889 30.4082C26.2856 30.6209 26.6707 30.9012 27.1545 31.2453C27.6372 31.5891 28.1824 31.9476 28.7884 32.3143L30.6706 33.4174C31.3186 33.7796 31.9717 34.092 32.6218 34.3549C33.2718 34.6178 33.885 34.8199 34.4579 34.9691C35.0311 35.1189 35.5374 35.1886 35.9696 35.1732C36.5541 35.1527 37.2 35.0551 37.8859 34.896C38.5718 34.7369 39.2488 34.514 39.9132 34.2224C40.7736 33.8445 41.5438 33.3955 42.2187 32.8947C42.9507 32.3501 43.5711 31.7352 44.0743 31.0562C44.5765 30.3785 44.977 29.6752 45.2542 28.9511C45.5314 28.2269 45.7008 27.4909 45.7503 26.776C45.8015 26.0614 45.7738 25.3991 45.6711 24.7941" fill="white"/>
</mask>
<g mask="url(#mask19_145_1006)">
<path d="M7.70361 -0.512817H59.2924V53.5379H7.70361V-0.512817Z" fill="#FFB703"/>
</g>
</g>
<mask id="mask20_145_1006" style="mask-type:luminance" maskUnits="userSpaceOnUse" x="17" y="32" width="30" height="22">
<path d="M17.8135 32.5256H46.0616V53.0251H17.8135V32.5256Z" fill="white"/>
</mask>
<g mask="url(#mask20_145_1006)">
<mask id="mask21_145_1006" style="mask-type:luminance" maskUnits="userSpaceOnUse" x="17" y="32" width="30" height="22">
<path d="M46.0029 32.6748C45.8684 31.7783 39.8094 35.6755 37.0512 36.8851C35.6142 37.5146 33.7853 37.9871 32.3609 38.2951L27.3497 39.054C26.9448 39.1148 26.5361 39.1804 26.1285 39.2504L26.1275 39.2442C26.1275 39.2442 18.7418 39.7567 17.9398 40.2886C17.4335 40.6252 19.0829 42.591 19.2983 42.9123C20.653 44.9386 21.3727 47.2656 22.1832 49.5411C22.7264 51.0682 23.7151 52.2573 25.3071 52.7268C25.797 52.8705 26.2937 52.961 26.7949 53.0163C27.6484 53.1098 28.3517 52.3529 28.1824 51.5107C27.8949 50.0802 27.7502 48.1321 27.6853 47.6917C27.4603 46.1512 27.094 44.2677 28.2616 42.9966C29.3531 41.8061 31.2397 41.5784 32.7644 41.6491C33.6098 41.6884 35.2489 41.7498 35.6852 42.6279C36.3291 43.9218 34.5667 45.5702 33.7965 46.4192L33.7289 46.4933C32.392 47.7214 30.644 47.6227 29.5419 47.394C29.0994 47.3014 28.7676 47.7883 29.01 48.1703C29.618 49.1283 30.8348 50.3547 33.0365 50.2178C35.7613 50.0474 37.8685 47.8037 39.3564 45.7211C41.0951 43.2861 43.2156 41.0619 44.4829 38.3187C45.2163 36.7301 46.274 34.4863 46.0029 32.6748Z" fill="white"/>
</mask>
<g mask="url(#mask21_145_1006)">
<path d="M7.70361 -0.512817H59.2924V53.5379H7.70361V-0.512817Z" fill="#FFB703"/>
</g>
</g>
</svg>
