<svg width="75" height="68" viewBox="0 0 75 68" fill="none" xmlns="http://www.w3.org/2000/svg">
<g clip-path="url(#clip0_153_1056)">
<path d="M30.3198 20.9375L33.6492 20.1124L36.9245 19.0939C37.5855 18.8703 38.2165 18.5663 38.8033 18.1888L60.3851 3.55408C60.4796 3.47096 60.5948 3.41483 60.7185 3.3916C60.8422 3.36836 60.9699 3.37888 61.0881 3.42205C61.2063 3.46521 61.3108 3.53942 61.3904 3.63689C61.47 3.73436 61.5219 3.85148 61.5407 3.97595L72.1161 41.8629C72.1847 42.1576 72.1638 42.4661 72.0561 42.7488C71.9485 43.0316 71.7589 43.2758 71.5116 43.4502L50.2336 57.149C49.6371 57.5112 48.9979 57.798 48.3307 58.0026L40.7115 60.1294C40.0347 60.2997 39.3395 60.3854 38.6416 60.3846L13.3449 59.6863C13.0431 59.6648 12.7546 59.554 12.5161 59.368C12.2776 59.1819 12.0999 58.929 12.0057 58.6415L1.43033 20.7546C1.38156 20.6382 1.36514 20.5107 1.38279 20.3858C1.40045 20.2608 1.45153 20.1429 1.53064 20.0446C1.60974 19.9463 1.71394 19.8711 1.83222 19.8271C1.9505 19.7831 2.07847 19.7719 2.20262 19.7946L28.2416 21.1368C28.9399 21.1555 29.6378 21.0885 30.3198 20.9375Z" fill="#EA4811"/>
<path d="M3.65924 21.5484L13.694 57.4985L39.8834 58.4326C39.8834 58.4326 39.9597 55.761 43.343 54.8166C46.7264 53.8722 48.6747 55.9787 48.6747 55.9787L69.9576 41.7936L59.9316 5.83135L56.6798 5.19684C42.2875 10.1016 38.8139 20.5305 36.847 21.5281C36.017 21.9418 35.1508 22.2785 34.2593 22.5341C33.0472 22.8953 31.7993 23.1233 30.5378 23.214C25.0995 15.9711 7.29204 20.0469 7.29204 20.0469L3.65924 21.5484Z" fill="#E8EAE6"/>
<path d="M9.77292 19.5895C9.77292 19.5895 24.9496 11.9439 33.5019 22.7502L43.3376 54.8253C43.3376 54.8253 33.4726 50.3311 18.7038 51.8541L9.77292 19.5895Z" fill="#DDDDDD"/>
<path d="M56.6785 5.19681L66.5569 40.5868C66.5569 40.5868 59.6067 42.0612 44.1188 54.6555C43.9202 54.8127 43.5475 54.6937 43.3369 54.8252L34.3762 22.5059C34.3762 22.5059 39.2739 8.23149 56.6785 5.19681Z" fill="url(#paint0_linear_153_1056)"/>
<path d="M54.0531 4.78555L63.865 39.9371C63.865 39.9371 55.0068 41.4737 43.3362 54.8259L34.2595 22.5341C34.2595 22.5341 36.9854 7.72379 54.0531 4.78555Z" fill="url(#paint1_linear_153_1056)"/>
<path d="M51.2205 3.61942C51.2205 3.61942 36.0971 8.83256 34.3779 22.5059L43.3386 54.8252C43.3386 54.8252 47.7176 44.5825 61.1396 38.2342L51.2205 3.61942Z" fill="url(#paint2_linear_153_1056)"/>
<path d="M44.1199 54.6554C47.4284 54.4593 48.6764 55.9854 48.6764 55.9854L69.9574 41.7935L66.556 40.597C66.556 40.597 58.7642 42.2966 44.1199 54.6554Z" fill="url(#paint3_linear_153_1056)"/>
<path d="M43.338 54.8252C40.0041 55.7557 39.8832 58.4326 39.8832 58.4326L13.6938 57.4984L16.9555 54.6675C16.9555 54.6675 28.2708 51.1793 43.338 54.8252Z" fill="url(#paint4_linear_153_1056)"/>
<path d="M10.3925 16.2475C10.3925 16.2475 25.7099 11.7295 34.265 22.5374L43.3381 54.8253C43.3381 54.8253 34.203 47.1084 19.4313 48.6298L10.3925 16.2475Z" fill="#F4F4F4"/>
<path d="M16.9538 54.6631L7.02238 20.0299L3.65865 21.5483L13.6915 57.4917L16.9538 54.6631Z" fill="#DDDDDD"/>
</g>
<defs>
<linearGradient id="paint0_linear_153_1056" x1="62.6092" y1="26.4439" x2="37.3804" y2="33.486" gradientUnits="userSpaceOnUse">
<stop stop-color="#E0E0E0"/>
<stop offset="0.33" stop-color="#CCCBCB"/>
<stop offset="0.72" stop-color="#BBBABA"/>
<stop offset="1" stop-color="#B5B4B4"/>
</linearGradient>
<linearGradient id="paint1_linear_153_1056" x1="60.1239" y1="26.5342" x2="37.1649" y2="32.9428" gradientUnits="userSpaceOnUse">
<stop stop-color="#E0E0E0"/>
<stop offset="1" stop-color="#BDBCBC"/>
</linearGradient>
<linearGradient id="paint2_linear_153_1056" x1="57.8041" y1="26.2846" x2="36.9935" y2="32.0935" gradientUnits="userSpaceOnUse">
<stop stop-color="#EFEFEF"/>
<stop offset="1" stop-color="#D6D5D5"/>
</linearGradient>
<linearGradient id="paint3_linear_153_1056" x1="70.7467" y1="44.6212" x2="43.4461" y2="52.2416" gradientUnits="userSpaceOnUse">
<stop stop-color="#E0E0E0"/>
<stop offset="0.03" stop-color="#DEDDDD"/>
<stop offset="0.41" stop-color="#C2C1C1"/>
<stop offset="0.75" stop-color="#B1B0B0"/>
<stop offset="1" stop-color="#ABAAAA"/>
</linearGradient>
<linearGradient id="paint4_linear_153_1056" x1="42.7063" y1="52.5621" x2="14.5126" y2="60.4318" gradientUnits="userSpaceOnUse">
<stop stop-color="#B8B7B7"/>
<stop offset="1" stop-color="#D1D1D1"/>
</linearGradient>
<clipPath id="clip0_153_1056">
<rect width="62.4081" height="51.5946" fill="white" transform="matrix(-0.963181 0.268853 0.268853 0.963181 60.7002 0.972778)"/>
</clipPath>
</defs>
</svg>
