<svg width="145" height="96" viewBox="0 0 145 96" fill="none" xmlns="http://www.w3.org/2000/svg">
<path d="M93.2036 36.6126L99.4054 55.5825C99.8462 56.9304 101.506 57.412 102.6 56.5091L121.122 41.2191C121.122 41.2191 101.439 33.5416 101.439 33.9604C101.439 34.3791 93.2036 36.6126 93.2036 36.6126Z" fill="#FB8500"/>
<path d="M142.073 0.15342C129.977 4.93784 90.9341 20.9365 76.157 26.9987C74.2058 27.7989 74.3229 30.5979 76.3318 31.2381L93.2038 36.6125L99.3862 55.5227C99.6347 56.283 100.263 56.7734 100.963 56.9053C101.532 57.0121 102.371 41.5918 102.371 41.5918C102.371 41.5918 120.107 54.7455 128.521 60.958C130.594 62.4884 133.553 61.3374 134.044 58.8084C136.55 45.892 142.817 13.5955 144.959 2.55406C145.281 0.893296 143.645 -0.468344 142.073 0.15342Z" fill="#FFB703"/>
<path d="M100.963 56.9047C101.531 57.0116 102.37 41.5912 102.37 41.5912L131.509 14.2208C131.706 14.0357 131.471 13.7238 131.239 13.8623L93.2031 36.6125L99.3855 55.5226C99.6345 56.2829 100.262 56.7733 100.963 56.9047Z" fill="#FB6400"/>
<path d="M0 94.0379C20.0141 93.9765 46.619 82.6907 51.9593 61.0199C54.1145 52.2748 52.1986 42.9044 45.2671 36.5216C36.5077 28.4555 26.8903 35.8262 29.2567 47.0839C33.1442 65.5778 55.7313 79.2725 72.8988 79.4663C82.821 79.5783 92.13 74.8205 95.697 65.0977" stroke="#FFB703" stroke-width="3" stroke-miterlimit="10" stroke-dasharray="8 8"/>
</svg>
