<svg width="64" height="64" viewBox="0 0 64 64" fill="none" xmlns="http://www.w3.org/2000/svg">
<path d="M24.4268 28.9867C24.1602 28.96 23.8402 28.96 23.5468 28.9867C17.2002 28.7733 12.1602 23.5733 12.1602 17.1733C12.1602 10.64 17.4402 5.33334 24.0002 5.33334C30.5335 5.33334 35.8402 10.64 35.8402 17.1733C35.8135 23.5733 30.7735 28.7733 24.4268 28.9867Z" stroke="#FFB703" stroke-width="3.5" stroke-linecap="round" stroke-linejoin="round"/>
<path d="M43.7607 10.6667C48.9341 10.6667 53.0941 14.8533 53.0941 20C53.0941 25.04 49.0941 29.1467 44.1074 29.3333C43.8941 29.3067 43.6541 29.3067 43.4141 29.3333" stroke="#FFB703" stroke-width="3.5" stroke-linecap="round" stroke-linejoin="round"/>
<path d="M11.0939 38.8267C4.64057 43.1467 4.64057 50.1867 11.0939 54.48C18.4272 59.3867 30.4539 59.3867 37.7872 54.48C44.2406 50.16 44.2406 43.12 37.7872 38.8267C30.4806 33.9467 18.4539 33.9467 11.0939 38.8267Z" stroke="#FFB703" stroke-width="3.5" stroke-linecap="round" stroke-linejoin="round"/>
<path d="M48.9062 53.3333C50.8263 52.9333 52.6396 52.16 54.1329 51.0133C58.2929 47.8933 58.2929 42.7467 54.1329 39.6267C52.6662 38.5067 50.8796 37.76 48.9863 37.3333" stroke="#FFB703" stroke-width="3.5" stroke-linecap="round" stroke-linejoin="round"/>
</svg>
