<svg width="36" height="36" viewBox="0 0 36 36" fill="none" xmlns="http://www.w3.org/2000/svg">
<path d="M14.988 8.38675C14.0796 7.87893 13.0799 7.55512 12.0463 7.43384C11.0127 7.31256 9.96527 7.3962 8.96397 7.67995C8.85082 7.71423 8.74554 7.77045 8.65412 7.84542C8.5627 7.92038 8.48694 8.01262 8.43117 8.11686C8.3754 8.22111 8.34071 8.33531 8.32908 8.45297C8.31744 8.57062 8.3291 8.68941 8.36337 8.80255C8.43259 9.03106 8.58975 9.22272 8.80028 9.33535C8.90453 9.39112 9.01873 9.42581 9.13638 9.43745C9.25403 9.44908 9.37282 9.43743 9.48597 9.40315C11.0286 8.97486 12.6776 9.16919 14.0784 9.94435C14.1803 10.0042 14.293 10.0434 14.4101 10.0596C14.5272 10.0758 14.6463 10.0688 14.7607 10.0389C14.875 10.0091 14.9824 9.95693 15.0766 9.88552C15.1708 9.8141 15.2499 9.72481 15.3096 9.62275C15.3699 9.52055 15.4094 9.40744 15.4258 9.28992C15.4423 9.1724 15.4354 9.05279 15.4055 8.93795C15.3756 8.82311 15.3234 8.7153 15.2517 8.62071C15.1801 8.52612 15.0904 8.44661 14.988 8.38675Z" fill="#FFB703"/>
<path d="M21.4682 10.0644C21.6274 10.0657 21.784 10.0242 21.9218 9.94439C23.3243 9.16816 24.9751 8.97258 26.5202 9.39959C26.7422 9.44916 26.9748 9.41279 27.1711 9.29782C27.3674 9.18284 27.5129 8.99778 27.5783 8.77988C27.6437 8.56198 27.6241 8.32739 27.5235 8.12333C27.423 7.91927 27.2488 7.76086 27.0362 7.67999C25.0134 7.10907 22.8467 7.36459 21.0122 8.39039C20.8408 8.49018 20.7071 8.64372 20.6319 8.8272C20.5566 9.01069 20.544 9.21387 20.5959 9.40527C20.6479 9.59666 20.7615 9.76558 20.9192 9.88583C21.0769 10.0061 21.2699 10.071 21.4682 10.0704V10.0644Z" fill="#FFB703"/>
<path d="M21.4681 17.4972C21.6272 17.498 21.7837 17.4566 21.9217 17.3772C23.3226 16.6028 24.9713 16.4081 26.5141 16.8348C26.6281 16.8727 26.7486 16.8873 26.8684 16.8779C26.9882 16.8684 27.1049 16.8351 27.2116 16.7798C27.3184 16.7245 27.4129 16.6485 27.4897 16.556C27.5666 16.4636 27.6241 16.3568 27.659 16.2418C27.6939 16.1267 27.7053 16.0059 27.6927 15.8864C27.6802 15.7669 27.6438 15.6511 27.5857 15.5459C27.5276 15.4407 27.4491 15.3481 27.3547 15.2737C27.2603 15.1994 27.152 15.1446 27.0361 15.1128C26.0346 14.8291 24.987 14.7458 23.9533 14.8677C22.9196 14.9896 21.9201 15.3143 21.0121 15.8232C20.8398 15.9224 20.7051 16.0759 20.6292 16.2596C20.5533 16.4434 20.5404 16.6471 20.5925 16.839C20.6445 17.0309 20.7587 17.2001 20.9171 17.3203C21.0755 17.4404 21.2693 17.5048 21.4681 17.5032V17.4972Z" fill="#FFB703"/>
<path d="M21.4681 24.93C21.6272 24.9307 21.7837 24.8893 21.9217 24.81C23.3224 24.0346 24.9715 23.8402 26.5141 24.2688C26.6272 24.303 26.746 24.3147 26.8637 24.3031C26.9813 24.2914 27.0955 24.2567 27.1998 24.201C27.304 24.1452 27.3963 24.0694 27.4712 23.978C27.5462 23.8866 27.6024 23.7813 27.6367 23.6682C27.671 23.555 27.6826 23.4362 27.671 23.3186C27.6593 23.2009 27.6247 23.0867 27.5689 22.9825C27.5131 22.8782 27.4374 22.786 27.3459 22.711C27.2545 22.6361 27.1492 22.5798 27.0361 22.5456C26.0346 22.2623 24.987 22.1793 23.9534 22.3012C22.9197 22.4231 21.9203 22.7475 21.0121 23.256C20.8398 23.3551 20.7051 23.5086 20.6292 23.6924C20.5533 23.8761 20.5404 24.0799 20.5925 24.2717C20.6445 24.4636 20.7587 24.6329 20.9171 24.753C21.0755 24.8732 21.2693 24.9375 21.4681 24.936V24.93Z" fill="#FFB703"/>
<path d="M14.9881 15.8208C14.08 15.312 13.0805 14.9874 12.0468 14.8655C11.0131 14.7436 9.96553 14.8268 8.96405 15.1104C8.7414 15.1844 8.55642 15.3423 8.44851 15.5506C8.3406 15.7589 8.3183 16.0012 8.38636 16.2257C8.45442 16.4502 8.60746 16.6393 8.81287 16.7526C9.01828 16.8659 9.25983 16.8946 9.48605 16.8324C11.0289 16.4057 12.6775 16.6004 14.0785 17.3748C14.2845 17.4955 14.5301 17.5293 14.7611 17.4689C14.9921 17.4084 15.1896 17.2587 15.3103 17.0526C15.4309 16.8466 15.4647 16.601 15.4043 16.37C15.3438 16.139 15.1941 15.9415 14.9881 15.8208Z" fill="#FFB703"/>
<path d="M14.988 23.2536C14.0798 22.7452 13.0803 22.4208 12.0467 22.2989C11.013 22.177 9.9655 22.26 8.96397 22.5432C8.85083 22.5775 8.74554 22.6337 8.65412 22.7087C8.5627 22.7837 8.48695 22.8759 8.43117 22.9802C8.31854 23.1907 8.29415 23.4373 8.36337 23.6658C8.43259 23.8944 8.58976 24.086 8.80028 24.1986C9.01081 24.3113 9.25746 24.3357 9.48597 24.2664C11.0285 23.838 12.6777 24.0324 14.0784 24.8076C14.2844 24.9283 14.53 24.9621 14.761 24.9017C14.992 24.8412 15.1896 24.6915 15.3102 24.4854C15.4308 24.2794 15.4646 24.0338 15.4042 23.8028C15.3438 23.5718 15.194 23.3743 14.988 23.2536Z" fill="#FFB703"/>
<path d="M32.0254 5.05317H31.1854V4.76877C31.1863 4.45605 31.1197 4.14682 30.9901 3.86225C30.8604 3.57767 30.6708 3.32447 30.4342 3.11997C29.7971 2.57337 28.9716 2.29734 28.1338 2.35077C25.4842 2.42757 20.119 2.80197 17.9998 4.50237C15.8806 2.80437 10.5154 2.42997 7.86581 2.35317C7.02829 2.29857 6.20265 2.57378 5.56541 3.11997C5.32803 3.32364 5.13748 3.57621 5.00679 3.86038C4.8761 4.14454 4.80836 4.45359 4.80821 4.76637V5.05077H3.95981C2.98728 5.05426 2.05583 5.4433 1.36972 6.13255C0.68361 6.82181 0.298847 7.75503 0.299806 8.72757V29.6544C0.301077 30.7147 0.72287 31.7313 1.47267 32.4811C2.22246 33.2309 3.23904 33.6527 4.29941 33.654H17.9794H18.0058H18.0322H31.6882C32.7502 33.6543 33.7689 33.2334 34.521 32.4836C35.273 31.7338 35.6969 30.7163 35.6998 29.6544V8.72757C35.6985 7.75345 35.311 6.81959 34.6222 6.13078C33.9334 5.44197 32.9995 5.05444 32.0254 5.05317ZM28.2166 4.15197H28.2874C28.3134 4.15007 28.3394 4.15007 28.3654 4.15197C28.6813 4.16083 28.9856 4.27294 29.2318 4.47117C29.2807 4.50617 29.3207 4.55224 29.3484 4.60563C29.3762 4.65902 29.3909 4.71821 29.3914 4.77837L29.3494 27.8556C25.681 28.2072 21.4438 28.8432 18.8998 30.588V6.12837C18.8998 5.35917 23.1994 4.29477 28.2166 4.15197ZM6.60821 4.76877C6.60871 4.70861 6.62343 4.64942 6.65117 4.59603C6.6789 4.54264 6.71887 4.49657 6.76781 4.46157C7.01396 4.26334 7.31828 4.15123 7.63421 4.14237C7.66017 4.14047 7.68624 4.14047 7.71221 4.14237H7.78301C12.6946 4.28277 16.903 5.30397 17.083 6.06957C17.0869 6.09749 17.0925 6.12515 17.0998 6.15237V30.5784C14.5534 28.8312 10.309 28.1868 6.60821 27.7932V4.76877ZM2.09981 29.6544V8.72757C2.09885 8.23264 2.29404 7.7575 2.64266 7.40619C2.99127 7.05488 3.46489 6.85602 3.95981 6.85317H4.79981V27.7932C4.79653 28.2558 4.96757 28.7027 5.27888 29.0449C5.59019 29.3871 6.01894 29.5996 6.47981 29.64C8.29901 29.8152 13.1026 30.2796 15.7486 31.8576H4.29941C3.71561 31.8569 3.15595 31.6245 2.74348 31.2113C2.33101 30.7982 2.09949 30.2382 2.09981 29.6544ZM33.8998 29.6544C33.8976 30.2391 33.6635 30.7991 33.2489 31.2115C32.8342 31.6239 32.273 31.8549 31.6882 31.854H20.2534C22.8934 30.276 27.703 29.814 29.5222 29.6364C29.9805 29.5935 30.4061 29.3804 30.7151 29.0392C31.0241 28.698 31.194 28.2535 31.1914 27.7932V6.85317H32.0314C32.5273 6.85539 33.0021 7.05377 33.3522 7.40498C33.7023 7.75619 33.8992 8.23168 33.8998 8.72757V29.6544Z" fill="#FFB703"/>
</svg>
