<svg width="153" height="91" viewBox="0 0 153 91" fill="none" xmlns="http://www.w3.org/2000/svg">
<g clip-path="url(#clip0_96_5482)">
<path d="M0.017402 84.4142C-0.174492 77.9348 1.24829 71.4865 2.92001 65.052C4.74906 58.0314 6.48129 50.9901 9.3718 44.3067C13.1388 35.5988 17.5939 27.3145 24.0301 20.2542C31.6643 11.8697 41.0844 6.36872 51.9083 3.17913C61.382 0.387158 71.077 -0.411536 80.8929 0.18662C94.8303 1.03718 107.822 4.94939 119.65 12.4834C129.121 18.5151 135.882 26.8962 140.807 36.8781C144.598 44.5487 146.979 52.6705 148.825 60.9807C150.685 69.341 151.901 77.8051 152.974 86.2952C153.036 86.7844 153.036 87.0817 152.381 87.1492C149.688 87.4309 147.022 87.9444 144.368 88.4544C143.708 88.5806 143.461 88.508 143.364 87.7369C141.888 75.9087 139.832 64.2083 135.766 52.9402C130.58 38.555 121.417 27.5652 107.943 20.2404C102.01 17.0145 95.6463 15.0541 88.9871 14.0168C81.9734 12.9242 74.9148 12.8222 67.8718 13.4723C53.4348 14.8069 40.8649 20.2681 30.7274 30.8326C24.445 37.376 19.881 45.0552 16.2506 53.3119C13.0852 60.4759 10.9139 67.9408 9.89562 75.6995C9.40983 79.4094 9.12113 83.154 8.81686 86.8777C8.61633 89.3499 8.66992 89.3326 6.20814 89.7821C4.39466 90.114 2.64168 90.2419 0.957855 89.2358C0.345869 88.8693 0.000114227 88.4682 0.0122156 87.7404C0.0346897 86.7049 0.017402 85.6659 0.017402 84.4142Z" fill="#4593A0"/>
<path d="M46.1098 88.9109C45.9001 89.0119 45.662 89.0376 45.4356 88.9835C41.7239 88.4804 38.0416 88.4476 34.425 89.6387C33.6847 89.856 32.9141 89.9523 32.1431 89.9239C30.2881 89.9239 29.4237 89.1736 29.0849 87.3117C28.7962 85.7161 28.8204 84.1066 28.912 82.5075C29.3649 75.0115 30.3382 67.5709 32.7326 60.4397C36.7088 48.601 44.1425 39.4956 54.9957 33.2184C59.5804 30.5665 64.4435 28.6838 69.6609 27.7935C73.4261 27.1574 77.2656 27.0927 81.0501 27.6016C88.5998 28.5608 95.8396 31.1957 102.24 35.3137C112.687 42.023 118.858 51.6955 121.517 63.7122C122.727 69.2132 123.139 74.8162 123.524 80.4209C123.713 83.1575 123.899 85.8941 123.943 88.6394C123.955 89.3569 123.813 89.5436 123.049 89.3932C121.609 89.1114 120.141 88.9627 118.682 88.7847C117.223 88.6066 115.83 88.9126 114.424 89.2514C111.055 90.0674 108.743 88.6256 107.96 85.2752C107.934 85.2132 107.9 85.155 107.858 85.1024C107.283 83.7885 107.326 82.3657 107.167 80.9844C106.475 74.868 105.924 68.7292 103.965 62.8323C102.604 58.7351 100.324 55.1929 97.5097 51.941C95.7667 49.9068 93.7989 48.0765 91.644 46.485C89.0333 44.589 86.0129 43.334 82.8273 42.8217C78.9554 42.1666 74.9908 42.3042 71.1736 43.2263C63.1746 45.1279 56.9406 49.4222 53.2324 56.9424C51.699 60.0542 50.8726 63.4132 50.0618 66.7653C48.5059 73.1825 47.6623 79.7207 46.8411 86.2607C46.7339 87.1907 46.5645 88.088 46.1098 88.9109Z" fill="#F0853A"/>
<path d="M106.219 85.3427C106.219 86.2451 106.181 87.1527 106.25 88.0499C106.313 88.8659 105.97 89.0457 105.255 88.9143C104.107 88.6959 102.945 88.5618 101.778 88.5132C99.7968 88.4389 97.9747 89.1788 96.0955 89.5851C93.0805 90.2368 91.3622 89.2618 90.6551 86.2727C89.948 83.2837 89.4605 80.2532 88.731 77.2831C87.8476 73.6769 86.4836 70.2885 83.6743 67.6677C80.5072 64.7184 77.0721 64.7288 74.0156 67.7697C70.5806 71.1909 68.8846 75.5198 67.6676 80.0855C66.9761 82.6786 66.715 85.3288 66.4834 87.986C66.4263 88.655 66.2534 88.9765 65.5308 88.8849C61.7915 88.4078 58.1507 88.7224 54.5963 90.083C53.2686 90.5912 51.8476 90.8799 50.3764 90.6016C48.4851 90.2368 48.1117 89.8548 47.7832 87.756C47.7827 86.1333 47.8756 84.5119 48.0615 82.8999C48.6335 77.7776 49.4993 72.6924 50.6547 67.6694C51.4914 63.9422 52.5166 60.2702 54.1883 56.8075C56.2404 52.5547 59.3919 49.3824 63.4459 47.0555C67.4999 44.7286 71.8374 43.4959 76.512 43.2193C80.1078 43.0032 83.6 43.3041 86.9676 44.5453C90.3145 45.7745 93.0028 48.0029 95.4006 50.5476C97.2488 52.4872 98.9165 54.5912 100.383 56.8334C102.864 60.6834 104.152 64.9466 104.862 69.4155C105.564 73.8429 105.899 78.3135 106.275 82.7772C106.345 83.626 105.924 84.4783 106.219 85.3427Z" fill="#90C6B6"/>
<path d="M137.054 89.1268C136.213 89.0975 135.185 89.2634 134.208 88.6912C133.591 88.3299 133.237 87.8648 133.171 87.2027C132.94 84.817 132.733 82.4296 132.548 80.0404C132.289 76.7557 132.009 73.4711 131.598 70.2054C131.045 65.7786 130.093 61.4108 128.756 57.1549C127.294 52.4691 125.309 47.9627 122.84 43.7206C120.483 39.7188 117.602 36.0506 114.272 32.8137C108.887 27.5254 102.699 23.4784 95.5112 21.0581C92.0848 19.9084 88.5702 19.134 84.9259 19.2325C83.0243 19.2844 81.1226 18.9576 79.221 19.0596C75.6805 19.2446 72.133 19.0596 68.5959 19.2653C61.7811 19.6509 55.4106 21.4885 49.5276 25.1172C44.4432 28.2532 39.9726 32.0669 35.9498 36.4234C30.7721 42.0298 26.4951 48.2603 23.6202 55.3656C21.8048 59.8838 20.5389 64.6038 19.8497 69.424C19.3518 72.8193 19.0994 76.2336 18.8124 79.6497C18.5946 82.1512 18.8764 84.6545 18.5064 87.1474C18.1832 89.3326 17.9377 89.706 15.6505 89.8927C14.4141 89.9699 13.1742 89.9763 11.9371 89.9117C10.9984 89.8806 10.4624 89.1631 10.4348 88.0101C10.3829 85.8716 10.6267 83.7486 10.8497 81.6292C11.1678 78.6194 11.479 75.6044 12.084 72.6395C13.3508 66.3609 15.2626 60.2298 17.789 54.3439C20.9129 47.1038 24.7853 40.3201 29.8524 34.2365C34.5304 28.6215 40.0608 24.0817 46.5731 20.7711C51.0142 18.528 55.7527 16.9301 60.6453 16.0256C64.3445 15.337 68.0882 14.9136 71.8478 14.7584C74.1557 14.6599 76.4601 14.5855 78.7629 14.6426C86.6184 14.8155 94.289 16.0256 101.569 19.1374C106.482 21.2292 110.968 24.0316 115.122 27.3923C119.975 31.3184 123.989 35.9791 127.312 41.2311C129.905 45.3283 131.95 49.7021 133.627 54.2609C136.17 61.1656 137.733 68.3124 138.938 75.5421C139.572 79.3454 140.191 83.1487 140.414 87.016C140.535 89.1199 140.587 89.1182 138.461 89.1355C138.043 89.1286 137.64 89.1268 137.054 89.1268Z" fill="#C0E1D7"/>
<path d="M77.0189 20.4358C79.4651 20.2992 82.7066 20.4773 85.9376 20.6675C90.1057 20.9112 94.0093 22.2078 97.8091 23.9106C102.631 26.0716 106.949 29.0209 111.06 32.2675C113.704 34.3698 116.078 36.7906 118.129 39.4748C121.013 43.2427 123.433 47.344 125.336 51.6903C127.353 56.2213 128.829 60.9743 129.733 65.8507C130.17 68.2381 130.457 70.6429 130.756 73.0493C131.188 76.5172 131.289 80.0094 131.707 83.4773C131.88 84.8292 131.85 86.2053 131.942 87.5676C131.996 88.3611 131.562 88.6826 130.872 88.7034C129.634 88.7379 128.395 88.7034 127.157 88.7293C126.673 88.7397 126.517 88.5115 126.465 88.0827C126.292 86.5995 126.066 85.1214 125.917 83.6363C125.635 80.8254 125.34 78.0144 125.148 75.1965C125.001 73.0372 124.731 70.8953 124.503 68.7464C123.789 62.0042 122.017 55.6233 118.452 49.7817C116.54 46.6485 114.237 43.7707 111.6 41.2174C105.616 35.4208 98.7496 30.9485 90.8681 28.1531C87.4154 26.9332 83.822 26.1554 80.1739 25.8382C75.2538 25.4008 70.389 25.5876 65.5934 26.8444C61.8212 27.8332 58.3741 29.5516 55.0479 31.5345C52.13 33.2766 49.3417 35.2271 46.7048 37.3709C42.1322 41.0687 38.1647 45.2938 35.0944 50.3592C31.6904 55.9638 29.9392 62.082 28.8915 68.4681C28.0877 73.3657 27.5085 78.2771 27.4411 83.2543C27.4255 84.5249 27.4515 85.8474 27.1057 87.1233C26.6977 88.6204 25.823 89.3275 24.2671 89.3326C23.8314 89.3326 23.3681 89.2497 22.967 89.369C20.7957 90.0207 20.0368 88.5305 19.9036 86.902C19.7394 84.8759 20.0765 82.8463 20.1941 80.8184C20.2874 79.2937 20.4707 77.7758 20.6366 76.2545C21.1184 71.6578 21.9642 67.1067 23.1658 62.6438C24.7407 56.8818 27.0417 51.4379 30.3524 46.4418C32.182 43.6972 34.2187 41.0965 36.4446 38.6623C42.3103 32.207 49.2928 27.2766 57.0394 23.3955C59.9403 21.9416 63.0902 21.2224 66.3212 20.8144C69.6197 20.3995 72.9182 20.46 77.0189 20.4358Z" fill="#FCD9D4"/>
</g>
<defs>
<clipPath id="clip0_96_5482">
<rect width="153" height="90.7071" fill="white"/>
</clipPath>
</defs>
</svg>
