<svg width="116" height="84" viewBox="0 0 116 84" fill="none" xmlns="http://www.w3.org/2000/svg">
<path d="M51.2563 80.4811C51.4748 76.2406 51.7895 71.9919 52.3387 67.7799C52.7673 64.4938 54.0888 63.1312 57.2836 62.0839C58.4418 61.7041 58.8875 61.4108 59.5678 62.4238C60.4398 63.7222 60.3517 65.7782 60.4518 67.2748C60.7425 71.621 60.9873 75.9708 61.255 80.3185C61.5827 85.6399 69.8146 84.6518 69.4871 79.3328C69.1442 73.7639 69.4128 67.7163 68.201 62.2604C66.9862 56.7912 62.5022 52.3922 56.5942 53.7085C51.966 54.7397 47.0945 57.3668 45.2142 61.9576C44.1613 64.5277 44.0155 67.4312 43.7399 70.1631C43.4352 73.184 43.2165 76.2117 43.0602 79.2439C42.9449 81.4791 44.1694 83.6027 46.5395 83.9605C48.5872 84.2695 51.1403 82.7301 51.2563 80.4811Z" fill="#457069"/>
<path d="M35.9013 77.7653C35.772 69.4817 37.6077 61.1758 41.2178 53.7204C44.15 47.6651 49.5601 40.8445 57.0429 41.1193C64.1009 41.3785 69.1597 47.6732 71.5571 53.7156C74.5464 61.2497 75.3206 69.7619 75.8954 77.7794C76.2767 83.0978 84.5089 82.1143 84.1275 76.7938C83.1046 62.5243 81.1279 44.4889 67.7424 36.1988C61.4088 32.2762 53.7272 31.7979 47.0886 35.3182C40.4307 38.8488 35.9862 45.0405 32.9677 51.8041C29.176 60.3002 27.5242 69.4782 27.6689 78.7507C27.7038 80.9904 30.22 82.6186 32.2777 82.3739C34.6908 82.0873 35.9363 80.0116 35.9013 77.7653Z" fill="#F1AF58"/>
<path d="M21.9772 78.5301C22.5584 73.0709 23.1086 67.6072 23.7262 62.1519C24.2814 57.2485 24.9474 52.2983 26.7516 47.6758C29.7198 40.0714 35.0065 33.5439 41.9545 29.2303C49.6883 24.4288 59.1808 23.6939 67.9425 25.5581C71.9423 26.4092 75.9751 28.0005 78.9922 30.8384C82.3426 33.9896 83.6432 38.7269 84.9542 42.9869C88.4448 54.3296 90.2738 66.1344 90.6631 77.9874C90.7366 80.2259 93.1868 81.8587 95.2719 81.6107C97.6542 81.3274 98.9689 79.2467 98.8952 77.0018C98.5055 65.1369 96.5916 53.4073 93.2802 42.0085C91.7379 36.6993 90.0941 30.9848 86.4316 26.6979C83.1223 22.8245 78.6384 20.1486 73.8118 18.608C63.6633 15.3688 52.0329 15.356 42.2243 19.768C33.3554 23.7573 26.2342 30.7897 21.5508 39.2512C15.2092 50.7082 15.1344 64.5806 13.7811 77.2928C13.2183 82.5812 21.4112 83.8474 21.9772 78.5301Z" fill="#EABBA7"/>
<path d="M8.36286 79.7935C9.52485 66.2706 10.6162 52.4037 15.1285 39.5031C17.2155 33.5362 19.8587 27.0582 24.5112 22.6059C28.7488 18.5508 34.2637 15.5281 39.6267 13.2551C50.4082 8.68576 63.1778 6.71287 74.7152 9.32819C81.0066 10.7544 85.3975 15.2222 89.5444 19.8815C93.7026 24.5535 97.5978 29.5764 100.049 35.3734C102.831 41.9523 103.88 49.0385 104.887 56.0608C106.014 63.9183 107.125 71.7817 107.61 79.7099C107.936 85.0314 116.168 84.043 115.842 78.7242C115.374 71.0718 114.319 63.4813 113.236 55.8963C112.231 48.8499 111.169 41.7404 108.791 35.0014C106.461 28.4014 102.608 22.4831 98.1177 17.1556C93.6651 11.8733 88.8009 6.29654 82.4588 3.27153C76.0439 0.211883 68.4046 -0.167869 61.4107 0.0511716C54.7017 0.261346 48.027 1.53361 41.6567 3.63604C35.4246 5.69289 29.4509 8.6913 24.0564 12.4286C17.9749 16.6416 13.7398 22.0604 10.584 28.7214C3.22642 44.2517 1.61818 61.665 0.166636 78.5563C-0.287517 83.8445 7.90511 85.1199 8.36286 79.7935Z" fill="#BF8373"/>
</svg>
