<svg width="121" height="109" viewBox="0 0 121 109" fill="none" xmlns="http://www.w3.org/2000/svg">
<path d="M72.0482 32.5041L66.6277 31.1608L61.2952 29.5026C60.2191 29.1386 59.1918 28.6437 58.2364 28.029L23.0995 4.20258C22.9457 4.06725 22.7582 3.97586 22.5568 3.93804C22.3554 3.90021 22.1475 3.91733 21.955 3.98761C21.7625 4.05788 21.5925 4.17871 21.4628 4.3374C21.3332 4.49608 21.2487 4.68676 21.2182 4.8894L4.00059 66.5724C3.88889 67.0522 3.92287 67.5544 4.09818 68.0147C4.2735 68.4751 4.58218 68.8727 4.98472 69.1566L39.6271 91.4593C40.5982 92.0491 41.6388 92.5159 42.725 92.8491L55.1298 96.3116C56.2316 96.5889 57.3635 96.7285 58.4997 96.7272L99.6848 95.5902C100.176 95.5553 100.646 95.3749 101.034 95.072C101.422 94.769 101.712 94.3573 101.865 93.8893L119.083 32.2063C119.162 32.0168 119.189 31.8093 119.16 31.6059C119.131 31.4024 119.048 31.2105 118.919 31.0504C118.79 30.8903 118.621 30.768 118.428 30.6964C118.236 30.6247 118.027 30.6064 117.825 30.6434L75.4316 32.8287C74.2948 32.859 73.1585 32.75 72.0482 32.5041Z" fill="#EA4811"/>
<path d="M115.453 33.4986L99.1155 92.0283L56.4771 93.5492C56.4771 93.5492 56.3529 89.1995 50.8446 87.662C45.3363 86.1245 42.1643 89.554 42.1643 89.554L7.51396 66.4595L23.8371 7.91013L29.1313 6.87709C52.5631 14.8625 58.2183 31.8414 61.4206 33.4656C62.772 34.1391 64.1822 34.6874 65.6337 35.1035C67.6071 35.6916 69.6387 36.0627 71.6925 36.2105C80.5465 24.4184 109.538 31.0542 109.538 31.0542L115.453 33.4986Z" fill="#E8EAE6"/>
<path d="M105.499 30.3096C105.499 30.3096 80.7902 17.862 66.8665 35.4554L50.8531 87.6761C50.8531 87.6761 66.9141 80.3593 90.959 82.8388L105.499 30.3096Z" fill="#DDDDDD"/>
<path d="M29.1326 6.87717L13.0498 64.4949C13.0498 64.4949 24.3653 66.8954 49.5808 87.3998C49.9042 87.6558 50.511 87.462 50.8539 87.6761L65.4425 35.0578C65.4425 35.0578 57.4687 11.8179 29.1326 6.87717Z" fill="url(#paint0_linear_261_394)"/>
<path d="M33.4085 6.20748L17.4341 63.437C17.4341 63.437 31.8559 65.9387 50.8566 87.6771L65.6341 35.1035C65.6341 35.1035 61.1962 10.9912 33.4085 6.20748Z" fill="url(#paint1_linear_261_394)"/>
<path d="M38.0201 4.30905C38.0201 4.30905 62.6421 12.7965 65.4412 35.0578L50.8525 87.6761C50.8525 87.6761 43.723 71.0002 21.871 60.6647L38.0201 4.30905Z" fill="url(#paint2_linear_261_394)"/>
<path d="M49.5806 87.3997C44.1941 87.0805 42.1623 89.5651 42.1623 89.5651L7.51501 66.4596L13.0527 64.5115C13.0527 64.5115 25.7384 67.2787 49.5806 87.3997Z" fill="url(#paint3_linear_261_394)"/>
<path d="M50.8534 87.6762C56.2811 89.1912 56.478 93.5493 56.478 93.5493L99.1164 92.0284L93.8061 87.4195C93.8061 87.4195 75.3838 81.7404 50.8534 87.6762Z" fill="url(#paint4_linear_261_394)"/>
<path d="M104.491 24.8685C104.491 24.8685 79.5528 17.5128 65.6244 35.1089L50.8527 87.6762C50.8527 87.6762 65.7253 75.1125 89.7748 77.5895L104.491 24.8685Z" fill="#F4F4F4"/>
<path d="M93.8081 87.4123L109.977 31.0267L115.454 33.4989L99.1194 92.0175L93.8081 87.4123Z" fill="#DDDDDD"/>
<defs>
<linearGradient id="paint0_linear_261_394" x1="19.477" y1="41.469" x2="60.5514" y2="52.9341" gradientUnits="userSpaceOnUse">
<stop stop-color="#E0E0E0"/>
<stop offset="0.33" stop-color="#CCCBCB"/>
<stop offset="0.72" stop-color="#BBBABA"/>
<stop offset="1" stop-color="#B5B4B4"/>
</linearGradient>
<linearGradient id="paint1_linear_261_394" x1="23.5249" y1="41.6161" x2="60.9039" y2="52.0497" gradientUnits="userSpaceOnUse">
<stop stop-color="#E0E0E0"/>
<stop offset="1" stop-color="#BDBCBC"/>
</linearGradient>
<linearGradient id="paint2_linear_261_394" x1="27.3015" y1="41.2098" x2="61.1828" y2="50.6671" gradientUnits="userSpaceOnUse">
<stop stop-color="#EFEFEF"/>
<stop offset="1" stop-color="#D6D5D5"/>
</linearGradient>
<linearGradient id="paint3_linear_261_394" x1="6.22998" y1="71.0633" x2="50.6775" y2="83.4699" gradientUnits="userSpaceOnUse">
<stop stop-color="#E0E0E0"/>
<stop offset="0.03" stop-color="#DEDDDD"/>
<stop offset="0.41" stop-color="#C2C1C1"/>
<stop offset="0.75" stop-color="#B1B0B0"/>
<stop offset="1" stop-color="#ABAAAA"/>
</linearGradient>
<linearGradient id="paint4_linear_261_394" x1="51.8818" y1="83.9917" x2="97.7833" y2="96.8042" gradientUnits="userSpaceOnUse">
<stop stop-color="#B8B7B7"/>
<stop offset="1" stop-color="#D1D1D1"/>
</linearGradient>
</defs>
</svg>
