<svg width="81" height="80" viewBox="0 0 81 80" fill="none" xmlns="http://www.w3.org/2000/svg">
<path d="M59.3633 48.4212C59.3633 48.4212 53.0082 44.1524 53.8621 35.2558C54.9317 24.108 71.631 11.6947 71.631 11.6947C71.631 11.6947 58.3513 10.0121 46.0483 21.4198C32.2582 34.2067 24.7921 48.4488 31.53 64.9142L59.3633 48.4212Z" fill="#FB8500"/>
<path d="M57.4828 47.3744C57.4828 47.3744 50.8332 43.6373 47.0985 37.3471C41.2129 27.4337 57.9492 1.96668 57.9492 1.96668C57.9492 1.96668 47.3758 1.49866 34.3386 15.154C21.2178 28.8978 16.0173 50.199 28.1159 67.2198L57.4828 47.3744Z" fill="#FB6400"/>
<path d="M34.7586 67.6452C34.7586 67.6452 30.6894 75.6081 9.69088 79.5471C9.69088 79.5471 14.3613 70.3253 17.7683 67.1585C17.7683 67.1585 24.0355 70.4187 36.5449 63.8457L34.7586 67.6452Z" fill="#FB8500"/>
<path d="M28.1177 67.2196C32.8384 70.7142 47.9237 69.8092 55.6078 64.6205C63.291 59.4319 60.6045 55.3341 55.9423 48.4299L28.1177 67.2196Z" fill="#FFB703"/>
<path d="M55.2671 55.9931C57.1174 58.5727 60.1142 58.7775 64.3624 56.4609C68.2523 54.3404 69.7478 49.2346 66.8775 46.7182C64.6938 44.8039 59.9474 42.7788 56.2371 45.8849C52.527 48.992 53.8217 53.9791 55.2671 55.9931Z" fill="#FB8500"/>
<path d="M67.2064 47.151L77.894 47.8666L66.1288 55.1438C66.1288 55.1438 64.3188 51.5035 67.2064 47.151Z" fill="#FFB703"/>
<path d="M61.5099 49.9217C61.7755 50.1472 62.175 50.1159 62.4004 49.8493C62.6269 49.5835 62.5946 49.1841 62.3279 48.9587C62.0622 48.7322 61.6628 48.7646 61.4374 49.0312C61.2109 49.2969 61.2433 49.6963 61.5099 49.9217Z" fill="white"/>
</svg>
