<svg width="153" height="81" viewBox="0 0 153 81" fill="none" xmlns="http://www.w3.org/2000/svg">
<g clip-path="url(#clip0_95_2064)">
<path d="M0.017402 84.6393C-0.174492 78.1599 1.24829 71.7116 2.92001 65.2771C4.74906 58.2565 6.48129 51.2152 9.3718 44.5318C13.1388 35.8239 17.5939 27.5396 24.0301 20.4793C31.6643 12.0948 41.0844 6.59381 51.9083 3.40423C61.382 0.612255 71.077 -0.186438 80.8929 0.411718C94.8303 1.26227 107.822 5.17449 119.65 12.7085C129.121 18.7402 135.882 27.1213 140.807 37.1032C144.598 44.7738 146.979 52.8956 148.825 61.2058C150.685 69.5661 151.901 78.0302 152.974 86.5202C153.036 87.0095 153.036 87.3068 152.381 87.3743C149.688 87.656 147.022 88.1695 144.368 88.6795C143.708 88.8057 143.461 88.7331 143.364 87.962C141.888 76.1338 139.832 64.4334 135.766 53.1653C130.58 38.7801 121.417 27.7903 107.943 20.4655C102.01 17.2396 95.6463 15.2792 88.9871 14.2419C81.9734 13.1493 74.9148 13.0473 67.8718 13.6973C53.4348 15.032 40.8649 20.4932 30.7274 31.0577C24.445 37.6011 19.881 45.2803 16.2506 53.537C13.0852 60.701 10.9139 68.1658 9.89562 75.9246C9.40983 79.6345 9.12113 83.3791 8.81686 87.1028C8.61633 89.575 8.66992 89.5577 6.20814 90.0072C4.39466 90.3391 2.64168 90.467 0.957855 89.4609C0.345869 89.0944 0.000114227 88.6933 0.0122156 87.9655C0.0346897 86.93 0.017402 85.891 0.017402 84.6393Z" fill="#4593A0"/>
<path d="M46.1098 89.1358C45.9001 89.2369 45.662 89.2626 45.4356 89.2084C41.7239 88.7054 38.0416 88.6725 34.425 89.8637C33.6847 90.081 32.9141 90.1773 32.1431 90.1489C30.2881 90.1489 29.4237 89.3986 29.0849 87.5367C28.7962 85.9411 28.8204 84.3316 28.912 82.7325C29.3649 75.2365 30.3382 67.7958 32.7326 60.6646C36.7088 48.826 44.1425 39.7206 54.9957 33.4434C59.5804 30.7914 64.4435 28.9088 69.6609 28.0185C73.4261 27.3824 77.2656 27.3177 81.0501 27.8266C88.5998 28.7858 95.8396 31.4207 102.24 35.5386C112.687 42.248 118.858 51.9205 121.517 63.9372C122.727 69.4382 123.139 75.0411 123.524 80.6458C123.713 83.3825 123.899 86.1191 123.943 88.8644C123.955 89.5819 123.813 89.7686 123.049 89.6182C121.609 89.3364 120.141 89.1877 118.682 89.0096C117.223 88.8316 115.83 89.1376 114.424 89.4764C111.055 90.2924 108.743 88.8506 107.96 85.5002C107.934 85.4381 107.9 85.38 107.858 85.3273C107.283 84.0135 107.326 82.5907 107.167 81.2094C106.475 75.093 105.924 68.9541 103.965 63.0573C102.604 58.9601 100.324 55.4178 97.5097 52.166C95.7667 50.1318 93.7989 48.3015 91.644 46.71C89.0333 44.8139 86.0129 43.559 82.8273 43.0467C78.9554 42.3915 74.9908 42.5291 71.1736 43.4512C63.1746 45.3529 56.9406 49.6472 53.2324 57.1673C51.699 60.2791 50.8726 63.6381 50.0618 66.9902C48.5059 73.4075 47.6623 79.9457 46.8411 86.4856C46.7339 87.4157 46.5645 88.3129 46.1098 89.1358Z" fill="#F0853A"/>
<path d="M106.219 85.5678C106.219 86.4702 106.181 87.3778 106.25 88.275C106.313 89.091 105.97 89.2708 105.255 89.1394C104.107 88.921 102.945 88.7869 101.778 88.7383C99.7968 88.664 97.9747 89.4039 96.0955 89.8102C93.0805 90.4619 91.3622 89.4869 90.6551 86.4978C89.948 83.5088 89.4605 80.4782 88.731 77.5082C87.8476 73.902 86.4836 70.5136 83.6743 67.8928C80.5072 64.9435 77.0721 64.9539 74.0156 67.9948C70.5806 71.416 68.8846 75.7449 67.6676 80.3106C66.9761 82.9037 66.715 85.5539 66.4834 88.2111C66.4263 88.8801 66.2534 89.2016 65.5308 89.11C61.7915 88.6329 58.1507 88.9475 54.5963 90.3081C53.2686 90.8163 51.8476 91.105 50.3764 90.8267C48.4851 90.4619 48.1117 90.0799 47.7832 87.9811C47.7827 86.3584 47.8756 84.737 48.0615 83.125C48.6335 78.0027 49.4993 72.9175 50.6547 67.8945C51.4914 64.1673 52.5166 60.4953 54.1883 57.0326C56.2404 52.7798 59.3919 49.6075 63.4459 47.2806C67.4999 44.9537 71.8374 43.721 76.512 43.4444C80.1078 43.2283 83.6 43.5292 86.9676 44.7704C90.3145 45.9996 93.0028 48.228 95.4006 50.7727C97.2488 52.7123 98.9165 54.8163 100.383 57.0585C102.864 60.9085 104.152 65.1717 104.862 69.6406C105.564 74.0679 105.899 78.5386 106.275 83.0023C106.345 83.8511 105.924 84.7034 106.219 85.5678Z" fill="#90C6B6"/>
<path d="M137.054 89.352C136.213 89.3226 135.185 89.4886 134.208 88.9164C133.591 88.555 133.237 88.09 133.171 87.4279C132.94 85.0422 132.733 82.6547 132.548 80.2656C132.289 76.9809 132.009 73.6962 131.598 70.4306C131.045 66.0038 130.093 61.6359 128.756 57.38C127.294 52.6943 125.309 48.1878 122.84 43.9457C120.483 39.944 117.602 36.2758 114.272 33.0389C108.887 27.7506 102.699 23.7035 95.5112 21.2832C92.0848 20.1336 88.5702 19.3591 84.9259 19.4577C83.0243 19.5095 81.1226 19.1828 79.221 19.2848C75.6805 19.4698 72.133 19.2848 68.5959 19.4905C61.7811 19.876 55.4106 21.7137 49.5276 25.3424C44.4432 28.4784 39.9726 32.2921 35.9498 36.6486C30.7721 42.255 26.4951 48.4855 23.6202 55.5908C21.8048 60.109 20.5389 64.8289 19.8497 69.6492C19.3518 73.0445 19.0994 76.4588 18.8124 79.8749C18.5946 82.3764 18.8764 84.8797 18.5064 87.3726C18.1832 89.5577 17.9377 89.9311 15.6505 90.1179C14.4141 90.1951 13.1742 90.2014 11.9371 90.1369C10.9984 90.1058 10.4624 89.3883 10.4348 88.2352C10.3829 86.0967 10.6267 83.9738 10.8497 81.8543C11.1678 78.8445 11.479 75.8295 12.084 72.8647C13.3508 66.586 15.2626 60.455 17.789 54.5691C20.9129 47.329 24.7853 40.5452 29.8524 34.4617C34.5304 28.8466 40.0608 24.3069 46.5731 20.9963C51.0142 18.7532 55.7527 17.1553 60.6453 16.2508C64.3445 15.5622 68.0882 15.1387 71.8478 14.9836C74.1557 14.885 76.4601 14.8107 78.7629 14.8678C86.6184 15.0406 94.289 16.2508 101.569 19.3626C106.482 21.4544 110.968 24.2567 115.122 27.6175C119.975 31.5435 123.989 36.2043 127.312 41.4563C129.905 45.5535 131.95 49.9273 133.627 54.4861C136.17 61.3908 137.733 68.5376 138.938 75.7673C139.572 79.5706 140.191 83.3739 140.414 87.2412C140.535 89.3451 140.587 89.3434 138.461 89.3606C138.043 89.3537 137.64 89.352 137.054 89.352Z" fill="#C0E1D7"/>
<path d="M77.0189 20.661C79.4651 20.5244 82.7066 20.7025 85.9376 20.8926C90.1057 21.1364 94.0093 22.433 97.8091 24.1358C102.631 26.2968 106.949 29.2461 111.06 32.4927C113.704 34.595 116.078 37.0157 118.129 39.7C121.013 43.4678 123.433 47.5692 125.336 51.9155C127.353 56.4465 128.829 61.1994 129.733 66.0759C130.17 68.4633 130.457 70.868 130.756 73.2745C131.188 76.7424 131.289 80.2345 131.707 83.7024C131.88 85.0544 131.85 86.4305 131.942 87.7927C131.996 88.5862 131.562 88.9078 130.872 88.9285C129.634 88.9631 128.395 88.9285 127.157 88.9545C126.673 88.9648 126.517 88.7366 126.465 88.3079C126.292 86.8246 126.066 85.3465 125.917 83.8615C125.635 81.0505 125.34 78.2395 125.148 75.4216C125.001 73.2624 124.731 71.1204 124.503 68.9716C123.789 62.2293 122.017 55.8484 118.452 50.0069C116.54 46.8737 114.237 43.9959 111.6 41.4426C105.616 35.646 98.7496 31.1736 90.8681 28.3782C87.4154 27.1583 83.822 26.3806 80.1739 26.0634C75.2538 25.626 70.389 25.8127 65.5934 27.0695C61.8212 28.0584 58.3741 29.7768 55.0479 31.7597C52.13 33.5017 49.3417 35.4522 46.7048 37.596C42.1322 41.2939 38.1647 45.519 35.0944 50.5843C31.6904 56.189 29.9392 62.3071 28.8915 68.6932C28.0877 73.5908 27.5085 78.5023 27.4411 83.4794C27.4255 84.7501 27.4515 86.0726 27.1057 87.3484C26.6977 88.8456 25.823 89.5526 24.2671 89.5578C23.8314 89.5578 23.3681 89.4748 22.967 89.5941C20.7957 90.2459 20.0368 88.7557 19.9036 87.1272C19.7394 85.101 20.0765 83.0714 20.1941 81.0436C20.2874 79.5188 20.4707 78.001 20.6366 76.4796C21.1184 71.883 21.9642 67.3318 23.1658 62.869C24.7407 57.107 27.0417 51.6631 30.3524 46.6669C32.182 43.9224 34.2187 41.3217 36.4446 38.8874C42.3103 32.4322 49.2928 27.5017 57.0394 23.6206C59.9403 22.1667 63.0902 21.4476 66.3212 21.0396C69.6197 20.6247 72.9182 20.6852 77.0189 20.661Z" fill="#FCD9D4"/>
</g>
<defs>
<clipPath id="clip0_95_2064">
<rect width="153" height="90.7071" fill="white" transform="translate(0 0.225098)"/>
</clipPath>
</defs>
</svg>
