<svg width="135" height="100" viewBox="0 0 135 100" fill="none" xmlns="http://www.w3.org/2000/svg">
<path d="M58.5128 24.3249C58.5128 24.3249 68.5789 29.4844 79.0724 27.0801C104.214 21.3227 123.983 4.03912 123.983 4.03912C123.983 4.03912 127.231 22.8756 122.501 36.3146C113.216 62.6931 79.3895 75.5124 66.4063 70.4875L58.5128 24.3249Z" fill="#FAE164"/>
<path d="M61.0475 26.3776C61.0475 26.3776 54.9033 31.8842 44.2065 33.106C15.4674 36.3891 3.20372 15.4888 3.20372 15.4888C3.20372 15.4888 -1.68485 28.7754 6.7582 46.7047C18.6731 72.0045 48.9039 79.3581 68.0309 70.9916L61.0475 26.3776Z" fill="#E6C527"/>
<path d="M65.2886 62.7129C65.2886 62.7129 64.8162 77.5213 59.217 92.7896C59.217 92.7896 76.5081 92.0736 82.6981 87.1883C82.6981 87.1883 71.8442 84.1051 68.5999 61.2093L65.2886 62.7129Z" fill="#1A788F"/>
<path d="M60.9161 67.4219C62.9309 70.7158 67.063 71.9716 70.5386 70.289C77.9825 66.6813 79.1428 57.346 77.8738 46.0626C77.0448 38.6857 75.3482 31.9973 72.0117 27.6516C66.9603 21.0714 56.4536 23.7793 55.1629 31.9747C54.5817 35.6659 54.4504 40.7699 55.3127 47.7973C56.5813 58.1488 58.8613 64.0627 60.9161 67.4219Z" fill="#219EBC"/>
<path d="M73.0698 25.2994C70.2243 30.3914 68.4891 31.587 62.8436 30.601C57.1967 29.6152 53.4626 27.5292 54.6222 20.8837C55.782 14.2395 60.933 11.7515 66.5799 12.7373C72.2268 13.7231 76.3609 19.4116 73.0698 25.2994Z" fill="#219EBC"/>
<path d="M67.1529 25.979L70.6343 28.6681L68.521 43.1728L58.1346 29.0703L62.6038 25.8908C63.9742 24.9141 65.8214 24.9514 67.1529 25.979Z" fill="#FAE164"/>
<path d="M59.0158 21.5455C59.4248 21.856 60.0087 21.7761 60.319 21.3656C60.6295 20.9565 60.5496 20.3727 60.1405 20.0622C59.7315 19.7517 59.1476 19.8316 58.8373 20.2421C58.5255 20.6527 58.6067 21.235 59.0158 21.5455Z" fill="white"/>
<path d="M68.6707 23.2317C69.0798 23.5422 69.6637 23.4623 69.974 23.0518C70.2845 22.6427 70.2046 22.0588 69.7941 21.7485C69.3851 21.438 68.8012 21.5179 68.4909 21.9284C68.1804 22.3375 68.2601 22.92 68.6707 23.2317Z" fill="white"/>
</svg>
