<svg width="100" height="88" viewBox="0 0 100 88" fill="none" xmlns="http://www.w3.org/2000/svg">
<path d="M39.8795 64.7916C39.8795 64.7916 18.8802 67.3327 13.8599 65.1608L23.5151 74.198C23.5151 74.198 34.9466 68.966 41.4054 67.4183L39.8795 64.7916Z" fill="#1A7185"/>
<path d="M39.8801 64.7913C41.9334 71.1884 52.8277 73.4107 64.2145 69.7567C75.6008 66.1019 83.1676 57.9538 81.1147 51.5575L39.8801 64.7913Z" fill="#2BC3E7"/>
<path d="M75.0123 53.5151L92.3145 47.9616C92.3145 47.9616 88.1064 59.7109 73.4899 57.3074L75.0123 53.5151Z" fill="#2BC3E7"/>
<path d="M82.0026 52.4222C82.092 52.7018 82.3918 52.8556 82.6713 52.7661C82.9509 52.6766 83.1047 52.3769 83.0152 52.0974C82.9258 51.8178 82.6261 51.664 82.3465 51.7534C82.0669 51.8429 81.9131 52.1426 82.0026 52.4222Z" fill="white"/>
<path d="M88.8389 49.0768L95.6668 46.8853C95.6668 46.8853 93.942 49.7828 89.9955 51.8224C89.9955 51.8224 87.507 50.8759 88.8389 49.0768Z" fill="#FAE164"/>
<path d="M76.67 52.9836C76.67 52.9836 75.8663 40.3104 66.7665 33.5449C57.6667 26.7795 51.6009 15.7551 51.6009 15.7551C51.6009 15.7551 44.1791 25.92 42.9488 39.4605C41.7181 53.0001 41.0119 64.4289 41.0119 64.4289L76.67 52.9836Z" fill="#1A7185"/>
<path d="M76.6696 52.9832C76.6696 52.9832 66.3922 42.7402 48.6039 38.7634C30.8156 34.7866 9.81675 29.1652 9.81675 29.1652C9.81675 29.1652 9.37719 37.0897 19.9386 46.844C30.5004 56.5992 39.8422 64.8021 39.8422 64.8021L76.6696 52.9832Z" fill="#219EBC"/>
</svg>
