<svg width="166" height="220" viewBox="0 0 166 220" fill="none" xmlns="http://www.w3.org/2000/svg">
<g clip-path="url(#clip0_95_2940)">
<path d="M78.6434 171.209L78.873 171.13C79.6688 170.227 81.1655 170.622 81.8771 169.531C82.4949 168.51 84.1171 169.1 84.627 167.88C85.1406 167.132 86.2998 167.406 86.7298 166.529C87.1839 165.722 88.3371 165.979 88.7913 165.173C89.1682 164.314 90.4162 164.617 90.7695 163.746C91.1139 163.253 91.8158 163.171 92.1007 162.62C92.368 162.075 93.088 162.045 93.379 161.512L93.4315 161.435L93.6788 161.35C94.2129 160.95 94.9859 160.903 95.2215 160.092C95.6134 159.623 96.3329 159.535 96.576 158.919C96.9204 158.426 97.6223 158.344 97.9072 157.792C98.8555 156.758 100.316 156.357 101.104 155.14C101.525 154.7 102.245 154.612 102.476 153.961C103.243 153.205 103.752 154.116 104.385 154.235L104.297 154.265C104.56 154.569 104.91 154.787 105.299 154.889C105.583 155.17 105.937 155.369 106.325 155.465C106.614 155.732 106.958 155.931 107.333 156.048C107.619 156.295 107.946 156.49 108.3 156.625C108.579 156.864 108.929 157.021 109.22 157.237C110.026 157.691 110.529 158.585 111.447 158.902L111.358 158.932C111.611 159.256 111.974 159.476 112.379 159.55C112.656 159.823 112.996 160.025 113.369 160.139C113.654 160.388 113.976 160.591 114.324 160.739C116.262 162.136 118.277 163.423 120.358 164.594C120.469 164.77 120.62 164.916 120.8 165.019C120.98 165.123 121.183 165.181 121.39 165.188C121.511 165.357 121.665 165.499 121.844 165.605C122.023 165.71 122.222 165.776 122.428 165.8C122.688 166.117 123.055 166.328 123.46 166.394C123.73 166.699 124.092 166.908 124.492 166.988C124.762 167.293 125.124 167.502 125.524 167.582C125.786 167.89 126.15 168.094 126.55 168.158C126.676 168.322 126.834 168.458 127.014 168.56C127.195 168.661 127.394 168.724 127.599 168.746C127.725 168.91 127.883 169.046 128.064 169.148C128.244 169.249 128.443 169.312 128.649 169.334C128.766 169.503 128.92 169.644 129.098 169.746C129.277 169.849 129.476 169.911 129.681 169.928C129.807 170.092 129.965 170.229 130.145 170.33C130.326 170.431 130.525 170.494 130.73 170.516C130.853 170.684 131.012 170.822 131.196 170.92C131.38 171.017 131.583 171.072 131.791 171.08L131.755 170.975C132.208 171.549 132.925 171.166 133.459 171.457C133.972 171.656 134.538 171.667 135.058 171.489C135.579 171.311 136.019 170.955 136.303 170.484L136.197 170.52C136.367 170.405 136.51 170.253 136.616 170.077C136.723 169.901 136.791 169.705 136.815 169.5C137.336 169.006 136.982 168.318 137.226 167.761C137.627 164.724 135.452 162.173 135.635 159.19L135.194 157.901C135.041 157.763 134.932 157.582 134.881 157.382C134.83 157.181 134.839 156.97 134.908 156.776C134.506 156.163 134.325 155.431 134.396 154.702C134.837 152.992 133.32 151.558 133.738 149.836C133.697 149.817 133.66 149.79 133.629 149.756C133.599 149.723 133.576 149.683 133.561 149.64C133.546 149.597 133.541 149.552 133.544 149.507C133.547 149.461 133.56 149.417 133.581 149.377C133.817 145.627 131.395 142.41 131.413 138.715C132.114 138.08 132.736 137.363 133.268 136.581C133.588 136.077 134.355 136.011 134.539 135.337C134.931 134.868 135.674 134.791 135.851 134.099C136.249 133.647 137.016 133.582 137.158 132.843L137.07 132.873C137.441 132.746 137.543 132.297 137.771 131.982C138.015 131.425 138.788 131.378 138.989 130.756C139.31 130.252 140.101 130.199 140.231 129.483C140.541 129.243 140.773 128.917 140.897 128.545C141.188 128.012 142.002 127.97 142.091 127.249C141.713 127.195 141.329 127.258 140.988 127.429C141.321 126.901 142.111 126.847 142.247 126.15C142.618 126.023 142.721 125.573 142.955 125.276C143.169 124.69 143.889 124.661 144.186 124.145C144.935 123.277 146.088 122.843 146.688 121.829C146.95 121.266 147.699 121.207 147.913 120.621C149.232 118.71 152.559 117.65 150.184 114.458C149.662 114.143 149.609 113.352 148.893 113.222L149.036 113.292C148.559 112.764 147.854 113.124 147.308 112.857C146.774 112.448 146.127 112.748 145.547 112.552C144.798 111.861 143.879 112.866 143.107 112.341C142.544 112.02 141.908 112.297 141.346 112.095C140.835 111.638 140.158 111.968 139.59 111.748C138.829 111.081 137.928 112.08 137.168 111.531C136.61 111.229 135.987 111.482 135.413 111.303C134.895 110.829 134.225 111.118 133.645 110.98C133.05 110.454 132.327 110.761 131.577 110.702C131.514 110.764 131.43 110.8 131.341 110.8C131.253 110.801 131.168 110.767 131.104 110.705C130.565 110.397 129.941 110.709 129.391 110.483C128.612 109.822 127.728 110.814 126.951 110.272C126.393 109.969 125.77 110.222 125.184 110.067C124.399 109.329 123.486 110.293 122.68 109.898C121.93 109.207 121.017 110.23 120.251 109.663C119.005 108.846 119.746 106.975 118.365 106.224C117.087 105.083 117.808 102.982 116.312 101.955C115.183 101.019 115.777 99.2372 114.513 98.3676C114.473 98.3499 114.437 98.3241 114.407 98.2918C114.378 98.2595 114.355 98.2214 114.341 98.1799C114.327 98.1384 114.321 98.0944 114.325 98.0507C114.328 98.007 114.341 97.9645 114.362 97.926C113.297 96.8894 113.826 95.0906 112.526 94.174C111.032 91.1337 109.932 87.919 108.303 84.9447C107.133 84.0624 107.815 82.1916 106.428 81.4232C106.208 81.1115 105.925 80.8501 105.597 80.6562C105.269 80.4624 104.903 80.3405 104.524 80.2988C104.014 80.0906 103.45 80.0552 102.918 80.198C102.386 80.3408 101.916 80.6539 101.579 81.0894C101.264 81.6114 100.45 81.6532 100.361 82.3741L100.419 82.2556C100.242 82.368 100.095 82.5206 99.9882 82.701C99.8819 82.8815 99.8198 83.0845 99.8071 83.2935C99.1559 83.5902 98.6338 84.1121 98.3369 84.7632C96.1638 89.1961 94.0322 93.6345 92.0724 98.172C91.1437 100.186 90.1913 102.189 89.3514 104.233C89.1766 104.529 89.0255 104.837 88.8744 105.146C87.9504 107.75 85.631 107.833 83.4431 108.128C76.6768 109.515 69.747 108.867 62.9403 109.618C58.7346 110.07 57.5001 111.479 57.0836 115.567C57.165 115.897 57.3142 116.206 57.5217 116.474C57.7291 116.743 57.9902 116.966 58.2883 117.128C58.7517 117.502 58.8517 118.198 59.4266 118.494C60.2679 118.877 59.877 120.215 60.9061 120.455L60.8759 120.366C61.2984 120.794 61.3867 121.513 62.0732 121.732C62.5366 122.107 62.6133 122.85 63.2761 123.057C63.7456 123.449 63.8222 124.192 64.5143 124.37C64.9485 124.774 65.0312 125.535 65.7349 125.688C66.1751 126.11 66.2518 126.853 66.9615 127.025C67.3957 127.429 67.4723 128.172 68.1644 128.349C68.6223 128.765 68.7166 129.502 69.3911 129.686C69.8429 130.084 69.9256 130.845 70.6293 130.998L70.5991 130.91C71.1829 131.659 71.8791 132.312 72.6628 132.848C73.1964 133.139 73.2499 133.93 73.9006 134.102C74.3817 134.47 74.4351 135.26 75.1681 135.384C75.7012 136.366 77.2337 136.809 76.7322 138.342C76.4565 139.707 76.2701 141.089 76.1743 142.478C75.7713 143.031 76.0302 143.672 75.8931 144.252C75.1317 145.025 76.1366 145.944 75.6764 146.733C75.2674 147.267 75.55 147.92 75.3715 148.494C74.6394 149.238 75.6857 150.163 75.1191 150.929C74.8165 151.486 75.093 152.121 74.8908 152.684C74.4404 153.213 74.723 153.866 74.5919 154.463C73.8185 155.201 74.8647 156.126 74.3218 156.903C73.9779 157.455 74.2544 158.09 74.0759 158.665C73.3736 159.437 74.3548 160.345 73.8532 161.128C73.3164 161.923 74.2027 162.784 73.7249 163.579C73.3814 164.19 73.6171 164.879 73.5394 165.517C73.5975 165.59 73.629 165.681 73.6287 165.774C73.6283 165.867 73.5962 165.958 73.5375 166.03C73.2526 166.582 73.5408 167.193 73.3386 167.756C73.6086 170.564 75.8392 171.201 78.6434 171.209Z" fill="#FFB703"/>
<path d="M6.44856 45.5838C3.45811 44.97 0.396764 44.7755 -2.64732 45.0059C-8.33593 45.0644 -14.0178 45.4145 -19.6706 46.0547C-23.5801 46.6227 -27.7862 47.0158 -30.8293 50.4047C-31.8647 51.6012 -32.6347 53.0034 -33.0889 54.519C-33.543 56.0347 -33.6708 57.6293 -33.464 59.198C-33.319 61.1214 -33.987 61.7642 -35.5664 62.1072C-36.2906 62.3549 -37.051 62.4967 -37.7812 62.7267C-39.2565 63.1331 -40.6206 63.8681 -41.7713 64.8767C-42.922 65.8853 -43.8294 67.1414 -44.4255 68.5507C-45.0216 69.96 -45.2909 71.4859 -45.2132 73.0141C-45.1355 74.5423 -44.7129 76.0331 -43.9769 77.3747C-42.867 79.6388 -42.9418 79.8814 -45.5318 80.8463C-48.2941 81.8481 -50.6588 83.7158 -52.273 86.1711C-56.078 91.7739 -52.3211 101.084 -44.0805 101.757C-39.6125 101.955 -35.1468 101.317 -30.9128 99.8764L-30.9881 99.3102C-34.1521 97.8474 -37.2394 99.3771 -40.3369 99.608C-45.5939 99.9859 -49.2761 97.9309 -50.5733 93.6197C-52.0639 88.7434 -49.3595 84.3063 -44.0244 82.5996C-42.5584 82.0981 -40.5063 82.5602 -40.0042 80.3365C-40.1723 79.3327 -40.5719 78.3818 -41.1713 77.5593C-44.2041 71.7505 -41.9558 66.3843 -35.6673 64.2923C-34.0246 63.7303 -32.0325 64.0748 -30.764 62.4768C-30.4914 61.6256 -30.4416 60.7187 -30.6194 59.8427C-31.2714 53.4957 -28.4909 49.7429 -22.1002 48.6418C-14.4157 47.5998 -6.66496 47.1245 1.08926 47.2199C2.85415 47.1883 4.69851 47.5044 6.16362 46.1351L6.44856 45.5838Z" fill="#FFDAEA"/>
<path d="M35.6361 50.1598C34.997 49.5198 34.163 49.1109 33.2656 48.9977C28.8787 48.1703 24.4858 47.3252 20.0869 46.4625C19.0875 46.2348 18.046 46.2715 17.0651 46.5688C17.1195 46.7278 17.1799 46.9044 17.093 47.1117C22.8228 49.6757 29.0735 50.8619 35.3442 50.5753L35.6361 50.1598Z" fill="#FFDAEA"/>
<path d="M75.2666 66.1776C72.4654 63.1781 68.7918 61.1356 64.7657 60.339C64.8201 60.4979 64.7155 60.7113 64.6992 60.8944C67.3464 63.8347 70.8895 65.8197 74.7795 66.5415L75.2666 66.1776Z" fill="#FFDAEA"/>
<path d="M12.5057 101.36C16.3329 102.612 20.3049 103.368 24.3244 103.61C24.2701 103.452 24.3393 103.25 24.3495 103.049C22.7344 101.786 20.84 100.927 18.825 100.545C16.81 100.164 14.7329 100.27 12.7674 100.856L12.5057 101.36Z" fill="#FFDAEA"/>
<path d="M64.7671 60.3387C61.872 58.0345 58.4249 56.5271 54.7677 55.966L54.7012 56.5215C57.5551 59.0966 60.5001 61.2459 64.6453 60.6171L64.7671 60.3387Z" fill="#FFDAEA"/>
<path d="M17.1176 46.6101C13.6955 45.4141 10.0352 45.0621 6.44785 45.5841L6.32606 45.8625C7.83355 46.9972 9.6264 47.6911 11.505 47.8671C13.3835 48.0431 15.274 47.6942 16.966 46.8593L17.1176 46.6101Z" fill="#FFDAEA"/>
<path d="M28.6743 104.786C31.1052 106.193 33.8057 107.071 36.5993 107.363L36.583 106.796C35.7126 105.645 34.5093 104.789 33.1362 104.345C31.7631 103.9 30.2865 103.889 28.9067 104.312L28.6743 104.786Z" fill="#FFDAEA"/>
<path d="M-3.21855 99.3993C-0.590058 100.306 2.21026 100.603 4.97047 100.268L4.95422 99.7011C3.86461 98.8037 2.53428 98.2479 1.13007 98.1035C-0.274146 97.9591 -1.68974 98.2325 -2.93919 98.8894L-3.21855 99.3993Z" fill="#FFDAEA"/>
<path d="M48.6806 53.6879C46.6257 52.3006 44.189 51.5892 41.7103 51.6529L41.6555 52.1846C42.4276 53.1832 43.497 53.9106 44.7094 54.2618C45.9218 54.6131 47.2145 54.57 48.4008 54.1388L48.6806 53.6879Z" fill="#FFDAEA"/>
<path d="M82.0915 70.6103C80.7631 68.342 78.367 67.682 76.181 66.7133C76.1173 66.8732 76.036 67.0391 75.9784 67.2167C76.4075 68.4119 77.2301 69.4257 78.3112 70.092C79.3923 70.7582 80.6678 71.0372 81.9283 70.8832L82.0915 70.6103Z" fill="#FFDAEA"/>
<path d="M59.4668 117.632C59.3157 117.191 59.1647 116.749 59.0136 116.307C57.8075 114.569 56.4098 113.252 54.0606 114.056L53.7334 114.483C55.3936 115.936 57.35 117.011 59.4668 117.632Z" fill="#FFDAEA"/>
<path d="M78.6426 171.209C77.477 171.248 76.3434 170.823 75.4906 170.027C74.6377 169.232 74.1352 168.13 74.0931 166.965C73.5446 170.783 74.6745 171.837 78.6426 171.209Z" fill="#FFDAEA"/>
<path d="M54.8373 55.9422C53.1061 54.5035 50.9309 53.7073 48.68 53.6882L48.5405 53.9727C48.7893 54.5389 49.1513 55.0483 49.6041 55.4695C50.057 55.8907 50.5912 56.2148 51.1739 56.422C51.7567 56.6292 52.3756 56.715 52.9927 56.6742C53.6098 56.6334 54.2121 56.4669 54.7625 56.1848L54.8373 55.9422Z" fill="#FFDAEA"/>
<path d="M41.6752 51.6651C39.9059 50.4594 37.7641 49.9256 35.6359 50.1599L35.5081 50.4207C36.9917 52.9121 39.0834 53.1436 41.5004 51.9616L41.6752 51.6651Z" fill="#FFDAEA"/>
<path d="M47.2457 111.553C48.9139 112.739 50.4603 114.202 52.755 113.99L52.8039 113.44C51.561 111.537 50.0048 110.333 47.5845 111.102C47.4614 111.245 47.3481 111.395 47.2457 111.553Z" fill="#FFDAEA"/>
<path d="M5.04253 100.243C6.81438 101.217 8.88648 101.494 10.8517 101.018C10.7913 100.841 10.7309 100.665 10.8118 100.44C9.03481 98.9365 7.17651 98.349 5.14108 100.012L5.04253 100.243Z" fill="#FFDAEA"/>
<path d="M76.7176 142.391C77.3604 141.113 77.5568 139.657 77.2754 138.255C76.8194 138.83 76.5269 139.518 76.4287 140.246C76.3305 140.974 76.4303 141.715 76.7176 142.391Z" fill="#FFDAEA"/>
<path d="M100.963 155.307C99.6452 155.832 98.5265 156.76 97.7668 157.959C98.4953 157.863 99.1818 157.563 99.7474 157.094C100.313 156.624 100.734 156.005 100.963 155.307Z" fill="#FFDAEA"/>
<path d="M39.1386 108.27C39.5824 108.775 40.143 109.164 40.7715 109.402C41.3999 109.641 42.0773 109.723 42.7446 109.64C42.6841 109.464 42.7887 109.25 42.7989 109.05C42.0446 107.71 41.0067 107.098 39.4653 107.783L39.1386 108.27Z" fill="#FFDAEA"/>
<path d="M43.6806 110.129C44.1004 110.655 44.6498 111.063 45.2748 111.313C45.8998 111.562 46.5789 111.645 47.2456 111.553L47.3563 111.358C46.8404 109.561 45.6913 109.086 44.0078 109.702L43.6806 110.129Z" fill="#FFDAEA"/>
<path d="M77.1677 138.291C78.0866 136.537 76.9009 135.896 75.6036 135.334C75.731 136.514 76.8168 137.208 77.1677 138.291Z" fill="#FFDAEA"/>
<path d="M73.2594 132.92C73.0642 132.472 72.7786 132.069 72.4204 131.737C72.0623 131.404 71.6393 131.15 71.178 130.988C71.2262 131.51 71.4653 131.996 71.8494 132.352C72.2334 132.709 72.7355 132.911 73.2594 132.92Z" fill="#FFDAEA"/>
<path d="M36.545 107.381C36.8483 107.76 37.2531 108.045 37.7122 108.202C38.1713 108.36 38.6657 108.383 39.1377 108.27L39.2306 108.08C38.7352 106.632 37.9236 106.278 36.6375 107.133L36.545 107.381Z" fill="#FFDAEA"/>
<path d="M25.9701 103.975C26.2908 104.347 26.7089 104.621 27.1774 104.768C27.6459 104.914 28.1461 104.927 28.6214 104.804L28.7669 104.537C28.7088 104.297 28.5968 104.074 28.4392 103.883C28.2817 103.693 28.0828 103.541 27.8577 103.439C27.6326 103.337 27.3872 103.288 27.1403 103.296C26.8933 103.303 26.6513 103.366 26.4326 103.481L25.9701 103.975Z" fill="#FFDAEA"/>
<path d="M110.974 158.965C110.744 158.544 110.426 158.177 110.042 157.89C109.657 157.603 109.216 157.402 108.747 157.3C108.86 157.797 109.146 158.237 109.554 158.542C109.962 158.847 110.465 158.997 110.974 158.965Z" fill="#FFDAEA"/>
<path d="M84.5965 167.909C83.5023 168.088 82.5182 168.678 81.8466 169.56C82.8887 169.204 84.1883 169.312 84.5965 167.909Z" fill="#FFDAEA"/>
<path d="M81.8843 169.548C80.7413 169.757 79.6914 170.316 78.8802 171.148C80.0056 170.861 81.3284 170.922 81.8843 169.548Z" fill="#FFDAEA"/>
<path d="M76.2639 146.492C76.4931 146.125 76.6323 145.709 76.6699 145.278C76.7076 144.846 76.6427 144.412 76.4805 144.011C75.6067 144.744 76.0152 145.65 76.2639 146.492Z" fill="#FFDAEA"/>
<path d="M75.7769 150.605C75.993 150.242 76.1276 149.836 76.1712 149.416C76.2148 148.995 76.1664 148.571 76.0293 148.171C75.1903 148.833 75.6105 149.715 75.7769 150.605Z" fill="#FFDAEA"/>
<path d="M62.0246 120.901C61.9277 120.489 61.7461 120.102 61.4913 119.765C61.2366 119.427 60.9143 119.147 60.5451 118.941C60.7761 119.789 60.9132 120.709 62.0246 120.901Z" fill="#FFDAEA"/>
<path d="M86.6422 166.618C86.2107 166.663 85.7957 166.809 85.4306 167.044C85.0654 167.278 84.7603 167.595 84.5394 167.969C85.4235 167.785 86.3257 167.653 86.6422 166.618Z" fill="#FFDAEA"/>
<path d="M88.6742 165.292C88.2553 165.362 87.8557 165.519 87.5008 165.753C87.1459 165.986 86.8434 166.291 86.6127 166.648C87.4192 166.352 88.3395 166.274 88.6742 165.292Z" fill="#FFDAEA"/>
<path d="M75.0146 156.39C75.2474 156.033 75.3931 155.626 75.44 155.202C75.4869 154.778 75.4337 154.349 75.2847 153.95C74.4285 154.677 74.8013 155.536 75.0146 156.39Z" fill="#FFDAEA"/>
<path d="M90.6525 163.865C90.2397 163.947 89.8494 164.117 89.508 164.363C89.1666 164.609 88.8823 164.926 88.6743 165.291C89.4989 165.049 90.395 164.9 90.6525 163.865Z" fill="#FFDAEA"/>
<path d="M104.139 154.496C103.607 153.692 103.059 153.011 102.23 154.222L104.139 154.496Z" fill="#FFDAEA"/>
<path d="M74.4572 162.894C74.6569 162.52 74.7719 162.107 74.7941 161.683C74.8163 161.26 74.7451 160.836 74.5855 160.443C73.9013 161.269 74.2267 162.105 74.4572 162.894Z" fill="#FFDAEA"/>
<path d="M74.5859 160.502C74.8132 160.138 74.9518 159.725 74.9905 159.297C75.0292 158.869 74.9669 158.438 74.8086 158.039C73.9882 158.813 74.3549 159.654 74.5859 160.502Z" fill="#FFDAEA"/>
<path d="M74.4744 134.162C74.3873 133.867 74.2287 133.599 74.0127 133.38C73.7968 133.161 73.5302 132.999 73.2367 132.908C73.2834 133.221 73.4285 133.512 73.651 133.737C73.8735 133.962 74.1619 134.111 74.4744 134.162Z" fill="#FFDAEA"/>
<path d="M71.2089 131.076C71.1426 130.765 70.9921 130.478 70.7737 130.247C70.5553 130.015 70.2775 129.848 69.9707 129.764C69.9854 130.095 70.1185 130.409 70.3458 130.65C70.5731 130.891 70.8794 131.042 71.2089 131.076Z" fill="#FFDAEA"/>
<path d="M74.7801 158.128C74.9742 157.883 75.0994 157.59 75.1427 157.28C75.1859 156.971 75.1456 156.655 75.026 156.366C74.8115 156.601 74.6732 156.894 74.6293 157.209C74.5854 157.523 74.6379 157.844 74.7801 158.128Z" fill="#FFDAEA"/>
<path d="M75.99 148.224C76.1841 147.979 76.3138 147.69 76.3671 147.382C76.4203 147.074 76.3955 146.758 76.2949 146.462C76.0582 146.682 75.9002 146.973 75.8451 147.292C75.79 147.61 75.8409 147.937 75.99 148.224Z" fill="#FFDAEA"/>
<path d="M93.2141 161.667C92.9184 161.734 92.6452 161.877 92.4213 162.082C92.1974 162.286 92.0303 162.545 91.9363 162.834C92.2343 162.772 92.5102 162.63 92.7349 162.425C92.9597 162.22 93.1252 161.958 93.2141 161.667Z" fill="#FFDAEA"/>
<path d="M75.2557 154.039C75.4637 153.798 75.6017 153.505 75.6544 153.191C75.7071 152.877 75.6726 152.555 75.5546 152.259C75.303 152.473 75.135 152.769 75.0803 153.094C75.0256 153.42 75.0877 153.754 75.2557 154.039Z" fill="#FFDAEA"/>
<path d="M76.4579 144.118C76.6601 143.875 76.793 143.582 76.8425 143.27C76.892 142.958 76.8563 142.638 76.7391 142.344C76.4979 142.564 76.3387 142.859 76.2876 143.182C76.2365 143.504 76.2965 143.834 76.4579 144.118Z" fill="#FFDAEA"/>
<path d="M75.5364 152.325C75.734 152.082 75.8601 151.79 75.9004 151.48C75.9407 151.17 75.8937 150.854 75.7647 150.57C75.5631 150.81 75.4344 151.103 75.394 151.414C75.3535 151.725 75.403 152.041 75.5364 152.325Z" fill="#FFDAEA"/>
<path d="M97.7669 157.959C97.4661 158.014 97.185 158.147 96.9515 158.345C96.718 158.542 96.5402 158.798 96.4357 159.085C96.7425 159.046 97.0313 158.918 97.2675 158.718C97.5037 158.519 97.6771 158.255 97.7669 157.959Z" fill="#FFDAEA"/>
<path d="M68.9338 128.52C68.8706 128.212 68.7255 127.926 68.5139 127.693C68.3022 127.46 68.0318 127.288 67.7309 127.196C67.7378 127.524 67.8634 127.84 68.0844 128.083C68.3055 128.326 68.6072 128.482 68.9338 128.52Z" fill="#FFDAEA"/>
<path d="M91.9373 162.834C91.6365 162.889 91.3554 163.022 91.1219 163.22C90.8884 163.417 90.7106 163.672 90.6061 163.96C90.9129 163.92 91.2018 163.793 91.4379 163.593C91.6741 163.393 91.8475 163.13 91.9373 162.834Z" fill="#FFDAEA"/>
<path d="M96.4656 159.055C96.1568 159.107 95.8685 159.244 95.6326 159.45C95.3967 159.656 95.2223 159.924 95.1288 160.223C95.4482 160.199 95.7514 160.073 95.9925 159.862C96.2337 159.652 96.3998 159.368 96.4656 159.055Z" fill="#FFDAEA"/>
<path d="M74.3196 164.915C74.4996 164.628 74.6102 164.304 74.6424 163.968C74.6746 163.631 74.6276 163.292 74.5051 162.977C74.2793 163.242 74.1404 163.57 74.1073 163.916C74.0741 164.263 74.1482 164.611 74.3196 164.915Z" fill="#FFDAEA"/>
<path d="M64.2995 123.457C64.2363 123.148 64.0912 122.862 63.8796 122.629C63.668 122.396 63.3975 122.224 63.0966 122.132C63.1145 122.457 63.2438 122.767 63.4629 123.008C63.6819 123.249 63.9774 123.407 64.2995 123.457Z" fill="#FFDAEA"/>
<path d="M65.4795 124.71C65.4009 124.405 65.2461 124.124 65.0295 123.894C64.813 123.665 64.5418 123.494 64.2413 123.398C64.2633 123.726 64.3989 124.037 64.6248 124.276C64.8507 124.516 65.1529 124.669 65.4795 124.71Z" fill="#FFDAEA"/>
<path d="M66.6391 125.971C66.5813 125.658 66.436 125.368 66.2199 125.135C66.0038 124.901 65.7259 124.734 65.4185 124.652C65.4234 124.984 65.5507 125.302 65.776 125.545C66.0014 125.789 66.3088 125.94 66.6391 125.971Z" fill="#FFDAEA"/>
<path d="M67.7901 127.254C67.7308 126.939 67.5844 126.647 67.3676 126.411C67.1509 126.175 66.8723 126.004 66.5635 125.918C66.5723 126.251 66.7013 126.57 66.9268 126.816C67.1522 127.061 67.4588 127.217 67.7901 127.254Z" fill="#FFDAEA"/>
<path d="M60.5519 118.958C60.5011 118.649 60.3688 118.36 60.1687 118.12C59.9686 117.879 59.7079 117.697 59.4136 117.591C59.4475 117.906 59.5737 118.203 59.7762 118.447C59.9787 118.69 60.2486 118.868 60.5519 118.958Z" fill="#FFDAEA"/>
<path d="M75.6822 135.386C75.5965 135.083 75.4353 134.806 75.2137 134.582C74.992 134.357 74.7172 134.193 74.4147 134.103C74.5737 134.799 74.8791 135.345 75.6822 135.386Z" fill="#FFDAEA"/>
<path d="M63.157 122.19C63.0902 121.879 62.9452 121.591 62.7357 121.352C62.5262 121.113 62.259 120.931 61.9597 120.824C61.9642 121.157 62.0873 121.477 62.3067 121.728C62.5261 121.978 62.8276 122.142 63.157 122.19Z" fill="#FFDAEA"/>
<path d="M24.3254 103.61C24.5516 103.796 24.8183 103.925 25.1039 103.989C25.3895 104.052 25.6859 104.047 25.9694 103.975L26.0684 103.803C25.7361 102.832 25.1225 102.884 24.4123 103.403L24.3254 103.61Z" fill="#FFDAEA"/>
<path d="M102.283 154.204C101.968 154.255 101.673 154.393 101.431 154.601C101.189 154.809 101.009 155.08 100.911 155.384C101.239 155.371 101.554 155.247 101.803 155.033C102.052 154.819 102.221 154.526 102.283 154.204Z" fill="#FFDAEA"/>
<path d="M95.1625 160.152C94.8264 160.23 94.5125 160.384 94.2451 160.602C93.9777 160.82 93.7638 161.096 93.6198 161.41C94.3565 161.256 95.004 161.015 95.1625 160.152Z" fill="#FFDAEA"/>
<path d="M10.8513 101.018C11.0762 101.21 11.3459 101.342 11.6353 101.401C11.9248 101.461 12.2246 101.446 12.507 101.359L12.6413 101.175C12.1979 100.34 11.6015 100.327 10.9331 100.911L10.8513 101.018Z" fill="#FFDAEA"/>
<path d="M70.0819 129.805C70.0242 129.492 69.8788 129.202 69.6628 128.968C69.4467 128.735 69.1688 128.568 68.8614 128.486C68.8813 128.813 69.0138 129.123 69.2363 129.363C69.4588 129.603 69.7576 129.759 70.0819 129.805Z" fill="#FFDAEA"/>
<path d="M74.0955 167.082C74.2808 166.839 74.3971 166.551 74.4321 166.247C74.4672 165.943 74.4196 165.636 74.2944 165.357C74.0993 165.595 73.9768 165.885 73.9415 166.191C73.9062 166.496 73.9597 166.806 74.0955 167.082Z" fill="#FFDAEA"/>
<path d="M111.882 159.542C111.793 159.349 111.648 159.187 111.467 159.077C111.285 158.967 111.074 158.914 110.862 158.924L111.882 159.542Z" fill="#FFDAEA"/>
<path d="M42.7446 109.64L43.6811 110.129L43.815 109.886C43.6519 109.409 43.2963 109.235 42.8082 109.48L42.7446 109.64Z" fill="#FFDAEA"/>
<path d="M107.835 156.705C107.751 156.522 107.614 156.368 107.441 156.265C107.269 156.162 107.068 156.114 106.868 156.128L107.835 156.705Z" fill="#FFDAEA"/>
<path d="M52.7561 113.989L53.6634 114.508L53.8149 114.258C53.7903 114.157 53.7431 114.063 53.6769 113.983C53.6107 113.902 53.5272 113.838 53.4326 113.794C53.338 113.751 53.2348 113.729 53.1307 113.731C53.0266 113.733 52.9242 113.759 52.8314 113.806L52.7561 113.989Z" fill="#FFDAEA"/>
<path d="M106.921 156.169C106.826 155.986 106.681 155.834 106.502 155.731C106.323 155.627 106.119 155.577 105.913 155.586L106.921 156.169Z" fill="#FFDAEA"/>
<path d="M105.984 155.621C105.889 155.435 105.741 155.281 105.558 155.178C105.376 155.076 105.167 155.029 104.958 155.045L105.984 155.621Z" fill="#FFDAEA"/>
<path d="M108.724 157.288C108.642 157.112 108.512 156.961 108.35 156.853C108.188 156.745 107.999 156.684 107.805 156.676L108.724 157.288Z" fill="#FFDAEA"/>
<path d="M105.071 155.085C104.986 154.892 104.845 154.73 104.666 154.618C104.487 154.507 104.279 154.452 104.068 154.462C104.365 154.636 104.703 154.876 105.071 155.085Z" fill="#FFDAEA"/>
<path d="M76.1807 66.7134C75.8842 66.5386 75.57 66.3699 75.2674 66.1775L75.1275 66.4029C75.1421 66.504 75.1784 66.6008 75.2338 66.6865C75.2893 66.7723 75.3627 66.8451 75.4488 66.8999C75.535 66.9547 75.6321 66.9903 75.7333 67.0041C75.8345 67.018 75.9375 67.0098 76.0352 66.9802L76.1807 66.7134Z" fill="#FFDAEA"/>
<path d="M-31.1257 62.2256C-32.1279 62.4106 -33.124 62.6132 -34.1145 62.7745C-38.4066 63.493 -41.8862 65.4331 -43.3815 69.7131C-44.8769 73.993 -43.2422 77.6757 -39.8542 80.6008C-37.8881 82.138 -35.6389 81.3883 -33.5863 81.1596C-8.24982 78.1746 17.4333 80.8439 41.6144 88.9752C54.881 93.5699 67.6041 99.6048 79.5557 106.972C81.4341 108.313 83.6343 109.133 85.9324 109.348C89.6639 110.163 90.1729 108.825 91.0863 105.612C90.4626 105.333 89.8766 104.977 89.3423 104.551C83.7184 99.3462 77.3684 94.9855 70.4912 91.6055C43.8131 78.7921 15.5248 72.9221 -13.9107 72.0613C-21.8024 71.7828 -29.7027 72.2461 -37.5078 73.4451C-0.518634 69.3451 36.8815 75.6252 70.5028 91.5818C77.3541 94.9681 83.6893 99.3112 89.3182 104.481C89.8687 104.919 90.4477 105.321 91.0514 105.683C92.3611 103.494 93.3956 101.153 94.1314 98.7105C94.3494 96.4064 92.5697 95.2988 91.1613 94.1232C82.1184 86.7873 72.1719 80.6416 61.5652 75.8367C33.667 62.5134 4.09861 58.265 -26.5162 60.5895C-27.3568 60.5167 -28.2033 60.6251 -28.9985 60.9073C-29.7937 61.1895 -30.5191 61.6391 -31.1257 62.2256Z" fill="#FFB703"/>
<path d="M85.9312 109.348C73.8954 101.586 61.0925 95.0834 47.725 89.943C21.2913 79.9222 -7.20962 76.5912 -35.2417 80.2462C-36.7691 80.453 -38.2978 80.4828 -39.8261 80.5715C-41.5645 80.9689 -43.3396 81.2013 -45.0237 81.7576C-51.3949 83.8385 -54.0625 89.94 -51.2718 95.733C-50.2381 97.5818 -48.6607 99.0679 -46.7536 99.9897C-44.8465 100.911 -42.702 101.224 -40.611 100.886C-38.2159 100.678 -35.8286 100.216 -33.4404 99.8729C-32.585 99.619 -31.6791 99.5875 -30.8082 99.7814C-29.3318 99.2182 -27.7366 99.0391 -26.1721 99.2608C-21.786 98.416 -17.2975 98.2374 -12.8581 98.7312C-10.431 98.3299 -7.94758 98.4269 -5.55916 99.0162C-4.76234 98.7645 -3.89919 98.8296 -3.14913 99.198C-0.392552 98.9907 2.37887 99.2788 5.03385 100.049C6.99446 99.8871 8.96626 100.17 10.8022 100.877C11.0885 100.79 11.3906 100.769 11.6863 100.815C11.9819 100.86 12.2635 100.972 12.5103 101.141C16.5341 101.32 20.5091 102.095 24.3058 103.439C24.5938 103.37 24.8942 103.37 25.1822 103.439C25.4701 103.509 25.7374 103.646 25.9619 103.84C26.9223 103.726 27.8895 103.989 28.6597 104.574C31.4205 104.949 34.0888 105.829 36.5316 107.169C37.4854 107.142 38.4133 107.481 39.1248 108.116C40.4376 108.182 41.6931 108.674 42.7015 109.517C42.8903 109.486 43.0841 109.507 43.2616 109.579C43.4391 109.65 43.5937 109.769 43.7083 109.922C45.0127 110.035 46.2502 110.549 47.2501 111.394C49.2373 111.783 51.1095 112.62 52.7242 113.842L53.7077 114.295C55.6278 114.486 57.0032 115.969 58.8364 116.368C59.7828 112.098 60.0873 111.777 64.2469 111.479C69.4509 111.119 74.6609 110.777 79.8785 110.63C81.95 110.517 83.9916 110.084 85.9312 109.348Z" fill="#ED2626"/>
<path d="M-31.1257 62.2256C-5.90256 59.3945 19.6342 61.9423 43.8008 69.7009C57.5893 73.9611 70.0187 81.0538 82.0581 88.8522C85.5128 91.0375 88.7962 93.4825 91.8799 96.1661C92.8046 96.8489 93.569 97.7254 94.1198 98.7342C96.507 94.425 98.5904 89.9545 100.355 85.3552C99.1403 84.601 98.0775 83.6263 97.2213 82.4812C96.7676 82.3452 96.346 82.1193 95.9816 81.8168C95.6171 81.5144 95.3173 81.1417 95.0999 80.7209C94.1553 80.4647 93.3491 79.8478 92.8549 79.003C91.693 78.5201 90.689 77.7224 89.9559 76.6998C87.0985 75.0733 84.4184 73.1535 81.9589 70.9713C79.8108 69.9718 77.8245 68.6562 76.0661 67.0682C75.8752 67.0698 75.688 67.0162 75.5269 66.9137C75.3658 66.8113 75.2378 66.6645 75.1584 66.4909L64.7462 60.6811C61.307 59.4318 57.9612 57.939 54.7343 56.2141C52.5555 55.8138 50.4549 55.0669 48.5123 54.002C46.1128 53.6635 43.7761 52.9738 41.5774 51.9549C39.4997 51.8295 37.4655 51.3064 35.5851 50.4139L17.0559 46.8876C13.4893 46.8219 9.93268 46.4888 6.41595 45.8909C-0.96804 46.0493 -8.33064 45.9241 -15.6747 46.6607C-17.9457 46.8852 -20.2168 47.1097 -22.5046 47.4582C-30.4176 48.6657 -34.4239 55.6987 -31.1257 62.2256Z" fill="#219EBC"/>
<path d="M98.7501 128.422C99.3318 128.167 99.8853 127.852 100.402 127.482C103.164 125.176 102.817 118.567 99.8551 116.541C99.3264 116.185 98.7298 115.942 98.1026 115.827C97.4755 115.712 96.8314 115.728 96.2107 115.874C95.59 116.019 95.0061 116.292 94.4955 116.674C93.9849 117.055 93.5588 117.539 93.2437 118.093C92.5813 119.26 92.1913 120.561 92.1026 121.9C92.014 123.239 92.2291 124.581 92.7318 125.825C93.2184 126.94 94.1107 127.829 95.2282 128.311C96.3456 128.794 97.6046 128.833 98.7501 128.422Z" fill="#FFF8FB"/>
<path d="M98.125 140.553C97.922 139.519 97.3763 138.583 96.5761 137.898C95.7759 137.212 94.7679 136.816 93.715 136.774C92.6788 136.776 91.6753 137.137 90.8753 137.795C90.0753 138.454 89.5284 139.369 89.3276 140.386C88.7508 142.099 88.6955 143.944 89.1685 145.688C89.4064 146.69 89.9738 147.582 90.7796 148.222C91.5854 148.863 92.5829 149.214 93.6121 149.219C94.6452 149.214 95.6475 148.867 96.4619 148.231C97.2764 147.596 97.8569 146.708 98.1124 145.707C98.4845 144.009 98.4888 142.252 98.125 140.553Z" fill="#FFF8FB"/>
<path d="M74.4331 125.278C74.7626 126.453 75.5329 127.457 76.5836 128.078C77.6343 128.7 78.8843 128.893 80.0735 128.616C80.768 128.377 81.4063 127.999 81.9495 127.505C82.4927 127.01 82.9292 126.41 83.2324 125.742C83.5355 125.073 83.6989 124.349 83.7125 123.614C83.7261 122.88 83.5896 122.151 83.3115 121.471C83.18 120.88 82.9314 120.321 82.5804 119.827C82.2293 119.334 81.783 118.915 81.2677 118.597C80.7524 118.278 80.1785 118.066 79.5799 117.973C78.9814 117.88 78.3702 117.908 77.7826 118.055C76.4147 118.613 75.3088 119.668 74.6873 121.008C74.0659 122.348 73.975 123.873 74.4331 125.278Z" fill="#FFF7F9"/>
<path d="M87.7018 153.51C87.6079 153.009 87.406 152.534 87.1101 152.119C86.8142 151.704 86.4314 151.359 85.9884 151.106C85.5453 150.854 85.0527 150.702 84.5447 150.659C84.0367 150.617 83.5255 150.685 83.0468 150.861C81.9895 151.305 81.1173 152.1 80.576 153.111C80.0348 154.122 79.8575 155.289 80.0738 156.415C80.2068 156.948 80.4485 157.447 80.7837 157.881C81.1189 158.315 81.5403 158.675 82.0215 158.939C82.5026 159.202 83.033 159.363 83.5794 159.412C84.1258 159.46 84.6764 159.395 85.1964 159.221C86.2834 158.792 87.1569 157.952 87.6263 156.882C88.0956 155.812 88.1228 154.6 87.7018 153.51Z" fill="#FFF7F7"/>
<path d="M71.1425 91.1461C67.2267 88.783 63.0619 86.8596 58.7238 85.411C31.5146 74.6812 2.33268 69.8673 -26.8811 71.2897C-30.7642 71.4737 -34.7439 72.1249 -38.6716 72.6398C-39.2759 72.6338 -39.8752 72.7501 -40.4334 72.9818C-40.9916 73.2134 -41.4972 73.5556 -41.9197 73.9877C-40.7986 75.4194 -39.3172 74.6167 -38.1556 74.4363C-29.5599 73.1378 -20.8589 72.672 -12.1736 73.0455C15.7516 73.7199 43.2456 80.0846 68.6265 91.7503C69.2134 91.9901 69.812 92.2002 70.4202 92.3797C71.3233 92.3667 71.6268 91.9274 71.1425 91.1461Z" fill="#F8F4FA"/>
<path d="M71.1423 91.146L70.42 92.3796C77.1594 96.037 83.5042 100.379 89.3538 105.337C90.21 105.359 90.3783 104.986 90.0771 104.221C84.6753 98.6735 78.2437 94.2323 71.1423 91.146Z" fill="#EAE8F1"/>
<path d="M90.0957 104.274C90.09 104.509 90.0194 104.737 89.8918 104.934C89.7641 105.131 89.5843 105.289 89.3724 105.389C89.8563 106.112 90.4624 105.865 91.0922 105.63C90.9574 105.005 90.8171 104.422 90.0957 104.274Z" fill="#A58DAD"/>
<path d="M60.385 109.702C61.6619 109.167 62.1987 108.372 61.7943 107.247C61.5457 106.628 61.1358 106.087 60.6072 105.68C58.3142 103.886 55.7709 102.436 53.0583 101.377C52.7505 101.207 52.4105 101.103 52.0602 101.073C51.7099 101.042 51.357 101.085 51.0243 101.199C50.6916 101.312 50.3864 101.495 50.1283 101.733C49.8702 101.972 49.665 102.262 49.5257 102.585C49.3677 102.906 49.2818 103.257 49.2739 103.614C49.2661 103.971 49.3365 104.325 49.4803 104.652C49.6241 104.979 49.8378 105.27 50.1063 105.506C50.3748 105.741 50.6916 105.915 51.0345 106.015C53.511 107.141 56.1111 108.225 58.6936 109.314C59.2385 109.515 59.807 109.646 60.385 109.702Z" fill="#FFF6F9"/>
<path d="M3.41906 92.0385C4.66801 91.7099 5.72266 91.4478 5.93742 90.23C6.02863 89.6536 5.88943 89.0646 5.54989 88.59C5.21036 88.1155 4.69774 87.7936 4.12283 87.6939C1.90419 86.6929 -0.533974 86.2771 -2.959 86.4862C-4.96978 86.7795 -6.08301 87.8509 -5.94173 89.302C-5.88827 90.0263 -5.56093 90.703 -5.02628 91.1945C-4.49164 91.6859 -3.78985 91.9553 -3.06367 91.9478C-0.915391 92.2533 1.26307 92.2838 3.41906 92.0385Z" fill="#FFF6F9"/>
<path d="M22.917 95.687C23.4534 95.611 23.9518 95.3665 24.3403 94.9889C24.7289 94.6113 24.9875 94.1201 25.0788 93.5861C25.1235 93.1435 25.0308 92.6979 24.8134 92.3099C24.5959 91.9218 24.2642 91.6102 23.8634 91.4173C21.6564 90.0897 19.0518 89.5833 16.5082 89.9874C15.9234 90.046 15.3762 90.3028 14.9574 90.7152C14.5387 91.1277 14.2735 91.6709 14.206 92.2547C14.1209 92.8323 14.2485 93.4212 14.5651 93.9117C14.8817 94.4022 15.3657 94.761 15.9271 94.9214C18.1833 95.6371 20.5593 95.8974 22.917 95.687Z" fill="#FFF4F6"/>
<path d="M32.5044 97.1227C32.6045 97.3607 32.7228 97.5907 32.8582 97.8106C33.7548 99.2204 40.5014 101.352 42.0841 100.672C43.2843 100.143 43.3652 99.1685 42.8079 98.1161C41.9211 96.4465 36.269 93.8816 34.3656 94.3157C34.0441 94.3461 33.7336 94.4481 33.4566 94.614C33.1797 94.78 32.9433 95.0058 32.7649 95.2749C32.5865 95.544 32.4705 95.8496 32.4254 96.1693C32.3804 96.489 32.4074 96.8147 32.5044 97.1227Z" fill="#FFF6FA"/>
<path d="M56.0557 69.7703C56.3268 70.5586 56.8827 71.2172 57.6144 71.6166C58.3461 72.0161 59.2006 72.1277 60.0103 71.9294C60.3556 71.8503 60.6793 71.696 60.9581 71.4775C61.2369 71.2589 61.4641 70.9815 61.6234 70.6651C61.7828 70.3487 61.8703 70.001 61.8799 69.6469C61.8894 69.2927 61.8207 68.9408 61.6786 68.6163C61.4268 67.8223 60.886 67.1519 60.1634 66.7377C59.4407 66.3235 58.5888 66.1959 57.7765 66.38C57.1046 66.6096 56.5487 67.0924 56.2274 67.7256C55.906 68.3588 55.8444 69.0924 56.0557 69.7703Z" fill="#EFF4F6"/>
<path d="M5.58405 57.3623C5.659 57.7337 5.80907 58.086 6.02505 58.3973C6.24102 58.7087 6.51833 58.9727 6.83997 59.173C7.16162 59.3734 7.52082 59.5059 7.89552 59.5624C8.27022 59.619 8.65252 59.5984 9.01896 59.5019C9.39782 59.4715 9.76537 59.3583 10.0956 59.1702C10.4259 58.9821 10.7108 58.7238 10.9303 58.4135C11.1497 58.1032 11.2983 57.7484 11.3655 57.3743C11.4328 57.0003 11.417 56.616 11.3194 56.2487C11.1475 55.5027 10.6888 54.8545 10.0426 54.4441C9.39634 54.0338 8.61454 53.8944 7.86632 54.0561C7.48967 54.1026 7.12713 54.2282 6.80254 54.4249C6.47796 54.6215 6.19869 54.8846 5.9831 55.1969C5.7675 55.5092 5.62048 55.8637 5.55171 56.2369C5.48293 56.6101 5.49395 56.9936 5.58405 57.3623Z" fill="#F2F6F9"/>
<path d="M25.6107 61.2249C25.9539 61.1751 26.2827 61.0535 26.5757 60.8679C26.8686 60.6823 27.1191 60.437 27.3108 60.1479C27.5024 59.8589 27.6309 59.5327 27.6878 59.1906C27.7447 58.8485 27.7288 58.4982 27.641 58.1627C27.395 57.3889 26.8648 56.737 26.1573 56.3383C25.4499 55.9397 24.6176 55.8239 23.8282 56.0143C23.1641 56.2202 22.6084 56.6805 22.2825 57.2948C21.9566 57.909 21.887 58.6272 22.0888 59.2926C22.3032 60.0135 22.7933 60.6207 23.4527 60.9825C24.112 61.3443 24.8875 61.4314 25.6107 61.2249Z" fill="#F2F6F9"/>
<path d="M43.3643 65.3125C43.6591 65.2071 43.9293 65.0426 44.1582 64.829C44.3871 64.6154 44.5699 64.3573 44.6954 64.0704C44.8208 63.7836 44.8863 63.4741 44.8878 63.161C44.8893 62.848 44.8267 62.5379 44.7039 62.2499C44.602 61.9507 44.4403 61.6753 44.2287 61.4405C44.0171 61.2057 43.76 61.0163 43.4729 60.8839C43.1859 60.7514 42.875 60.6787 42.559 60.67C42.2431 60.6614 41.9286 60.717 41.6348 60.8336C41.3412 60.9326 41.0716 61.0919 40.8432 61.3014C40.6149 61.5108 40.4329 61.7657 40.3089 62.0497C40.185 62.3336 40.1218 62.6404 40.1234 62.9502C40.125 63.2601 40.1915 63.5661 40.3184 63.8488C40.5706 64.4138 41.0152 64.8711 41.573 65.1391C42.1307 65.4072 42.7655 65.4686 43.3643 65.3125Z" fill="#ECF1F1"/>
<path d="M83.3892 84.1548C83.4593 84.4508 83.5871 84.7301 83.7652 84.9767C83.9433 85.2233 84.1682 85.4324 84.4271 85.5921C84.686 85.7518 84.9738 85.8589 85.2741 85.9073C85.5744 85.9558 85.8813 85.9446 86.1773 85.8745C86.4733 85.8043 86.7526 85.6765 86.9992 85.4984C87.2458 85.3204 87.4549 85.0954 87.6146 84.8365C87.937 84.3136 88.0386 83.6841 87.8969 83.0863C87.7552 82.4886 87.3819 81.9716 86.859 81.6491C86.3361 81.3266 85.7065 81.225 85.1088 81.3667C84.511 81.5084 83.994 81.8818 83.6715 82.4046C83.349 82.9275 83.2475 83.5571 83.3892 84.1548Z" fill="#E8F0EF"/>
<path d="M74.2783 78.5708C74.5453 78.497 74.7925 78.3648 75.0021 78.1837C75.2116 78.0025 75.3782 77.7771 75.4899 77.5235C75.6015 77.27 75.6553 76.9949 75.6473 76.718C75.6394 76.4411 75.57 76.1695 75.4441 75.9228C75.3607 75.643 75.2164 75.3852 75.0217 75.1678C74.8269 74.9504 74.5865 74.7787 74.3175 74.6652C74.0486 74.5516 73.7579 74.4989 73.4663 74.511C73.1746 74.523 72.8892 74.5994 72.6306 74.7347C72.1621 74.8949 71.7765 75.2347 71.5586 75.6793C71.3407 76.1238 71.3083 76.6367 71.4685 77.1052C71.5313 77.4015 71.6588 77.6803 71.8419 77.9215C72.025 78.1628 72.2593 78.3605 72.5278 78.5006C72.7963 78.6406 73.0925 78.7196 73.3952 78.7317C73.6978 78.7439 73.9994 78.6889 74.2783 78.5708Z" fill="#E1F0EF"/>
</g>
<defs>
<clipPath id="clip0_95_2940">
<rect width="186.174" height="168.384" fill="white" transform="matrix(-0.946169 0.323673 0.323673 0.946169 111.322 0.336121)"/>
</clipPath>
</defs>
</svg>
