<svg width="67" height="65" viewBox="0 0 67 65" fill="none" xmlns="http://www.w3.org/2000/svg">
<path fill-rule="evenodd" clip-rule="evenodd" d="M4.58276 15.6213C5.58167 14.0926 7.19995 13.8881 8.8873 14.0635C12.8123 14.4752 16.7471 14.8034 20.6568 15.3262C23.9255 15.763 26.5521 15.3368 28.6516 12.2906C31.045 8.81933 33.9617 5.7076 36.6495 2.44044C37.7203 1.13813 38.8903 0.205154 40.7845 0.585878C40.832 0.595691 40.8756 0.608256 40.9227 0.618854C40.9686 0.630236 41.0129 0.638865 41.06 0.651818C42.9244 1.16167 43.5508 2.52011 43.9233 4.16429C44.8579 8.29102 46.0675 12.3809 46.6476 16.5571C47.1567 20.2206 49.3115 21.7812 52.4288 22.8586C56.1567 24.1464 59.8211 25.6198 63.5121 27.0152C65.0998 27.6145 66.4535 28.5239 66.66 30.3385C66.877 32.2448 65.7792 33.4172 64.1794 34.3463C60.0052 36.7703 55.9047 39.32 51.7435 41.7676C50.1582 42.6998 49.3618 43.9009 49.2911 45.8222C49.118 50.4953 48.8052 55.1648 48.4217 59.8265C48.2801 61.5519 48.125 63.4964 46.1358 64.2574C44.2291 64.9863 42.7811 63.9548 41.4066 62.7251C37.9691 59.6526 34.4825 56.6343 31.0321 53.5764C30.2679 52.8977 29.5049 52.473 28.6716 52.2921C27.8462 52.0798 26.9736 52.1175 25.9861 52.3796C21.5289 53.5642 17.0599 54.6946 12.6082 55.8984C10.8282 56.3792 9.07099 56.6512 7.69489 55.1432C6.25913 53.5701 6.99349 51.7634 7.64111 50.1581C9.39126 45.8206 11.2081 41.507 13.1522 37.2547C13.9509 35.5053 13.7786 34.0754 12.7805 32.5302C10.161 28.4757 7.6419 24.356 5.00038 20.316C3.98773 18.7676 3.53243 17.229 4.58276 15.6213Z" fill="#F9D555"/>
<path d="M23.6616 24.0554C24.5656 21.8719 26.1638 19.6099 28.8195 20.0491C31.2918 20.4577 31.7793 23.485 31.839 25.5096C31.879 26.8656 29.7791 26.9708 29.7391 25.6167C29.7046 24.4883 29.7069 22.4959 28.363 22.1003C26.9017 21.6709 25.935 24.0345 25.5197 25.0393C25.0024 26.2902 23.1467 25.298 23.6616 24.0554Z" fill="#074785"/>
<path d="M38.5169 27.0505C39.462 24.8847 41.1011 22.651 43.7466 23.1385C46.2126 23.5922 46.6444 26.6289 46.6672 28.6558C46.6825 30.0103 44.5806 30.077 44.5645 28.7217C44.5516 27.5941 44.5904 25.6026 43.2536 25.1814C41.8002 24.7253 40.7907 27.0725 40.3573 28.0682C39.8177 29.3097 37.9808 28.2841 38.5169 27.0505Z" fill="#074785"/>
<path d="M31.751 30.9272C32.8649 31.5595 33.7449 32.465 35.0527 32.6161C36.1383 32.7409 37.3657 32.4183 38.4364 32.2727C39.4263 32.1408 40.4319 32.2637 40.9194 33.2386C41.598 34.5994 41.3433 36.633 40.6187 37.9262C39.8965 39.2117 38.6546 40.2545 37.297 40.8139C36.5901 41.1051 35.727 41.3665 34.9597 41.4065C31.4594 41.5914 28.6377 39.1128 27.5819 35.8633C26.5943 33.0216 28.4155 29.0369 31.751 30.9272Z" fill="#074785"/>
<path d="M27.8706 36.6185C28.9476 35.9744 30.2908 35.6969 31.5534 35.8366C34.6381 36.1455 35.2759 38.995 34.4917 41.4089C31.4828 41.3645 29.0328 39.3459 27.8706 36.6185Z" fill="#FD6085"/>
<path fill-rule="evenodd" clip-rule="evenodd" d="M24.7086 30.3793C24.5414 31.8261 22.9109 32.8254 21.0674 32.613C19.2238 32.3999 17.8638 31.0544 18.031 29.6088C18.1982 28.1625 19.8279 27.1628 21.6714 27.3759C23.5158 27.5879 24.8758 28.9333 24.7086 30.3793Z" fill="#FD6085"/>
<path fill-rule="evenodd" clip-rule="evenodd" d="M50.7722 35.8303C50.4963 37.2594 48.7944 38.1323 46.9713 37.7799C45.1489 37.4274 43.8964 35.9822 44.1724 34.5531C44.4491 33.124 46.151 32.2511 47.9733 32.6036C49.7957 32.9557 51.049 34.4008 50.7722 35.8303Z" fill="#FD6085"/>
<path d="M16.9699 45.1318C16.7245 44.8947 16.2347 41.5738 15.7884 41.6016C15.3422 41.6283 14.9528 44.921 14.7452 45.138C14.326 45.5733 11.2649 45.881 11.2892 46.3034C11.3151 46.7241 14.3213 46.9227 14.7459 47.3345C14.983 47.5637 15.4811 50.8929 15.9274 50.867C16.3736 50.8411 16.7551 47.5574 16.9722 47.3329C17.3761 46.9129 20.4611 46.5883 20.4356 46.1644C20.4113 45.7409 17.3784 45.5286 16.9699 45.1318Z" fill="white"/>
<path d="M35.7244 17.1077C35.611 16.9974 35.3825 15.4549 35.1765 15.4671C34.9688 15.48 34.7879 17.0096 34.6913 17.1101C34.4967 17.3126 33.0738 17.4559 33.086 17.6521C33.0974 17.8476 34.4943 17.9394 34.6913 18.1314C34.8016 18.2377 35.0332 19.7842 35.2408 19.7728C35.4477 19.7606 35.6251 18.235 35.726 18.1298C35.9132 17.9351 37.3466 17.7848 37.3352 17.5878C37.3238 17.3915 35.9147 17.2926 35.7244 17.1077Z" fill="white"/>
<path d="M36.1124 47.8278C35.9989 47.7176 35.7713 46.175 35.5644 46.1872C35.3568 46.2002 35.1759 47.7297 35.0793 47.831C34.8846 48.0335 33.4626 48.1768 33.4732 48.3722C33.4854 48.5677 34.8823 48.6596 35.0801 48.8515C35.1904 48.9579 35.4212 50.5051 35.6288 50.4929C35.8356 50.4808 36.0131 48.9551 36.1139 48.8507C36.3015 48.6552 37.7353 48.5041 37.7232 48.3071C37.7114 48.1105 36.3023 48.0123 36.1124 47.8278Z" fill="white"/>
<path d="M9.96834 22.2204C9.23319 20.9433 8.37519 19.7104 7.8151 18.3414C7.61335 17.8476 7.17258 17.5034 6.61091 17.6569C6.14266 17.7864 5.72386 18.3669 5.92718 18.8618C6.55675 20.3996 7.45204 21.7734 8.27746 23.2084C8.90664 24.303 10.5995 23.3155 9.96834 22.2204Z" fill="white"/>
<path d="M10.8689 24.4436C9.60621 24.4436 9.60621 26.4029 10.8689 26.4029C12.1323 26.4029 12.1323 24.4436 10.8689 24.4436Z" fill="white"/>
<path d="M23.0564 41.9325C21.7937 41.9325 21.7937 43.8903 23.0564 43.8903C24.3198 43.8907 24.3198 41.9325 23.0564 41.9325Z" fill="white"/>
<path d="M40.9797 11.4244C39.717 11.4244 39.717 13.3829 40.9797 13.3829C42.2432 13.3829 42.2432 11.4244 40.9797 11.4244Z" fill="white"/>
<path d="M60.7298 32.9074C60.4417 32.4152 59.8734 32.3308 59.3906 32.5557C58.1585 33.1307 56.9803 33.8062 55.767 34.417C54.6394 34.9841 55.6305 36.6738 56.7557 36.1082C57.9686 35.4971 59.1476 34.822 60.3789 34.2478C60.8625 34.0213 60.9806 33.3352 60.7298 32.9074Z" fill="white"/>
<path d="M62.3494 30.9202C61.086 30.9202 61.086 32.8795 62.3494 32.8795C63.6129 32.8799 63.6129 30.9202 62.3494 30.9202Z" fill="white"/>
<path d="M36.0015 6.61313C35.5493 6.26655 34.9912 6.40235 34.6285 6.79328C33.705 7.78983 32.8678 8.86017 31.9744 9.88342C31.1443 10.8356 32.7005 12.0253 33.5283 11.0762C34.4205 10.053 35.2577 8.98264 36.1816 7.98687C36.5447 7.59594 36.3951 6.91496 36.0015 6.61313Z" fill="white"/>
<path d="M36.7507 4.16235C35.5815 4.63923 36.3198 6.45297 37.4898 5.97609C38.6595 5.50077 37.9204 3.68625 36.7507 4.16235Z" fill="white"/>
<path d="M46.6622 50.0188C46.7618 48.76 44.8092 48.5983 44.711 49.857C44.5721 51.6162 44.609 53.384 44.4704 55.1436C44.3715 56.4016 46.3234 56.5633 46.4223 55.3045C46.5609 53.545 46.524 51.7771 46.6622 50.0188Z" fill="white"/>
<path d="M45.3382 57.2156C44.0748 57.2156 44.0748 59.1742 45.3382 59.1742C46.6005 59.1742 46.6005 57.2156 45.3382 57.2156Z" fill="white"/>
<path d="M26.151 63.8084C26.8975 61.4471 27.6436 59.0855 28.3902 56.7242C28.7721 55.5169 26.8782 55.0125 26.4999 56.2112C25.7533 58.5733 25.0064 60.9341 24.2599 63.2954C23.8788 64.5035 25.7714 65.0071 26.151 63.8084Z" fill="#FFA4AC"/>
<path d="M52.9918 19.0372C54.8408 17.3899 56.6891 15.7418 58.5382 14.0949C59.4841 13.2526 58.1143 11.8502 57.175 12.6874C55.326 14.3347 53.4777 15.9824 51.6286 17.6297C50.6835 18.4724 52.0525 19.8737 52.9918 19.0372Z" fill="#FFA4AC"/>
<path d="M1.0489 35.7232C3.52125 35.5776 5.9936 35.4311 8.46516 35.2863C9.73018 35.2106 9.52452 33.2626 8.26891 33.3368C5.79735 33.4824 3.32501 33.628 0.853441 33.7736C-0.411583 33.8486 -0.206704 35.7966 1.0489 35.7232Z" fill="#FFA4AC"/>
<path d="M19.5992 5.23542C20.5435 7.52447 21.4887 9.81352 22.4342 12.1026C22.917 13.273 24.6918 12.4429 24.2118 11.2807C23.2675 8.99163 22.3223 6.70258 21.3768 4.41353C20.8936 3.24309 19.1191 4.07244 19.5992 5.23542Z" fill="#FFA4AC"/>
<path d="M53.3533 46.6134C55.1294 48.3388 56.9058 50.0639 58.6819 51.7897C59.5909 52.6712 60.8897 51.2057 59.9874 50.3292C58.2113 48.603 56.4348 46.878 54.6588 45.1522C53.7498 44.2706 52.4514 45.7366 53.3533 46.6134Z" fill="#FFA4AC"/>
</svg>
