<svg width="102" height="100" viewBox="0 0 102 100" fill="none" xmlns="http://www.w3.org/2000/svg">
<path fill-rule="evenodd" clip-rule="evenodd" d="M90.8784 56.1095C90.9498 53.8697 89.467 52.5248 87.6457 51.5144C83.409 49.1659 79.2208 46.7262 74.9213 44.5009C71.3269 42.64 68.9865 40.3629 69.0182 35.8227C69.0545 30.6472 68.3105 25.4666 67.9073 20.2877C67.7466 18.2249 67.2272 16.4638 65.0541 15.5137C64.999 15.4893 64.9473 15.472 64.8924 15.4498C64.838 15.4288 64.7876 15.4057 64.7319 15.3853C62.4979 14.5867 60.9121 15.5116 59.3799 16.9033C55.5359 20.3957 51.4424 23.6568 47.9192 27.4486C44.829 30.7745 41.5639 30.8276 37.6716 29.7171C33.0155 28.3885 28.294 27.2921 23.6012 26.0966C21.5816 25.5823 19.5809 25.5443 18.096 27.224C16.5368 28.9894 16.8157 30.9393 17.7706 32.9996C20.2625 38.3752 22.5916 43.8246 25.0529 49.2135C25.9919 51.268 25.9474 53.0361 24.6668 55.0179C21.5515 59.8377 18.5802 64.7544 15.6853 69.7122C14.6138 71.5467 13.4003 73.6114 14.8665 75.7765C16.2699 77.8516 18.4523 77.8335 20.6998 77.5645C26.3194 76.8921 31.9484 76.311 37.5708 75.6641C38.8168 75.5197 39.8826 75.6293 40.847 76.0346C41.8273 76.401 42.6785 77.0532 43.4867 78.0121C47.1345 82.3383 50.8333 86.6219 54.4624 90.964C55.9143 92.7013 57.4896 94.2107 59.9344 93.6628C62.4852 93.0921 63.0188 90.7579 63.4968 88.6872C64.79 83.0949 65.9976 77.4781 67.0358 71.8336C67.4633 69.5124 68.6438 68.1951 70.735 67.3441C76.2224 65.1104 81.6548 62.7404 87.1537 60.5366C89.2621 59.6919 90.8029 58.4643 90.8784 56.1095Z" fill="#F9D555"/>
<path fill-rule="evenodd" clip-rule="evenodd" d="M26.1147 43.707C26.1036 43.7036 26.3196 42.8052 26.5949 41.7096C27.3873 38.5624 28.1807 35.4156 28.9769 32.2693C29.2511 31.1738 30.4728 30.4924 31.6867 30.7725C31.6826 30.7724 37.8093 32.1511 43.8049 33.9794C49.8203 35.7368 55.7043 37.9442 55.7018 37.9401C63.5015 40.9834 71.1077 44.5263 78.4723 48.5491C79.5691 49.1476 80.0378 50.4722 79.5206 51.4763C78.0394 54.3646 76.5535 57.2494 75.0607 60.1305C74.5407 61.1335 74.1065 61.9497 74.0954 61.9438C73.879 62.3508 73.6648 62.7614 73.4457 63.1674C72.8193 64.3241 72.0609 64.4972 70.9508 63.8929C66.2319 61.3267 61.4284 58.9115 56.4635 56.8976C54.4078 56.066 53.6288 54.6378 53.4335 52.6298C53.3268 51.5256 53.1001 50.2361 52.2407 49.4108C52.0073 49.1874 51.5513 48.9977 51.2434 48.9013C50.9892 48.8221 50.7391 48.8205 50.4821 48.8665C49.8594 48.9752 49.2782 49.2188 48.7732 49.5801C48.3995 49.8463 48.0371 50.1443 47.7029 50.4551C46.224 51.8274 44.6934 52.3768 42.6073 51.6352C37.5643 49.8438 32.3818 48.4629 27.1677 47.2509C25.9414 46.9669 25.4925 46.3335 25.791 45.0523C25.8958 44.6037 26.0064 44.1552 26.1147 43.707Z" fill="#074785"/>
<path fill-rule="evenodd" clip-rule="evenodd" d="M30.6968 36.6564C30.3401 38.2695 29.824 39.8666 29.6687 41.5024C29.5121 43.1821 30.3781 44.4924 32.0985 44.9982C35.8422 46.098 39.5626 47.2684 43.2565 48.5097C45.2355 49.1779 46.5496 48.3807 47.2999 46.5425C47.6309 45.729 47.9952 44.9297 48.3232 44.1161C49.7621 40.5774 49.123 39.0523 45.1849 37.6632C42.021 36.558 38.7896 35.5764 35.5055 34.9297C33.7301 34.5773 31.8269 34.7814 30.6968 36.6564Z" fill="#FFA4AC"/>
<path fill-rule="evenodd" clip-rule="evenodd" d="M57.6633 45.3619C57.026 46.9655 56.2318 48.5309 55.7995 50.1845C55.3564 51.8852 56.012 53.3464 57.6756 54.1007C61.2915 55.7436 64.8809 57.4549 68.439 59.2413C70.3453 60.2004 71.8235 59.5712 72.9038 57.7999C73.3801 57.0148 73.8877 56.2488 74.3639 55.4638C76.4383 52.0527 76.0432 50.4018 72.2551 48.4213C69.2095 46.8428 66.0826 45.3833 62.847 44.2617C61.0982 43.6535 59.1287 43.5967 57.6633 45.3619Z" fill="#7BEFE5"/>
<path fill-rule="evenodd" clip-rule="evenodd" d="M71.8301 48.9337C73.0963 49.6029 74.1609 50.656 74.0941 52.0863C74.0313 53.4504 73.2181 54.5752 72.547 55.7007C71.8107 56.9285 69.7354 55.8715 70.4542 54.6249C70.8701 53.9087 71.3204 53.2102 71.6351 52.4421C71.9385 51.7011 71.531 51.3063 70.8372 50.9386C69.4764 50.2217 70.4433 48.2039 71.8301 48.9337Z" fill="white"/>
<path fill-rule="evenodd" clip-rule="evenodd" d="M69.0555 47.5804C70.4659 48.2583 69.4839 50.2685 68.0957 49.5999C66.7036 48.94 67.6414 46.9092 69.0555 47.5804Z" fill="white"/>
<path fill-rule="evenodd" clip-rule="evenodd" d="M45.9321 39.0066C46.7305 39.4545 47.5449 39.989 47.9062 40.8281C48.3695 41.9056 47.9432 43.0373 47.5895 44.0495C47.1109 45.4051 44.9046 44.6542 45.3591 43.2902C45.524 42.7985 45.8254 42.2002 45.7433 41.6637C45.693 41.3272 44.9325 41.0115 44.6607 40.8604C43.3218 40.117 44.5774 38.2522 45.9321 39.0066Z" fill="white"/>
<path fill-rule="evenodd" clip-rule="evenodd" d="M42.8684 37.6353C44.3577 38.1005 43.6773 40.231 42.2119 39.7732C40.744 39.3232 41.3781 37.179 42.8684 37.6353Z" fill="white"/>
<path d="M66.4848 49.304C69.4645 50.3508 70.5011 53.2355 69.6286 56.1371C69.1823 57.6231 66.8435 57.0291 67.2924 55.538C67.781 53.9108 67.582 52.4649 65.9584 51.6736C64.1757 50.8054 62.7551 51.8169 62.3894 53.6139C62.0806 55.1413 59.7453 54.5332 60.0533 53.0143C60.6836 49.9144 63.48 48.2471 66.4848 49.304Z" fill="#074785"/>
<path d="M39.2412 38.9263C42.1913 40.0588 43.1449 42.9708 42.1898 45.847C41.7015 47.32 39.3806 46.6585 39.8711 45.1812C40.4065 43.5694 40.2491 42.1177 38.6482 41.281C36.8916 40.3625 35.4419 41.3324 35.0262 43.1195C34.6726 44.6359 32.3556 43.962 32.7068 42.4529C33.4241 39.3713 36.2675 37.7844 39.2412 38.9263Z" fill="#074785"/>
<path d="M44.4995 55.1158C44.6588 54.4773 45.1159 53.9711 45.8337 54.053C46.4228 54.1197 47.0569 54.7471 46.8976 55.3871C46.6671 56.3077 46.2779 57.9089 47.1693 58.606C48.4327 59.5916 49.7399 58.1057 50.2294 57.0607C50.8876 55.6596 53.1322 56.5468 52.4695 57.9591C51.3736 60.2926 49.138 61.9997 46.5092 60.9642C44.142 60.0321 43.9668 57.2513 44.4995 55.1158Z" fill="#074785"/>
<path d="M33.9897 64.3785C34.3758 64.2183 36.4345 60.6503 36.9318 60.8822C37.4289 61.1146 36.3863 65.0477 36.526 65.3899C36.8073 66.0752 40.1629 67.809 39.944 68.2788C39.7247 68.748 36.2033 67.6179 35.534 67.8956C35.1593 68.0505 33.0876 71.6253 32.5899 71.3943C32.0931 71.1636 33.14 67.2436 32.9936 66.8893C32.7222 66.2277 29.3466 64.4642 29.5669 63.9924C29.7866 63.5208 33.3436 64.6473 33.9897 64.3785Z" fill="white"/>
<path d="M51.7233 74.7556C51.9024 74.6813 52.8596 73.0234 53.0905 73.1313C53.3209 73.239 52.8368 75.0669 52.9013 75.2261C53.0322 75.5447 54.5917 76.35 54.4903 76.5684C54.3882 76.786 52.7522 76.2607 52.4408 76.3904C52.2667 76.4625 51.3043 78.123 51.0736 78.0162C50.8421 77.9086 51.3287 76.0874 51.2612 75.9228C51.1346 75.6153 49.5668 74.7958 49.6686 74.5765C49.7705 74.3568 51.4228 74.8802 51.7233 74.7556Z" fill="white"/>
<path d="M83.4469 52.0364C84.8012 52.7828 86.1934 53.4728 87.4529 54.3776C88.7112 55.2814 87.2664 57.2029 86.0063 56.2984C84.9198 55.5179 83.7321 54.9161 82.5633 54.272C81.989 53.9558 81.623 53.38 81.8872 52.7121C82.1046 52.1609 82.8715 51.7192 83.4469 52.0364Z" fill="white"/>
<path d="M59.6965 66.5643C61.1376 67.1343 60.2535 69.3698 58.8124 68.7998C57.3708 68.2296 58.2549 65.9942 59.6965 66.5643Z" fill="white"/>
<path d="M65.4554 27.2334C66.0395 27.1437 66.8113 27.5842 66.8261 28.2397C66.8504 29.2916 66.9331 30.3413 66.9568 31.3935C66.9718 32.0485 66.6605 32.6549 65.951 32.7643C65.3667 32.8545 64.5949 32.414 64.5803 31.7581C64.5562 30.7057 64.4733 29.6565 64.4494 28.6047C64.4346 27.9492 64.7463 27.3431 65.4554 27.2334Z" fill="white"/>
<path d="M65.5102 22.4261C66.9523 22.9964 66.0682 25.2318 64.6261 24.6615C63.185 24.0915 64.0691 21.8561 65.5102 22.4261Z" fill="white"/>
<path d="M61.966 74.9623C62.5627 75.0268 63.1736 75.646 63.0316 76.2867C62.5735 78.3606 62.4689 80.4852 62.1782 82.5839C61.9657 84.1193 59.5757 83.8605 59.7884 82.3257C60.0783 80.2267 60.1838 78.1024 60.6419 76.0285C60.7832 75.3896 61.2617 74.8857 61.966 74.9623Z" fill="white"/>
<path d="M18.6399 68.7245C19.3887 67.6654 20.0367 66.5353 20.9182 65.5759C21.3614 65.0943 22.0392 64.9158 22.6021 65.3394C23.0863 65.7039 23.2825 66.54 22.8389 67.0225C21.9567 67.9811 21.3084 69.1121 20.5598 70.1707C19.6648 71.4367 17.7447 69.9899 18.6399 68.7245Z" fill="white"/>
<path d="M24.8677 62.2255C26.3097 62.7958 25.4255 65.0317 23.9834 64.4613C22.5422 63.8914 23.4265 61.6555 24.8677 62.2255Z" fill="white"/>
<path d="M21.118 31.1996C21.8591 32.117 22.2075 33.2443 22.8561 34.2136C23.219 34.7566 23.1973 35.4743 22.6522 35.9016C22.1661 36.2818 21.3292 36.2431 20.9642 35.6977C20.3184 34.7316 19.9575 33.5889 19.2268 32.6845C18.2522 31.4784 20.1424 29.9922 21.118 31.1996Z" fill="white"/>
<path d="M23.8227 37.5218C25.2648 38.0921 24.3807 40.3275 22.9386 39.7572C21.4979 39.1874 22.382 36.952 23.8227 37.5218Z" fill="white"/>
<path d="M60.9595 85.7803C62.4015 86.3506 61.5174 88.586 60.0754 88.0157C58.6342 87.4457 59.5183 85.2103 60.9595 85.7803Z" fill="white"/>
<path d="M55.8586 29.5044C57.2997 30.0744 56.4158 32.3094 54.9746 31.7394C53.5326 31.1691 54.4165 28.9341 55.8586 29.5044Z" fill="white"/>
</svg>
