<svg width="86" height="85" viewBox="0 0 86 85" fill="none" xmlns="http://www.w3.org/2000/svg">
<path fill-rule="evenodd" clip-rule="evenodd" d="M9.05383 47.5152C8.99311 45.6116 10.2534 44.4686 11.8013 43.6098C15.402 41.6138 18.9616 39.5403 22.6157 37.6491C25.6706 36.0675 27.6597 34.1321 27.6328 30.2735C27.6019 25.8748 28.2342 21.4719 28.5769 17.0703C28.7135 15.3172 29.1549 13.8204 31.0018 13.0129C31.0487 12.9922 31.0926 12.9775 31.1393 12.9586C31.1855 12.9407 31.2284 12.9211 31.2757 12.9037C33.1744 12.225 34.5221 13.0111 35.8243 14.1939C39.0914 17.1621 42.5704 19.9337 45.5647 23.1564C48.1911 25.983 50.9661 26.0281 54.2741 25.0844C58.2314 23.9552 62.2442 23.0233 66.2325 22.0073C67.949 21.5702 69.6494 21.5379 70.9114 22.9655C72.2366 24.4659 71.9995 26.1231 71.188 27.8741C69.0701 32.4428 67.0906 37.0743 64.9988 41.6543C64.2007 43.4004 64.2385 44.9031 65.3269 46.5874C67.9746 50.6838 70.4999 54.8625 72.9602 59.0761C73.8709 60.6352 74.9022 62.39 73.6562 64.2302C72.4634 65.9937 70.6086 65.9783 68.6984 65.7497C63.9224 65.1783 59.1383 64.6844 54.3599 64.1345C53.3008 64.0118 52.395 64.105 51.5754 64.4494C50.7422 64.7609 50.0188 65.3151 49.3319 66.1301C46.2317 69.8069 43.0881 73.4476 40.0037 77.1379C38.7697 78.6145 37.4309 79.8973 35.353 79.4316C33.1851 78.9466 32.7317 76.9627 32.3253 75.2029C31.2263 70.45 30.1999 65.6763 29.3176 60.8791C28.9543 58.9063 27.951 57.7867 26.1737 57.0635C21.51 55.165 16.8929 53.1508 12.2194 51.2777C10.4275 50.5599 9.11797 49.5165 9.05383 47.5152Z" fill="#F9D555"/>
<path fill-rule="evenodd" clip-rule="evenodd" d="M64.0947 36.9744C64.1041 36.9715 63.9206 36.208 63.6866 35.2768C63.0131 32.602 62.3389 29.9275 61.6622 27.2536C61.4291 26.3225 60.3908 25.7433 59.3591 25.9814C59.3626 25.9814 54.1555 27.1531 49.0599 28.707C43.9474 30.2006 38.9466 32.0766 38.9488 32.0731C32.3198 34.6596 25.8553 37.6707 19.5961 41.0897C18.664 41.5984 18.2656 42.7241 18.7052 43.5775C19.964 46.0322 21.2269 48.4841 22.4957 50.9327C22.9376 51.7851 23.3066 52.4788 23.316 52.4738C23.5 52.8198 23.682 53.1687 23.8682 53.5138C24.4006 54.4969 25.0452 54.6439 25.9886 54.1303C29.9992 51.9493 34.0817 49.8966 38.3013 48.1851C40.0485 47.4783 40.7105 46.2645 40.8765 44.5579C40.9673 43.6194 41.1599 42.5235 41.8904 41.822C42.0887 41.6322 42.4762 41.471 42.738 41.3891C42.9539 41.3217 43.1665 41.3204 43.3849 41.3595C43.9141 41.4518 44.4081 41.6589 44.8374 41.9659C45.1549 42.1922 45.4629 42.4455 45.747 42.7096C47.0039 43.8759 48.3047 44.3429 50.0777 43.7125C54.3637 42.19 58.7683 41.0165 63.1998 39.9864C64.2421 39.745 64.6235 39.2067 64.3699 38.1177C64.2807 37.7365 64.1868 37.3554 64.0947 36.9744Z" fill="#074785"/>
<path fill-rule="evenodd" clip-rule="evenodd" d="M60.2011 30.9821C60.5042 32.3531 60.9428 33.7105 61.0748 35.1007C61.2079 36.5283 60.4719 37.6419 59.0097 38.0718C55.828 39.0065 52.666 40.0013 49.5266 41.0562C47.8447 41.6241 46.7278 40.9466 46.0901 39.3843C45.8088 38.6929 45.4992 38.0136 45.2204 37.3221C43.9975 34.3146 44.5407 33.0184 47.8876 31.8379C50.5766 30.8985 53.323 30.0642 56.1142 29.5147C57.623 29.2151 59.2406 29.3886 60.2011 30.9821Z" fill="#FFA4AC"/>
<path fill-rule="evenodd" clip-rule="evenodd" d="M37.283 38.3809C37.8247 39.7438 38.4997 41.0743 38.8671 42.4797C39.2437 43.9251 38.6865 45.1669 37.2726 45.808C34.1995 47.2043 31.1489 48.6587 28.1248 50.177C26.5046 50.9922 25.2483 50.4574 24.3302 48.9519C23.9254 48.2847 23.494 47.6337 23.0892 46.9665C21.3263 44.0674 21.6621 42.6643 24.8815 40.9811C27.47 39.6395 30.1275 38.3992 32.8775 37.4459C34.3638 36.9289 36.0376 36.8807 37.283 38.3809Z" fill="#7BEFE5"/>
<path fill-rule="evenodd" clip-rule="evenodd" d="M25.2397 41.4167C24.1635 41.9854 23.2587 42.8804 23.3155 44.0961C23.3689 45.2554 24.0601 46.2114 24.6304 47.168C25.2562 48.2115 27.02 47.3131 26.409 46.2537C26.0556 45.6449 25.6729 45.0513 25.4054 44.3985C25.1475 43.7687 25.4939 43.4331 26.0836 43.1207C27.2401 42.5114 26.4183 40.7965 25.2397 41.4167Z" fill="white"/>
<path fill-rule="evenodd" clip-rule="evenodd" d="M27.5993 40.2664C26.4006 40.8426 27.2352 42.5511 28.415 41.9828C29.5982 41.4219 28.8011 39.6959 27.5993 40.2664Z" fill="white"/>
<path fill-rule="evenodd" clip-rule="evenodd" d="M47.2517 32.9795C46.5732 33.3602 45.881 33.8144 45.574 34.5276C45.1801 35.4433 45.5425 36.4051 45.8431 37.2655C46.2499 38.4175 48.125 37.7794 47.7387 36.6201C47.5985 36.2022 47.3424 35.6937 47.4121 35.2377C47.4549 34.9518 48.1012 34.6834 48.3323 34.5551C49.4702 33.9232 48.4031 32.3384 47.2517 32.9795Z" fill="white"/>
<path fill-rule="evenodd" clip-rule="evenodd" d="M49.856 31.814C48.5902 32.2094 49.1685 34.0201 50.4139 33.631C51.6615 33.2486 51.1226 31.4262 49.856 31.814Z" fill="white"/>
<path d="M29.7876 41.7312C27.2551 42.621 26.3742 45.0727 27.1157 47.5387C27.495 48.8016 29.4827 48.2968 29.1013 47.0295C28.686 45.6466 28.8551 44.4177 30.235 43.7452C31.7501 43.0073 32.9575 43.8669 33.2683 45.3942C33.5307 46.6924 35.5154 46.1755 35.2537 44.8847C34.718 42.25 32.3414 40.833 29.7876 41.7312Z" fill="#074785"/>
<path d="M52.9404 32.9113C50.4331 33.8739 49.6226 36.3488 50.4344 38.7932C50.8493 40.0451 52.8219 39.4829 52.405 38.2274C51.95 36.8575 52.0837 35.6238 53.4443 34.9126C54.9373 34.132 56.1694 34.9563 56.5227 36.4752C56.8232 37.7639 58.7925 37.1912 58.4939 35.9087C57.8843 33.2896 55.4677 31.9408 52.9404 32.9113Z" fill="#074785"/>
<path d="M48.4732 46.6707C48.3379 46.128 47.9494 45.6979 47.3393 45.7674C46.8387 45.8241 46.2998 46.3573 46.4352 46.9012C46.631 47.6837 46.9619 49.0445 46.2042 49.637C45.1305 50.4746 44.0195 49.2118 43.6035 48.3236C43.0441 47.1329 41.1364 47.8869 41.6996 49.0872C42.631 51.0704 44.531 52.5213 46.7653 51.6412C48.7772 50.8491 48.926 48.4857 48.4732 46.6707Z" fill="#074785"/>
<path d="M57.4039 54.5432C57.0758 54.407 55.3261 51.3746 54.9034 51.5717C54.4809 51.7691 55.3671 55.1119 55.2483 55.4028C55.0093 55.9851 52.1573 57.4587 52.3434 57.858C52.5297 58.2567 55.5226 57.2963 56.0914 57.5323C56.4099 57.6639 58.1706 60.7022 58.5936 60.5058C59.0158 60.3098 58.1261 56.9781 58.2505 56.6771C58.4812 56.1147 61.35 54.616 61.1628 54.215C60.9761 53.8142 57.9531 54.7716 57.4039 54.5432Z" fill="white"/>
<path d="M42.3329 63.3624C42.1807 63.2994 41.3672 61.8903 41.171 61.982C40.9752 62.0735 41.3866 63.6271 41.3318 63.7624C41.2205 64.0331 39.8951 64.7176 39.9813 64.9032C40.0681 65.0881 41.4585 64.6417 41.7231 64.7519C41.8711 64.8131 42.689 66.2244 42.8852 66.1336C43.0819 66.0422 42.6683 64.4943 42.7257 64.3545C42.8333 64.0931 44.1657 63.3966 44.0793 63.2103C43.9926 63.0235 42.5884 63.4684 42.3329 63.3624Z" fill="white"/>
<path d="M15.3685 44.0536C14.2175 44.688 13.0343 45.2744 11.9639 46.0434C10.8944 46.8115 12.1223 48.4446 13.1933 47.6758C14.1167 47.0126 15.1261 46.5011 16.1195 45.9536C16.6076 45.6849 16.9187 45.1955 16.6942 44.6279C16.5093 44.1594 15.8576 43.784 15.3685 44.0536Z" fill="white"/>
<path d="M35.5558 56.4006C34.331 56.885 35.0824 58.7849 36.3072 58.3005C37.5325 57.8159 36.7811 55.916 35.5558 56.4006Z" fill="white"/>
<path d="M30.6604 22.9736C30.1639 22.8974 29.508 23.2717 29.4954 23.8288C29.4748 24.7229 29.4045 25.615 29.3843 26.5092C29.3716 27.066 29.6361 27.5813 30.2392 27.6743C30.7357 27.7509 31.3917 27.3766 31.4041 26.8191C31.4246 25.9247 31.4951 25.033 31.5153 24.1391C31.5279 23.582 31.263 23.0668 30.6604 22.9736Z" fill="white"/>
<path d="M30.6135 18.8877C29.3879 19.3724 30.1393 21.2723 31.3649 20.7876C32.5898 20.3032 31.8384 18.4033 30.6135 18.8877Z" fill="white"/>
<path d="M33.6257 63.5381C33.1185 63.5929 32.5993 64.1193 32.72 64.6637C33.1093 66.4263 33.1983 68.232 33.4454 70.0157C33.6259 71.3206 35.6572 71.1007 35.4764 69.7963C35.2301 68.0123 35.1404 66.2069 34.751 64.4443C34.631 63.9013 34.2243 63.4731 33.6257 63.5381Z" fill="white"/>
<path d="M70.4493 58.2368C69.8129 57.3367 69.2622 56.3762 68.5131 55.5608C68.1363 55.1515 67.5603 54.9997 67.0819 55.3598C66.6703 55.6696 66.5036 56.3802 66.8806 56.7902C67.6304 57.605 68.1814 58.5662 68.8177 59.4659C69.5783 60.5419 71.2102 59.3122 70.4493 58.2368Z" fill="white"/>
<path d="M65.156 52.7131C63.9304 53.1978 64.682 55.0981 65.9076 54.6134C67.1324 54.129 66.3809 52.2287 65.156 52.7131Z" fill="white"/>
<path d="M68.3427 26.3445C67.7128 27.1242 67.4167 28.0822 66.8654 28.9061C66.557 29.3675 66.5755 29.9775 67.0388 30.3407C67.4519 30.6638 68.1631 30.6309 68.4734 30.1674C69.0222 29.3463 69.3289 28.3752 69.95 27.6065C70.7783 26.5815 69.1718 25.3183 68.3427 26.3445Z" fill="white"/>
<path d="M66.0432 31.7175C64.8176 32.2022 65.569 34.1021 66.7946 33.6174C68.0191 33.1331 67.2677 31.2332 66.0432 31.7175Z" fill="white"/>
<path d="M34.4832 72.7324C33.2576 73.2171 34.009 75.117 35.2346 74.6323C36.4594 74.1479 35.708 72.248 34.4832 72.7324Z" fill="white"/>
<path d="M38.8171 24.9035C37.5922 25.388 38.3435 27.2875 39.5683 26.8031C40.7939 26.3183 40.0427 24.4188 38.8171 24.9035Z" fill="white"/>
</svg>
