<svg width="64" height="64" viewBox="0 0 64 64" fill="none" xmlns="http://www.w3.org/2000/svg">
<path d="M35.4662 21.6267L38.9862 28.6667C39.4662 29.6267 40.7462 30.5867 41.8129 30.7467L48.1863 31.8133C52.2663 32.5067 53.2262 35.44 50.2929 38.3734L45.3329 43.3334C44.5063 44.16 44.0262 45.7867 44.2929 46.96L45.7063 53.12C46.8263 57.9734 44.2396 59.8667 39.9463 57.3334L33.9729 53.7867C32.8796 53.1467 31.1196 53.1467 30.0263 53.7867L24.0529 57.3334C19.7596 59.8667 17.1729 57.9734 18.2929 53.12L19.7063 46.96C19.973 45.8134 19.4929 44.1867 18.6663 43.3334L13.7063 38.3734C10.773 35.44 11.7329 32.48 15.8129 31.8133L22.1863 30.7467C23.2529 30.56 24.5329 29.6267 25.0129 28.6667L28.533 21.6267C30.4263 17.8134 33.5729 17.8134 35.4662 21.6267Z" stroke="#FB8500" stroke-width="3.5" stroke-linecap="round" stroke-linejoin="round"/>
<path d="M16 24V5.33334" stroke="#FB8500" stroke-width="3.5" stroke-linecap="round" stroke-linejoin="round"/>
<path d="M48 24V5.33334" stroke="#FB8500" stroke-width="3.5" stroke-linecap="round" stroke-linejoin="round"/>
<path d="M32 10.6667V5.33334" stroke="#FB8500" stroke-width="3.5" stroke-linecap="round" stroke-linejoin="round"/>
</svg>
