<svg width="65" height="64" viewBox="0 0 65 64" fill="none" xmlns="http://www.w3.org/2000/svg">
<path d="M24.9268 28.9867C24.6602 28.96 24.3402 28.96 24.0468 28.9867C17.7002 28.7734 12.6602 23.5734 12.6602 17.1734C12.6602 10.64 17.9402 5.33337 24.5002 5.33337C31.0335 5.33337 36.3402 10.64 36.3402 17.1734C36.3135 23.5734 31.2735 28.7734 24.9268 28.9867Z" stroke="#219EBC" stroke-width="3.4" stroke-linecap="round" stroke-linejoin="round"/>
<path d="M44.2602 10.6666C49.4336 10.6666 53.5936 14.8533 53.5936 20C53.5936 25.04 49.5936 29.1466 44.6069 29.3333C44.3936 29.3066 44.1536 29.3066 43.9136 29.3333" stroke="#219EBC" stroke-width="3.4" stroke-linecap="round" stroke-linejoin="round"/>
<path d="M11.5934 38.8266C5.14008 43.1466 5.14008 50.1866 11.5934 54.48C18.9268 59.3866 30.9534 59.3866 38.2868 54.48C44.7401 50.16 44.7401 43.12 38.2868 38.8266C30.9801 33.9466 18.9534 33.9466 11.5934 38.8266Z" stroke="#219EBC" stroke-width="3.4" stroke-linecap="round" stroke-linejoin="round"/>
<path d="M49.4067 53.3334C51.3267 52.9334 53.1401 52.16 54.6334 51.0134C58.7934 47.8934 58.7934 42.7467 54.6334 39.6267C53.1667 38.5067 51.3801 37.76 49.4867 37.3334" stroke="#219EBC" stroke-width="3.4" stroke-linecap="round" stroke-linejoin="round"/>
</svg>
