<svg width="64" height="64" viewBox="0 0 64 64" fill="none" xmlns="http://www.w3.org/2000/svg">
<g clip-path="url(#clip0_95_2712)">
<path d="M54.4517 11.0471V16.1587" stroke="#FFB703" stroke-width="2.50489" stroke-miterlimit="10" stroke-linecap="round" stroke-linejoin="round"/>
<path d="M54.4517 11.0471V16.1587" stroke="#FFB703" stroke-width="2.50489" stroke-miterlimit="10" stroke-linecap="round" stroke-linejoin="round"/>
<path d="M57.0078 13.6028H51.8962" stroke="#FFB703" stroke-width="2.50489" stroke-miterlimit="10" stroke-linecap="round" stroke-linejoin="round"/>
<path d="M57.0078 13.6028H51.8962" stroke="#FFB703" stroke-width="2.50489" stroke-miterlimit="10" stroke-linecap="round" stroke-linejoin="round"/>
<path d="M11.9639 51.5991V56.7107" stroke="#FFB703" stroke-width="2.50489" stroke-miterlimit="10" stroke-linecap="round" stroke-linejoin="round"/>
<path d="M11.9639 51.5991V56.7107" stroke="#FFB703" stroke-width="2.50489" stroke-miterlimit="10" stroke-linecap="round" stroke-linejoin="round"/>
<path d="M14.52 54.155H9.40841" stroke="#FFB703" stroke-width="2.50489" stroke-miterlimit="10" stroke-linecap="round" stroke-linejoin="round"/>
<path d="M14.52 54.155H9.40841" stroke="#FFB703" stroke-width="2.50489" stroke-miterlimit="10" stroke-linecap="round" stroke-linejoin="round"/>
<path d="M39.6594 46.5044L54.486 61.331C56.3756 63.2206 59.4402 63.2193 61.3298 61.3297C63.2193 59.4402 63.2206 56.3756 61.331 54.486L46.5044 39.6595" stroke="#FFB703" stroke-width="2.50489" stroke-miterlimit="10" stroke-linecap="round" stroke-linejoin="round"/>
<path d="M37.1308 7.4806C27.2056 -0.363844 14.1356 -0.951742 6.59187 6.59187C-1.67991 14.8636 -0.17459 29.7803 9.95419 39.9091C20.083 50.0378 34.9996 51.5432 43.2714 43.2714C50.0479 36.4949 50.2625 25.2589 44.55 15.8492" stroke="#FFB703" stroke-width="2.50489" stroke-miterlimit="10" stroke-linecap="round" stroke-linejoin="round"/>
<path d="M38.7555 38.7556C41.948 35.5631 42.019 31.066 41.7772 28.6696C41.2905 23.8464 38.7828 18.8518 34.8971 14.9661C31.0114 11.0804 26.0168 8.57274 21.1936 8.08604C18.7972 7.84419 14.3002 7.91508 11.1077 11.1077C7.91518 14.3003 7.84417 18.7972 8.08602 21.1936C8.57272 26.0168 11.0804 31.0114 14.9661 34.8972C18.8518 38.7829 23.8464 41.2905 28.6696 41.7772C31.066 42.0191 35.5631 41.9481 38.7555 38.7556Z" stroke="#FFB703" stroke-width="2.50489" stroke-miterlimit="10" stroke-linecap="round" stroke-linejoin="round"/>
<path d="M56.152 62.4194L58.9688 52.1243" stroke="#FFB703" stroke-width="2.50489" stroke-miterlimit="10" stroke-linecap="round" stroke-linejoin="round"/>
<path d="M51.2938 58.1385L54.2358 47.3913" stroke="#FFB703" stroke-width="2.50489" stroke-miterlimit="10" stroke-linecap="round" stroke-linejoin="round"/>
<path d="M46.5611 53.4055L49.4868 42.7147" stroke="#FFB703" stroke-width="2.50489" stroke-miterlimit="10" stroke-linecap="round" stroke-linejoin="round"/>
<circle cx="1.25245" cy="1.25245" r="1.25245" transform="matrix(-1 0 0 1 42.4902 10.0566)" fill="#FFB703"/>
</g>
<defs>
<clipPath id="clip0_95_2712">
<rect width="64" height="64" fill="white" transform="matrix(-1 0 0 1 64 0)"/>
</clipPath>
</defs>
</svg>
