<svg width="36" height="36" viewBox="0 0 36 36" fill="none" xmlns="http://www.w3.org/2000/svg">
<path d="M20.5949 5.26496L23.2349 10.545C23.5949 11.28 24.5549 11.985 25.3649 12.12L30.1499 12.915C33.2099 13.425 33.9299 15.645 31.7249 17.835L28.0049 21.555C27.3749 22.185 27.0299 23.4 27.2249 24.27L28.2899 28.875C29.1299 32.52 27.1949 33.93 23.9699 32.025L19.4849 29.37C18.6749 28.89 17.3399 28.89 16.5149 29.37L12.0299 32.025C8.81986 33.93 6.86986 32.505 7.70986 28.875L8.77486 24.27C8.96986 23.4 8.62486 22.185 7.99486 21.555L4.27486 17.835C2.08486 15.645 2.78986 13.425 5.84986 12.915L10.6349 12.12C11.4299 11.985 12.3899 11.28 12.7499 10.545L15.3899 5.26496C16.8299 2.39996 19.1699 2.39996 20.5949 5.26496Z" stroke="#219EBC" stroke-width="2.2" stroke-linecap="round" stroke-linejoin="round"/>
</svg>
