<svg width="36" height="36" viewBox="0 0 36 36" fill="none" xmlns="http://www.w3.org/2000/svg">
<path d="M9 4.5V22.5M9 22.5C6.51473 22.5 4.5 24.5146 4.5 27C4.5 29.4854 6.51473 31.5 9 31.5C11.4853 31.5 13.5 29.4854 13.5 27M9 22.5C11.4853 22.5 13.5 24.5146 13.5 27M13.5 27C17.0803 27 20.5142 25.5777 23.046 23.046C25.5777 20.5142 27 17.0803 27 13.5M27 13.5C29.4854 13.5 31.5 11.4853 31.5 9C31.5 6.51473 29.4854 4.5 27 4.5C24.5146 4.5 22.5 6.51473 22.5 9C22.5 11.4853 24.5146 13.5 27 13.5Z" stroke="#FFB703" stroke-width="2.5" stroke-linecap="round" stroke-linejoin="round"/>
</svg>
