<svg width="72" height="73" viewBox="0 0 72 73" fill="none" xmlns="http://www.w3.org/2000/svg">
<g clip-path="url(#clip0_110_2007)">
<path d="M72 36.5C72 16.6177 55.8823 0.5 36 0.5C16.1177 0.5 0 16.6177 0 36.5C0 56.3823 16.1177 72.5 36 72.5C55.8823 72.5 72 56.3823 72 36.5Z" fill="url(#paint0_linear_110_2007)"/>
<path d="M36 69.6875C54.329 69.6875 69.1875 54.8289 69.1875 36.5C69.1875 18.171 54.329 3.3125 36 3.3125C17.6711 3.3125 2.8125 18.171 2.8125 36.5C2.8125 54.8289 17.6711 69.6875 36 69.6875Z" fill="url(#paint1_linear_110_2007)"/>
<path d="M36 64.0625C51.2223 64.0625 63.5625 51.7223 63.5625 36.5C63.5625 21.2777 51.2223 8.9375 36 8.9375C20.7777 8.9375 8.4375 21.2777 8.4375 36.5C8.4375 51.7223 20.7777 64.0625 36 64.0625Z" fill="url(#paint2_linear_110_2007)"/>
<path d="M37.4062 35.0938C37.4062 34.3171 36.7767 33.6875 36 33.6875C35.2233 33.6875 34.5938 34.3171 34.5938 35.0938V51.9688C34.5938 52.7454 35.2233 53.375 36 53.375C36.7767 53.375 37.4062 52.7454 37.4062 51.9688V35.0938Z" fill="url(#paint3_linear_110_2007)"/>
<path d="M31.7333 46.9928C31.5321 47.7431 31.9773 48.5143 32.7275 48.7155C33.4777 48.9166 34.249 48.4715 34.4502 47.7213L37.7281 35.4953C37.9293 34.7451 37.4842 33.9738 36.7339 33.7727C35.9837 33.5715 35.2124 34.0167 35.0112 34.7669L31.7333 46.9928Z" fill="url(#paint4_linear_110_2007)"/>
<path d="M36 40.7188C38.33 40.7188 40.2188 38.83 40.2188 36.5C40.2188 34.17 38.33 32.2812 36 32.2812C33.67 32.2812 31.7812 34.17 31.7812 36.5C31.7812 38.83 33.67 40.7188 36 40.7188Z" fill="url(#paint5_linear_110_2007)"/>
<path d="M36 39.3125C37.5533 39.3125 38.8125 38.0533 38.8125 36.5C38.8125 34.9467 37.5533 33.6875 36 33.6875C34.4467 33.6875 33.1875 34.9467 33.1875 36.5C33.1875 38.0533 34.4467 39.3125 36 39.3125Z" fill="url(#paint6_linear_110_2007)"/>
<path d="M58.5 37.9062H60.6094C61.386 37.9062 62.0156 37.2767 62.0156 36.5C62.0156 35.7233 61.386 35.0938 60.6094 35.0938H58.5C57.7233 35.0938 57.0938 35.7233 57.0938 36.5C57.0938 37.2767 57.7233 37.9062 58.5 37.9062Z" fill="url(#paint7_linear_110_2007)"/>
<path d="M11.3906 37.9062H13.5C14.2767 37.9062 14.9062 37.2767 14.9062 36.5C14.9062 35.7233 14.2767 35.0938 13.5 35.0938H11.3906C10.614 35.0938 9.98438 35.7233 9.98438 36.5C9.98438 37.2767 10.614 37.9062 11.3906 37.9062Z" fill="url(#paint8_linear_110_2007)"/>
<path d="M56.1898 26.468L58.0166 25.4133C58.6891 25.025 58.9196 24.165 58.5312 23.4924C58.1429 22.8198 57.2829 22.5894 56.6103 22.9777L54.7836 24.0324C54.111 24.4207 53.8806 25.2808 54.2689 25.9533C54.6572 26.6259 55.5173 26.8563 56.1898 26.468Z" fill="url(#paint9_linear_110_2007)"/>
<path d="M15.391 50.0234L17.2177 48.9688C17.8903 48.5804 18.1207 47.7204 17.7324 47.0478C17.3441 46.3752 16.4841 46.1448 15.8115 46.5331L13.9848 47.5878C13.3122 47.9761 13.0818 48.8362 13.4701 49.5088C13.8584 50.1813 14.7184 50.4118 15.391 50.0234Z" fill="url(#paint10_linear_110_2007)"/>
<path d="M48.4678 17.7165L49.5225 15.8898C49.9108 15.2172 49.6804 14.3572 49.0078 13.9689C48.3352 13.5805 47.4752 13.811 47.0868 14.4836L46.0321 16.3103C45.6438 16.9829 45.8743 17.8429 46.5468 18.2312C47.2194 18.6195 48.0794 18.3891 48.4678 17.7165Z" fill="url(#paint11_linear_110_2007)"/>
<path d="M24.9141 58.5154L25.9688 56.6886C26.3571 56.0161 26.1266 55.156 25.4541 54.7677C24.7815 54.3794 23.9215 54.6098 23.5331 55.2824L22.4784 57.1091C22.0901 57.7817 22.3205 58.6417 22.9931 59.03C23.6657 59.4184 24.5257 59.1879 24.9141 58.5154Z" fill="url(#paint12_linear_110_2007)"/>
<path d="M37.4062 14V11.8906C37.4062 11.114 36.7767 10.4844 36 10.4844C35.2233 10.4844 34.5938 11.114 34.5938 11.8906V14C34.5938 14.7767 35.2233 15.4062 36 15.4062C36.7767 15.4062 37.4062 14.7767 37.4062 14Z" fill="url(#paint13_linear_110_2007)"/>
<path d="M37.4062 61.1094V59C37.4062 58.2233 36.7767 57.5938 36 57.5938C35.2233 57.5938 34.5938 58.2233 34.5938 59V61.1094C34.5938 61.886 35.2233 62.5156 36 62.5156C36.7767 62.5156 37.4062 61.886 37.4062 61.1094Z" fill="url(#paint14_linear_110_2007)"/>
<path d="M25.9678 16.311L24.9131 14.4843C24.5248 13.8117 23.6647 13.5813 22.9921 13.9696C22.3196 14.3579 22.0891 15.218 22.4775 15.8905L23.5321 17.7173C23.9205 18.3898 24.7805 18.6203 25.4531 18.2319C26.1257 17.8436 26.3561 16.9836 25.9678 16.311Z" fill="url(#paint15_linear_110_2007)"/>
<path d="M49.5234 57.1084L48.4688 55.2817C48.0804 54.6091 47.2204 54.3786 46.5478 54.767C45.8752 55.1553 45.6448 56.0153 46.0331 56.6879L47.0878 58.5146C47.4761 59.1872 48.3362 59.4176 49.0088 59.0293C49.6813 58.641 49.9118 57.781 49.5234 57.1084Z" fill="url(#paint16_linear_110_2007)"/>
<path d="M17.2174 24.032L15.3907 22.9773C14.7181 22.589 13.8581 22.8194 13.4697 23.492C13.0814 24.1646 13.3118 25.0246 13.9844 25.4129L15.8111 26.4676C16.4837 26.8559 17.3437 26.6255 17.7321 25.9529C18.1204 25.2803 17.89 24.4203 17.2174 24.032Z" fill="url(#paint17_linear_110_2007)"/>
<path d="M58.0143 47.5859L56.1875 46.5312C55.515 46.1429 54.6549 46.3734 54.2666 47.0459C53.8783 47.7185 54.1087 48.5785 54.7813 48.9669L56.608 50.0216C57.2806 50.4099 58.1406 50.1795 58.5289 49.5069C58.9173 48.8343 58.6868 47.9743 58.0143 47.5859Z" fill="url(#paint18_linear_110_2007)"/>
</g>
<defs>
<linearGradient id="paint0_linear_110_2007" x1="10.5441" y1="11.0441" x2="61.4559" y2="61.9559" gradientUnits="userSpaceOnUse">
<stop stop-color="#8D8CF2"/>
<stop offset="1" stop-color="#5654DD"/>
</linearGradient>
<linearGradient id="paint1_linear_110_2007" x1="12.5325" y1="13.0325" x2="59.4675" y2="59.9675" gradientUnits="userSpaceOnUse">
<stop stop-color="#CFCFFA"/>
<stop offset="1" stop-color="#7A7AF0"/>
</linearGradient>
<linearGradient id="paint2_linear_110_2007" x1="16.5108" y1="17.0108" x2="55.4892" y2="55.9892" gradientUnits="userSpaceOnUse">
<stop stop-color="white"/>
<stop offset="1" stop-color="#E3E3FF"/>
</linearGradient>
<linearGradient id="paint3_linear_110_2007" x1="30.787" y1="38.3183" x2="41.213" y2="48.7442" gradientUnits="userSpaceOnUse">
<stop stop-color="#FFBDCD"/>
<stop offset="1" stop-color="#FF94AF"/>
</linearGradient>
<linearGradient id="paint4_linear_110_2007" x1="31.5079" y1="38.0113" x2="37.9726" y2="44.4759" gradientUnits="userSpaceOnUse">
<stop stop-color="#FF94AE"/>
<stop offset="1" stop-color="#FF3866"/>
</linearGradient>
<linearGradient id="paint5_linear_110_2007" x1="33.0173" y1="33.5173" x2="38.9827" y2="39.4827" gradientUnits="userSpaceOnUse">
<stop stop-color="#8D8CF2"/>
<stop offset="1" stop-color="#6361DD"/>
</linearGradient>
<linearGradient id="paint6_linear_110_2007" x1="34.0116" y1="38.4884" x2="37.9884" y2="34.5116" gradientUnits="userSpaceOnUse">
<stop stop-color="white"/>
<stop offset="1" stop-color="#E3E3FF"/>
</linearGradient>
<linearGradient id="paint7_linear_110_2007" x1="58.0331" y1="34.9784" x2="61.0763" y2="38.0216" gradientUnits="userSpaceOnUse">
<stop stop-color="#8D8CF2"/>
<stop offset="1" stop-color="#6361DD"/>
</linearGradient>
<linearGradient id="paint8_linear_110_2007" x1="10.9238" y1="34.9784" x2="13.9669" y2="38.0216" gradientUnits="userSpaceOnUse">
<stop stop-color="#8D8CF2"/>
<stop offset="1" stop-color="#6361DD"/>
</linearGradient>
<linearGradient id="paint9_linear_110_2007" x1="55.2109" y1="23.5349" x2="57.5859" y2="25.9114" gradientUnits="userSpaceOnUse">
<stop stop-color="#8D8CF2"/>
<stop offset="1" stop-color="#6361DD"/>
</linearGradient>
<linearGradient id="paint10_linear_110_2007" x1="14.4139" y1="47.0893" x2="16.7889" y2="49.4658" gradientUnits="userSpaceOnUse">
<stop stop-color="#8D8CF2"/>
<stop offset="1" stop-color="#6361DD"/>
</linearGradient>
<linearGradient id="paint11_linear_110_2007" x1="46.5884" y1="14.9126" x2="48.9648" y2="17.2877" gradientUnits="userSpaceOnUse">
<stop stop-color="#8D8CF2"/>
<stop offset="1" stop-color="#6361DD"/>
</linearGradient>
<linearGradient id="paint12_linear_110_2007" x1="23.0357" y1="55.7097" x2="25.4121" y2="58.0847" gradientUnits="userSpaceOnUse">
<stop stop-color="#8D8CF2"/>
<stop offset="1" stop-color="#6361DD"/>
</linearGradient>
<linearGradient id="paint13_linear_110_2007" x1="34.4784" y1="11.4237" x2="37.5216" y2="14.4669" gradientUnits="userSpaceOnUse">
<stop stop-color="#8D8CF2"/>
<stop offset="1" stop-color="#6361DD"/>
</linearGradient>
<linearGradient id="paint14_linear_110_2007" x1="34.4784" y1="58.5331" x2="37.5216" y2="61.5762" gradientUnits="userSpaceOnUse">
<stop stop-color="#8D8CF2"/>
<stop offset="1" stop-color="#6361DD"/>
</linearGradient>
<linearGradient id="paint15_linear_110_2007" x1="22.5068" y1="14.3866" x2="25.9379" y2="17.8163" gradientUnits="userSpaceOnUse">
<stop stop-color="#8D8CF2"/>
<stop offset="1" stop-color="#6361DD"/>
</linearGradient>
<linearGradient id="paint16_linear_110_2007" x1="46.0614" y1="55.1822" x2="49.4925" y2="58.6119" gradientUnits="userSpaceOnUse">
<stop stop-color="#8D8CF2"/>
<stop offset="1" stop-color="#6361DD"/>
</linearGradient>
<linearGradient id="paint17_linear_110_2007" x1="13.8867" y1="23.0067" x2="17.3164" y2="26.4378" gradientUnits="userSpaceOnUse">
<stop stop-color="#8D8CF2"/>
<stop offset="1" stop-color="#6361DD"/>
</linearGradient>
<linearGradient id="paint18_linear_110_2007" x1="54.6818" y1="46.5596" x2="58.1115" y2="49.9907" gradientUnits="userSpaceOnUse">
<stop stop-color="#8D8CF2"/>
<stop offset="1" stop-color="#6361DD"/>
</linearGradient>
<clipPath id="clip0_110_2007">
<rect width="72" height="72" fill="white" transform="translate(0 0.5)"/>
</clipPath>
</defs>
</svg>
